<svg width="173" height="261" viewBox="0 0 173 261" fill="none" xmlns="http://www.w3.org/2000/svg">
<path d="M0.244141 242.736V17.9033C0.244141 7.75823 7.55457 0.149414 17.6997 0.149414H155.106C162.864 0.149414 168.235 3.73003 171.368 11.0405C172.412 13.5767 173.009 16.113 173.009 18.5001C173.009 22.8267 171.219 26.7057 167.638 30.4355L60.0703 137.556H155.106C160.029 137.556 164.057 139.346 167.489 142.777C170.92 146.209 172.561 150.386 172.561 155.31C172.561 160.233 170.92 164.41 167.489 167.842C164.207 171.273 160.029 173.063 155.106 173.063H35.006V224.982H155.106C160.029 224.982 164.057 226.773 167.489 230.204C170.92 233.636 172.561 237.813 172.561 242.736C172.561 247.66 170.92 251.837 167.489 255.268C164.207 258.7 160.029 260.49 155.106 260.49H17.6997C7.55457 260.49 0.244141 252.881 0.244141 242.736ZM35.006 35.508V112.939L112.735 35.508H35.006Z" fill="#272727"/>
</svg>
