<svg width="185" height="261" viewBox="0 0 185 261" fill="none" xmlns="http://www.w3.org/2000/svg">
<path d="M0.0854492 242.736V17.9031C0.0854492 9.69751 4.56122 3.43143 12.3192 1.04435C12.7668 1.04435 13.0652 0.895155 13.2144 0.745962C14.8555 0.298385 16.4966 0 18.1377 0C18.5853 0 19.1821 0 19.6297 0.149192H75.2784C99.746 0.149192 120.633 8.80235 137.939 26.1087C155.246 43.415 163.899 64.3019 163.899 88.7695C163.899 102.346 160.915 115.177 155.096 127.112C149.278 139.047 141.371 149.043 131.226 157.249L181.653 232.889C183.592 235.873 184.637 239.155 184.487 242.587C184.487 243.78 184.338 244.974 184.189 246.317C183.294 251.091 180.758 254.821 176.729 257.357C173.745 259.296 170.463 260.341 167.032 260.341C165.838 260.341 164.645 260.192 163.451 260.042C158.677 259.147 154.947 256.611 152.262 252.583L100.044 173.66C92.1372 176.196 83.7824 177.39 75.2784 177.39H34.9965V242.736C34.9965 247.659 33.3554 251.837 29.9239 255.268C26.4925 258.7 22.4643 260.49 17.541 260.49C12.6176 260.49 8.58942 258.7 5.15799 255.268C1.72657 251.837 0.0854492 247.659 0.0854492 242.736ZM75.2784 35.5078H50.2141L111.681 127.858C123.169 117.265 128.839 104.286 128.689 88.7695C128.689 74.1486 123.468 61.6165 113.024 51.173C102.73 40.7295 90.0485 35.5078 75.2784 35.5078ZM34.9965 75.939V141.882H78.8591L34.9965 75.939Z" fill="#272727"/>
</svg>
