<svg width="872" height="86" viewBox="0 0 872 86" fill="none" xmlns="http://www.w3.org/2000/svg">
<rect x="76.7402" y="5.29419" width="76.7405" height="76.7405" transform="rotate(90 76.7402 5.29419)" fill="#F0F0F0"/>
<path d="M644.354 38.8484L558.352 38.8484C558.352 17.3978 575.741 0.00863429 597.191 0.00863617L605.514 0.00863689C626.965 0.00863877 644.354 17.3978 644.354 38.8484Z" fill="#F0F0F0"/>
<rect x="644.354" y="86" width="86.0023" height="40.2269" rx="20.1134" transform="rotate(-180 644.354 86)" fill="#F0F0F0"/>
<path d="M715.791 43.6724C738.444 43.6724 756.807 62.0361 756.807 84.6888L715.791 84.6888L715.791 43.6724Z" fill="#F0F0F0"/>
<path d="M713.146 0.0224609L713.146 1.34558C713.146 23.9984 694.782 42.3621 672.13 42.3621L672.13 0.0224591L713.146 0.0224609Z" fill="#F0F0F0"/>
<path d="M713.146 43.6724C713.146 66.3251 694.782 84.6888 672.13 84.6888L672.13 43.6724L713.146 43.6724Z" fill="#F0F0F0"/>
<path d="M715.791 0.0224609C738.444 0.0224649 756.807 18.3862 756.807 41.0389L715.791 41.0389L715.791 0.0224609Z" fill="#F0F0F0"/>
<path d="M825.619 41.0166C803.697 41.0166 785.925 23.2453 785.925 1.32323L785.925 0.000122415C807.847 0.000124331 825.619 17.7715 825.619 39.6935L825.619 41.0166Z" fill="#F0F0F0"/>
<path d="M869.283 41.0164C847.361 41.0164 829.59 23.245 829.59 1.32299L829.59 -0.000121726L869.283 -0.000118256L869.283 41.0164Z" fill="#F0F0F0"/>
<path d="M826.943 86C803.56 86 784.604 67.0439 784.604 43.6604L826.943 43.6604L826.943 86Z" fill="#F0F0F0"/>
<circle cx="850.759" cy="64.8302" r="21.1698" transform="rotate(-180 850.759 64.8302)" fill="#F0F0F0"/>
<path d="M374.432 43.6724C397.085 43.6724 415.449 62.0361 415.449 84.6888L374.432 84.6888L374.432 43.6724Z" fill="#F0F0F0"/>
<path d="M371.788 0.0227051L371.788 1.34582C371.788 23.9986 353.424 42.3623 330.772 42.3623L330.772 0.0227033L371.788 0.0227051Z" fill="#F0F0F0"/>
<path d="M371.788 43.6724C371.788 66.3251 353.424 84.6888 330.772 84.6888L330.772 43.6724L371.788 43.6724Z" fill="#F0F0F0"/>
<path d="M374.432 0.0227051C397.085 0.022709 415.449 18.3864 415.449 41.0392L374.432 41.0392L374.432 0.0227051Z" fill="#F0F0F0"/>
<path d="M484.257 41.0166C462.335 41.0166 444.564 23.2453 444.564 1.32323L444.564 0.000122415C466.486 0.000124331 484.257 17.7715 484.257 39.6935L484.257 41.0166Z" fill="#F0F0F0"/>
<path d="M527.921 41.0164C505.999 41.0164 488.228 23.245 488.228 1.32299L488.228 -0.000121726L527.921 -0.000118256L527.921 41.0164Z" fill="#F0F0F0"/>
<path d="M485.581 86C462.197 86 443.241 67.0439 443.241 43.6604L485.581 43.6604L485.581 86Z" fill="#F0F0F0"/>
<circle cx="509.396" cy="64.8302" r="21.1698" transform="rotate(-180 509.396 64.8302)" fill="#F0F0F0"/>
<path d="M190.527 38.8484L104.525 38.8484C104.525 17.3978 121.914 0.00863429 143.364 0.00863617L151.687 0.00863689C173.138 0.00863877 190.527 17.3978 190.527 38.8484Z" fill="#F0F0F0"/>
<rect x="190.527" y="86" width="86.0023" height="40.2269" rx="20.1134" transform="rotate(-180 190.527 86)" fill="#F0F0F0"/>
<path d="M261.967 43.6724C284.62 43.6724 302.984 62.0361 302.984 84.6888L261.967 84.6888L261.967 43.6724Z" fill="#F0F0F0"/>
<path d="M259.323 0.0222168L259.323 1.34533C259.323 23.9981 240.96 42.3618 218.307 42.3618L218.307 0.022215L259.323 0.0222168Z" fill="#F0F0F0"/>
<path d="M259.323 43.6724C259.323 66.3251 240.96 84.6888 218.307 84.6888L218.307 43.6724L259.323 43.6724Z" fill="#F0F0F0"/>
<path d="M261.967 0.0222168C284.62 0.0222208 302.984 18.3859 302.984 41.0387L261.967 41.0387L261.967 0.0222168Z" fill="#F0F0F0"/>
</svg>
