<svg width="248" height="86" viewBox="0 0 248 86" fill="none" xmlns="http://www.w3.org/2000/svg">
<path d="M20.354 38.8484L-65.6483 38.8484C-65.6483 17.3978 -48.2592 0.00863429 -26.8086 0.00863617L-18.4857 0.00863689C2.96484 0.00863877 20.354 17.3978 20.354 38.8484Z" fill="#F0F0F0"/>
<rect x="20.354" y="86" width="86.0023" height="40.2269" rx="20.1134" transform="rotate(-180 20.354 86)" fill="#F0F0F0"/>
<path d="M91.791 43.6724C114.444 43.6724 132.807 62.0361 132.807 84.6888L91.791 84.6888L91.791 43.6724Z" fill="#F0F0F0"/>
<path d="M89.146 0.0224609L89.146 1.34558C89.146 23.9984 70.7823 42.3621 48.1295 42.3621L48.1295 0.0224591L89.146 0.0224609Z" fill="#F0F0F0"/>
<path d="M89.146 43.6724C89.146 66.3251 70.7823 84.6888 48.1295 84.6888L48.1295 43.6724L89.146 43.6724Z" fill="#F0F0F0"/>
<path d="M91.791 0.0224609C114.444 0.0224649 132.807 18.3862 132.807 41.0389L91.791 41.0389L91.791 0.0224609Z" fill="#F0F0F0"/>
<path d="M201.619 41.0166C179.697 41.0166 161.925 23.2453 161.925 1.32323L161.925 0.000122415C183.847 0.000124331 201.619 17.7715 201.619 39.6935L201.619 41.0166Z" fill="#F0F0F0"/>
<path d="M245.283 41.0164C223.361 41.0164 205.59 23.245 205.59 1.32299L205.59 -0.000121726L245.283 -0.000118256L245.283 41.0164Z" fill="#F0F0F0"/>
<path d="M202.943 86C179.56 86 160.604 67.0439 160.604 43.6604L202.943 43.6604L202.943 86Z" fill="#F0F0F0"/>
<circle cx="226.759" cy="64.8302" r="21.1698" transform="rotate(-180 226.759 64.8302)" fill="#F0F0F0"/>
</svg>
