<svg width="39" height="221" viewBox="0 0 39 221" fill="none" xmlns="http://www.w3.org/2000/svg">
<path d="M0 11.684H3.89748V7.78968H7.79167V3.88332H11.6979V0H27.3076V3.86685H31.2018V7.77322H35.108V11.6675H39V27.2897H35.1266V31.184H31.2204V35.0903H27.3152V39H11.7067V35.0827H7.79605V31.1928H3.89529V27.293H0V11.684Z" fill="#272727"/>
<path d="M23.4022 100V96.0176H19.5055V100H0V79.7299H3.86163V76.0018H0.00767581V63.9903H3.87259V60.0056H15.5879V63.9633H19.4847V60H39V67.9671H35.1208V71.9743H31.2241V75.9815H27.3241V79.9764H38.9989V95.9894H35.1154V100H23.4044H23.4022ZM19.5132 83.9678H23.377V80.0068H19.5132V83.9678ZM15.6099 79.6995H19.4726V76.0052H15.6099V79.6995Z" fill="#272727"/>
<path d="M11.6851 160V156.102H7.78969V152.207H3.89429V148.312H0V140.504H11.6577V136.598H7.79518V132.703H3.88882V128.796H0.00327801V121H19.4759V132.658H23.3822V128.795H27.2776V124.887H31.184V121.003H39V160H11.684H11.6851ZM31.1829 140.512H19.5142V152.179H23.3965V148.282H27.3116V144.378H31.1829V140.512Z" fill="#272727"/>
<path d="M3.88772 221V217.102H0V201.503H7.77215V197.596H3.89868V193.701H0.010961V189.795H3.87566V185.9H7.78421V182H31.1971V185.877H35.1057V189.772H38.9989V193.678H35.1287V197.585H31.2289V201.48H39V217.09H35.1167V221H3.88881H3.88772Z" fill="#272727"/>
</svg>
