<svg width="199" height="33" viewBox="0 0 199 33" fill="none" xmlns="http://www.w3.org/2000/svg">
<path d="M1.752 11.36V11.376C1.752 11.712 1.48 11.872 1.208 11.872C0.952 11.872 0.68 11.712 0.68 11.376V11.36C0.712 9.568 0.728 7.584 0.728 5.648C0.728 3.92 0.712 2.224 0.68 0.735999V0.719999C0.68 0.367999 0.952 0.191999 1.224 0.191999C1.48 0.191999 1.752 0.367999 1.752 0.688V0.704C1.736 2.256 1.72 4.016 1.72 5.84C1.72 7.664 1.736 9.552 1.752 11.36ZM15.8215 10.784V10.8C15.8215 11.52 15.2615 11.952 14.6695 11.952C14.2855 11.952 13.8695 11.76 13.5975 11.328C12.4615 9.504 9.0055 3.2 8.1415 1.712C8.0295 1.52 7.8855 1.392 7.7735 1.392C7.5495 1.392 7.5495 1.616 7.5495 2.736C7.5495 4.784 7.5815 9.76 7.6295 11.424V11.44C7.6295 11.76 7.3575 11.92 7.0855 11.92C6.8135 11.92 6.5415 11.76 6.5415 11.44V11.424C6.5735 9.952 6.5895 8.272 6.5895 6.64C6.5895 4.752 6.5735 2.928 6.5415 1.504V1.456C6.5415 0.591999 7.0375 0.191999 7.5815 0.191999C8.0295 0.191999 8.4935 0.447999 8.7975 0.943999C9.7895 2.608 13.0855 8.576 14.2695 10.432C14.3655 10.592 14.4935 10.688 14.5895 10.688C14.7975 10.688 14.7975 10.384 14.7975 9.904C14.7975 8.192 14.7495 2.256 14.7015 0.735999V0.719999C14.7015 0.351999 14.9735 0.176 15.2295 0.176C15.5175 0.176 15.7895 0.367999 15.7895 0.719999V0.735999C15.7575 1.648 15.7575 2.816 15.7575 4.064C15.7575 6.448 15.7895 9.12 15.8215 10.784ZM24.5188 11.392V11.408C24.5188 11.744 24.2468 11.92 23.9588 11.92C23.6708 11.92 23.3988 11.744 23.3988 11.408V11.392C23.4308 9.984 23.4628 7.104 23.4628 4.656C23.4628 3.376 23.4468 2.208 23.4308 1.456C23.4308 1.232 23.3988 1.184 22.3268 1.184C21.6388 1.184 20.7428 1.216 19.9748 1.216C19.6228 1.216 19.4468 0.976 19.4468 0.752C19.4468 0.511999 19.6228 0.287999 19.9588 0.287999H19.9748C20.9508 0.304 22.6468 0.32 24.3268 0.32C25.7028 0.32 27.0628 0.304 27.9908 0.287999H28.0068C28.3268 0.287999 28.4868 0.528 28.4868 0.752C28.4868 0.992 28.3268 1.216 28.0228 1.216H28.0068C27.4148 1.2 26.8388 1.184 26.3428 1.184C25.5748 1.184 24.9828 1.2 24.7428 1.216C24.5988 1.216 24.4868 1.248 24.4868 1.456C24.4708 2.224 24.4548 3.264 24.4548 4.4C24.4548 6.896 24.5028 9.856 24.5188 11.392ZM39.1401 11.392C39.1401 11.616 38.9641 11.856 38.5801 11.872C38.3721 11.888 37.4281 11.888 36.4841 11.888C35.5561 11.888 34.6121 11.888 34.4041 11.872C32.9961 11.76 32.3081 11.12 32.2601 10.08C32.2281 9.408 32.2281 8.256 32.2281 6.992C32.2281 5.088 32.2441 2.976 32.2761 1.968C32.3081 0.927999 32.9481 0.304 34.1321 0.24C34.4361 0.223999 35.3321 0.207999 36.2121 0.207999C37.1081 0.207999 37.9721 0.223999 38.2121 0.24C38.5481 0.256 38.7241 0.48 38.7241 0.704C38.7241 0.927999 38.5321 1.152 38.1801 1.152C38.1001 1.152 36.5801 1.136 35.4441 1.136C33.8281 1.136 33.3161 1.136 33.2361 2.112C33.2041 2.496 33.2201 3.84 33.2041 4.784C33.2041 5.088 33.3641 5.088 33.5241 5.088C33.8441 5.104 34.6601 5.104 35.4761 5.104C36.2921 5.104 37.1241 5.104 37.4441 5.088C37.9401 5.072 37.9881 5.44 37.9881 5.552C37.9881 5.792 37.7961 6.048 37.4441 6.048H37.4121C36.9161 6.016 36.0201 6.016 35.1881 6.016C33.2041 6.016 33.1881 6.016 33.1881 6.336C33.1881 8.8 33.1881 9.552 33.2361 9.936C33.3001 10.544 33.6361 10.896 34.4841 10.96C34.7561 10.976 35.6361 10.976 36.5161 10.976C37.4121 10.976 38.3081 10.976 38.5961 10.96H38.6441C38.9641 10.96 39.1401 11.168 39.1401 11.392ZM47.3889 6.016C47.2929 6.016 47.2449 6.048 47.2449 6.096C47.2449 6.16 47.3089 6.24 47.4209 6.336C48.3009 7.152 48.9889 8.544 49.6129 9.568C50.0609 10.288 50.5249 10.768 51.2449 10.848C51.5649 10.88 51.7409 11.136 51.7409 11.392C51.7409 11.664 51.5329 11.92 51.0849 11.92C50.7329 11.92 49.6289 11.664 48.7649 10.096C48.1089 8.928 46.7649 6.256 45.6449 6.224C45.4209 6.224 44.7329 6.192 44.3169 6.192C43.8689 6.192 43.8049 6.288 43.8049 6.496C43.8049 7.728 43.8529 10.8 43.8529 11.392C43.8529 11.712 43.5809 11.872 43.3249 11.872C43.0689 11.872 42.8289 11.728 42.8289 11.408C42.8609 8.352 42.8449 3.632 42.8929 1.904C42.9409 0.16 44.5409 0.16 45.7729 0.16C46.1249 0.16 46.4769 0.176 46.7169 0.191999C49.0529 0.351999 50.0609 1.712 50.0609 3.072C50.0609 4.448 49.0369 5.824 47.3889 6.016ZM49.0529 3.088C49.0529 2.08 48.3009 1.104 46.6049 1.008C46.3809 0.992 46.0289 0.976 45.6609 0.976C44.4769 0.976 43.9169 1.2 43.8529 2.112C43.8209 2.512 43.8369 4.144 43.8209 5.104C43.8209 5.344 44.0609 5.376 45.3729 5.376C45.8849 5.376 46.4129 5.36 46.7169 5.344C48.2049 5.232 49.0529 4.144 49.0529 3.088ZM63.5316 11.376C63.5316 11.68 63.2756 11.888 63.0036 11.888C62.8116 11.888 62.6036 11.776 62.5076 11.52C62.3156 11.056 61.7076 9.408 61.2116 7.936C61.1636 7.808 61.1156 7.744 60.9556 7.744C60.6996 7.728 59.9316 7.728 59.1156 7.728C57.9796 7.728 56.7156 7.728 56.3796 7.744C56.2356 7.744 56.1716 7.84 56.1396 7.936C55.7236 9.216 55.2276 10.72 54.9876 11.504C54.9076 11.776 54.6836 11.888 54.4756 11.888C54.2356 11.888 53.9796 11.728 53.9796 11.456C53.9796 11.408 53.9956 11.344 54.0116 11.296C54.9076 8.4 56.7796 3.264 57.5476 1.056C57.7556 0.48 58.2036 0.207999 58.6356 0.207999C59.0996 0.207999 59.5636 0.495999 59.7716 1.072C60.8276 4.016 62.9396 9.856 63.4836 11.136C63.5156 11.216 63.5316 11.296 63.5316 11.376ZM60.7956 6.768C60.7956 6.72 60.7796 6.672 60.7636 6.624C60.2676 5.12 59.2436 2.368 58.9876 1.568C58.9076 1.328 58.7956 1.216 58.6676 1.216C58.5396 1.216 58.4116 1.344 58.3156 1.6C57.9796 2.512 56.5556 6.624 56.5556 6.752C56.5556 6.816 56.6036 6.848 56.7316 6.848C57.0516 6.848 57.9156 6.864 58.7476 6.864C59.5956 6.864 60.4116 6.848 60.6516 6.848C60.7636 6.848 60.7956 6.816 60.7956 6.768ZM76.7595 9.664C76.7595 10.256 74.9035 12 72.0875 12C68.3755 12 66.3595 9.136 66.3595 6.144C66.3595 3.168 68.3435 0.112 72.1835 0.112C74.6315 0.112 76.2155 1.552 76.2155 2.128C76.2155 2.432 75.9755 2.656 75.6875 2.656C75.5435 2.656 75.3675 2.592 75.2395 2.416C74.4875 1.472 73.3035 1.024 72.1035 1.024C68.9515 1.024 67.3995 3.808 67.3995 6.08C67.3995 8.448 68.9355 10.976 72.0555 10.976C73.4955 10.976 74.9195 10.4 75.7035 9.344C75.8315 9.152 76.0075 9.088 76.1675 9.088C76.4715 9.088 76.7595 9.344 76.7595 9.664ZM84.5344 11.392V11.408C84.5344 11.744 84.2624 11.92 83.9744 11.92C83.6864 11.92 83.4144 11.744 83.4144 11.408V11.392C83.4464 9.984 83.4784 7.104 83.4784 4.656C83.4784 3.376 83.4624 2.208 83.4464 1.456C83.4464 1.232 83.4144 1.184 82.3424 1.184C81.6544 1.184 80.7584 1.216 79.9904 1.216C79.6384 1.216 79.4624 0.976 79.4624 0.752C79.4624 0.511999 79.6384 0.287999 79.9744 0.287999H79.9904C80.9664 0.304 82.6624 0.32 84.3424 0.32C85.7184 0.32 87.0784 0.304 88.0064 0.287999H88.0224C88.3424 0.287999 88.5024 0.528 88.5024 0.752C88.5024 0.992 88.3424 1.216 88.0384 1.216H88.0224C87.4304 1.2 86.8544 1.184 86.3584 1.184C85.5904 1.184 84.9984 1.2 84.7584 1.216C84.6144 1.216 84.5024 1.248 84.5024 1.456C84.4864 2.224 84.4704 3.264 84.4704 4.4C84.4704 6.896 84.5184 9.856 84.5344 11.392ZM93.3958 11.36V11.376C93.3958 11.712 93.1238 11.872 92.8518 11.872C92.5958 11.872 92.3238 11.712 92.3238 11.376V11.36C92.3558 9.568 92.3718 7.584 92.3718 5.648C92.3718 3.92 92.3558 2.224 92.3238 0.735999V0.719999C92.3238 0.367999 92.5958 0.191999 92.8678 0.191999C93.1238 0.191999 93.3958 0.367999 93.3958 0.688V0.704C93.3798 2.256 93.3638 4.016 93.3638 5.84C93.3638 7.664 93.3798 9.552 93.3958 11.36ZM103.545 12.016C100.217 12.016 97.7373 9.664 97.7373 6.064C97.7373 2.592 100.217 0.079999 103.545 0.079999C106.873 0.079999 109.353 2.592 109.353 6.064C109.353 9.664 106.873 12.016 103.545 12.016ZM103.545 11.104C106.185 11.104 108.313 9.104 108.313 6.064C108.313 3.008 106.185 0.976 103.545 0.976C100.905 0.976 98.7773 3.008 98.7773 6.064C98.7773 9.104 100.905 11.104 103.545 11.104ZM122.8 10.784V10.8C122.8 11.52 122.24 11.952 121.648 11.952C121.264 11.952 120.848 11.76 120.576 11.328C119.44 9.504 115.984 3.2 115.12 1.712C115.008 1.52 114.864 1.392 114.752 1.392C114.528 1.392 114.528 1.616 114.528 2.736C114.528 4.784 114.56 9.76 114.608 11.424V11.44C114.608 11.76 114.336 11.92 114.064 11.92C113.792 11.92 113.52 11.76 113.52 11.44V11.424C113.552 9.952 113.568 8.272 113.568 6.64C113.568 4.752 113.552 2.928 113.52 1.504V1.456C113.52 0.591999 114.016 0.191999 114.56 0.191999C115.008 0.191999 115.472 0.447999 115.776 0.943999C116.768 2.608 120.064 8.576 121.248 10.432C121.344 10.592 121.472 10.688 121.568 10.688C121.776 10.688 121.776 10.384 121.776 9.904C121.776 8.192 121.728 2.256 121.68 0.735999V0.719999C121.68 0.351999 121.952 0.176 122.208 0.176C122.496 0.176 122.768 0.367999 122.768 0.719999V0.735999C122.736 1.648 122.736 2.816 122.736 4.064C122.736 6.448 122.768 9.12 122.8 10.784ZM143.846 6.032C143.846 11.68 139.446 11.952 137.318 11.952C135.59 11.952 134.006 11.744 133.894 10.032C133.846 9.248 133.814 7.952 133.814 6.608C133.814 4.832 133.862 2.976 133.91 2.096C134.038 0.16 135.59 0.16 137.27 0.16C137.75 0.16 138.214 0.176 138.454 0.191999C141.99 0.415999 143.846 2.864 143.846 6.032ZM142.79 6.032C142.79 3.2 141.126 1.184 138.23 1.104C138.118 1.104 137.862 1.088 137.574 1.088C136.006 1.088 135.014 1.104 134.934 2.224C134.886 2.864 134.854 4.56 134.854 6.24C134.854 7.696 134.87 9.12 134.934 9.792C135.014 10.56 135.302 11.024 137.03 11.024C139.254 11.024 142.79 10.912 142.79 6.032ZM154.828 11.392C154.828 11.616 154.652 11.856 154.268 11.872C154.06 11.888 153.116 11.888 152.172 11.888C151.244 11.888 150.3 11.888 150.092 11.872C148.684 11.76 147.996 11.12 147.948 10.08C147.916 9.408 147.916 8.256 147.916 6.992C147.916 5.088 147.932 2.976 147.964 1.968C147.996 0.927999 148.636 0.304 149.82 0.24C150.124 0.223999 151.02 0.207999 151.9 0.207999C152.796 0.207999 153.66 0.223999 153.9 0.24C154.236 0.256 154.412 0.48 154.412 0.704C154.412 0.927999 154.22 1.152 153.868 1.152C153.788 1.152 152.268 1.136 151.132 1.136C149.516 1.136 149.004 1.136 148.924 2.112C148.892 2.496 148.908 3.84 148.892 4.784C148.892 5.088 149.052 5.088 149.212 5.088C149.532 5.104 150.348 5.104 151.164 5.104C151.98 5.104 152.812 5.104 153.132 5.088C153.628 5.072 153.676 5.44 153.676 5.552C153.676 5.792 153.484 6.048 153.132 6.048H153.1C152.604 6.016 151.708 6.016 150.876 6.016C148.892 6.016 148.876 6.016 148.876 6.336C148.876 8.8 148.876 9.552 148.924 9.936C148.988 10.544 149.324 10.896 150.172 10.96C150.444 10.976 151.324 10.976 152.204 10.976C153.1 10.976 153.996 10.976 154.284 10.96H154.332C154.652 10.96 154.828 11.168 154.828 11.392ZM164.836 8.88C164.836 10.384 163.604 12.016 161.156 12.016C158.564 12.016 157.46 10.368 157.46 9.92C157.46 9.632 157.716 9.424 157.988 9.424C158.148 9.424 158.308 9.488 158.42 9.68C158.884 10.528 159.876 11.072 161.172 11.072C162.708 11.072 163.796 10.096 163.796 8.896C163.796 8.128 163.332 7.296 162.292 6.704C161.476 6.24 160.596 5.808 159.732 5.376C158.548 4.784 157.972 3.76 157.972 2.768C157.972 1.392 159.06 0.0959997 161.06 0.0959997C163.06 0.0959997 164.244 1.232 164.244 1.744C164.244 2.016 164.02 2.256 163.764 2.256C163.604 2.256 163.444 2.176 163.316 1.984C162.916 1.408 162.196 0.943999 161.044 0.943999C159.732 0.943999 158.948 1.792 158.948 2.736C158.948 3.392 159.348 4.096 160.212 4.56C160.932 4.944 162.068 5.456 162.756 5.84C164.212 6.64 164.836 7.792 164.836 8.88ZM169.815 11.36V11.376C169.815 11.712 169.543 11.872 169.271 11.872C169.015 11.872 168.743 11.712 168.743 11.376V11.36C168.775 9.568 168.791 7.584 168.791 5.648C168.791 3.92 168.775 2.224 168.743 0.735999V0.719999C168.743 0.367999 169.015 0.191999 169.287 0.191999C169.543 0.191999 169.815 0.367999 169.815 0.688V0.704C169.799 2.256 169.783 4.016 169.783 5.84C169.783 7.664 169.799 9.552 169.815 11.36ZM180.508 7.024H180.492C180.172 7.024 179.996 6.768 179.996 6.512C179.996 6.016 180.412 6.016 181.068 6.016C181.868 6.016 182.796 6.032 183.42 6.048C184.428 6.064 184.908 6.624 184.908 7.504C184.908 9.184 183.324 12.016 179.788 12.016C176.764 12.016 174.172 9.696 174.172 6.144C174.172 3.152 176.172 0.079999 180.012 0.079999C182.268 0.079999 183.996 1.44 183.996 2.112C183.996 2.416 183.74 2.656 183.468 2.656C183.308 2.656 183.148 2.576 183.02 2.4C182.316 1.44 181.164 1.008 179.98 1.008C176.94 1.008 175.196 3.552 175.196 6.144C175.196 8.752 176.908 10.96 179.82 10.96C182.86 10.96 183.788 8.608 183.788 7.728C183.788 6.976 183.212 6.976 182.764 6.976C182.188 6.976 181.244 6.992 180.508 7.024ZM198.093 10.784V10.8C198.093 11.52 197.533 11.952 196.941 11.952C196.557 11.952 196.141 11.76 195.869 11.328C194.733 9.504 191.277 3.2 190.413 1.712C190.301 1.52 190.157 1.392 190.045 1.392C189.821 1.392 189.821 1.616 189.821 2.736C189.821 4.784 189.853 9.76 189.901 11.424V11.44C189.901 11.76 189.629 11.92 189.357 11.92C189.085 11.92 188.813 11.76 188.813 11.44V11.424C188.845 9.952 188.861 8.272 188.861 6.64C188.861 4.752 188.845 2.928 188.813 1.504V1.456C188.813 0.591999 189.309 0.191999 189.853 0.191999C190.301 0.191999 190.765 0.447999 191.069 0.943999C192.061 2.608 195.357 8.576 196.541 10.432C196.637 10.592 196.765 10.688 196.861 10.688C197.069 10.688 197.069 10.384 197.069 9.904C197.069 8.192 197.021 2.256 196.973 0.735999V0.719999C196.973 0.351999 197.245 0.176 197.501 0.176C197.789 0.176 198.061 0.367999 198.061 0.719999V0.735999C198.029 1.648 198.029 2.816 198.029 4.064C198.029 6.448 198.061 9.12 198.093 10.784ZM18.1649 31.232C18.1649 31.824 17.1409 31.904 16.8209 31.904C15.7809 31.904 14.9809 31.28 14.1009 30.368C14.0369 30.304 13.9729 30.272 13.9089 30.272C13.8769 30.272 13.8129 30.288 13.7649 30.336C13.3489 30.72 11.8449 32.016 9.98887 32.016C8.02087 32.016 6.70887 30.544 6.70887 28.912C6.70887 27.104 8.32488 25.952 9.33288 25.264C9.39687 25.216 9.44488 25.184 9.44488 25.136C9.44488 25.104 9.42887 25.088 9.39687 25.056C8.43688 24.08 8.03688 23.216 8.03688 22.464C8.03688 21.04 9.31687 20.112 10.5169 20.112C11.9249 20.112 12.8529 21.2 12.8529 22.4C12.8529 23.44 12.1169 24.272 10.8689 25.184C10.8049 25.232 10.7729 25.264 10.7729 25.296C10.7729 25.328 10.8049 25.376 10.8689 25.44C11.6369 26.256 13.0129 27.792 13.8289 28.72C13.8769 28.768 13.9089 28.784 13.9249 28.784C14.0049 28.784 15.2689 27.184 15.9249 24.848C15.9889 24.64 16.1649 24.544 16.3409 24.544C16.5969 24.544 16.8689 24.72 16.8689 25.024C16.8689 25.152 16.2769 27.328 14.6449 29.344C14.5969 29.392 14.5649 29.44 14.5649 29.504C14.5649 29.6 15.7809 30.944 16.8049 30.944C17.0449 30.944 17.2689 30.88 17.5089 30.784C17.5729 30.752 17.6369 30.736 17.7009 30.736C17.9729 30.736 18.1649 30.992 18.1649 31.232ZM11.7009 23.28C11.8769 22.992 11.9569 22.672 11.9569 22.368C11.9569 21.456 11.2529 20.912 10.4689 20.912C9.58888 20.912 8.94888 21.6 8.94888 22.48C8.94888 23.456 10.1009 24.656 10.1969 24.656C10.2449 24.656 11.4129 23.792 11.7009 23.28ZM13.2849 29.488C13.2849 29.392 10.1969 25.792 10.0369 25.792C10.0049 25.792 9.95688 25.808 9.90887 25.84C8.72487 26.688 7.63687 27.504 7.63687 28.912C7.63687 30.16 8.69288 31.136 10.1009 31.136C11.5569 31.136 13.2849 29.824 13.2849 29.488ZM33.008 31.04C32.512 29.68 30.736 23.648 30.096 21.712C30.016 21.456 29.888 21.328 29.776 21.328C29.664 21.328 29.568 21.456 29.536 21.728C29.408 23.184 29.088 29.168 29.008 31.44C29.008 31.76 28.736 31.904 28.48 31.904C28.208 31.904 27.952 31.744 27.952 31.456V31.424C28.064 28.56 28.448 23.744 28.576 21.36C28.624 20.624 29.152 20.224 29.712 20.224C30.192 20.224 30.688 20.528 30.896 21.136C31.728 23.584 32.992 28.128 33.728 30.208C33.792 30.384 33.872 30.464 33.968 30.464C34.224 30.464 34.288 30.24 37.12 21.216C37.344 20.512 37.872 20.192 38.384 20.192C38.976 20.192 39.536 20.624 39.552 21.44C39.6 23.568 39.92 29.024 40.064 31.36V31.408C40.064 31.728 39.808 31.888 39.552 31.888C39.28 31.888 39.008 31.728 38.992 31.408C38.816 29.056 38.576 21.712 38.576 21.712C38.56 21.456 38.448 21.312 38.304 21.312C38.192 21.312 38.048 21.424 37.968 21.696C37.296 23.92 35.728 28.912 34.928 31.04C34.752 31.488 34.352 31.744 33.952 31.744C33.568 31.744 33.2 31.52 33.008 31.04ZM51.3495 31.392C51.3495 31.616 51.1735 31.856 50.7895 31.872C50.5815 31.888 49.6375 31.888 48.6935 31.888C47.7655 31.888 46.8215 31.888 46.6135 31.872C45.2055 31.76 44.5175 31.12 44.4695 30.08C44.4375 29.408 44.4375 28.256 44.4375 26.992C44.4375 25.088 44.4535 22.976 44.4855 21.968C44.5175 20.928 45.1575 20.304 46.3415 20.24C46.6455 20.224 47.5415 20.208 48.4215 20.208C49.3175 20.208 50.1815 20.224 50.4215 20.24C50.7575 20.256 50.9335 20.48 50.9335 20.704C50.9335 20.928 50.7415 21.152 50.3895 21.152C50.3095 21.152 48.7895 21.136 47.6535 21.136C46.0375 21.136 45.5255 21.136 45.4455 22.112C45.4135 22.496 45.4295 23.84 45.4135 24.784C45.4135 25.088 45.5735 25.088 45.7335 25.088C46.0535 25.104 46.8695 25.104 47.6855 25.104C48.5015 25.104 49.3335 25.104 49.6535 25.088C50.1495 25.072 50.1975 25.44 50.1975 25.552C50.1975 25.792 50.0055 26.048 49.6535 26.048H49.6215C49.1255 26.016 48.2295 26.016 47.3975 26.016C45.4135 26.016 45.3975 26.016 45.3975 26.336C45.3975 28.8 45.3975 29.552 45.4455 29.936C45.5095 30.544 45.8455 30.896 46.6935 30.96C46.9655 30.976 47.8455 30.976 48.7255 30.976C49.6215 30.976 50.5175 30.976 50.8055 30.96H50.8535C51.1735 30.96 51.3495 31.168 51.3495 31.392ZM64.9583 26.032C64.9583 31.68 60.5583 31.952 58.4303 31.952C56.7023 31.952 55.1183 31.744 55.0063 30.032C54.9583 29.248 54.9263 27.952 54.9263 26.608C54.9263 24.832 54.9743 22.976 55.0223 22.096C55.1503 20.16 56.7023 20.16 58.3823 20.16C58.8623 20.16 59.3263 20.176 59.5663 20.192C63.1023 20.416 64.9583 22.864 64.9583 26.032ZM63.9023 26.032C63.9023 23.2 62.2383 21.184 59.3423 21.104C59.2303 21.104 58.9743 21.088 58.6863 21.088C57.1183 21.088 56.1263 21.104 56.0463 22.224C55.9983 22.864 55.9663 24.56 55.9663 26.24C55.9663 27.696 55.9823 29.12 56.0463 29.792C56.1263 30.56 56.4143 31.024 58.1423 31.024C60.3663 31.024 63.9023 30.912 63.9023 26.032ZM70.1801 31.36V31.376C70.1801 31.712 69.9081 31.872 69.6361 31.872C69.3801 31.872 69.1081 31.712 69.1081 31.376V31.36C69.1401 29.568 69.1561 27.584 69.1561 25.648C69.1561 23.92 69.1401 22.224 69.1081 20.736V20.72C69.1081 20.368 69.3801 20.192 69.6521 20.192C69.9081 20.192 70.1801 20.368 70.1801 20.688V20.704C70.1641 22.256 70.1481 24.016 70.1481 25.84C70.1481 27.664 70.1641 29.552 70.1801 31.36ZM83.4816 31.376C83.4816 31.68 83.2256 31.888 82.9536 31.888C82.7616 31.888 82.5536 31.776 82.4576 31.52C82.2656 31.056 81.6576 29.408 81.1616 27.936C81.1136 27.808 81.0656 27.744 80.9056 27.744C80.6496 27.728 79.8816 27.728 79.0656 27.728C77.9296 27.728 76.6656 27.728 76.3296 27.744C76.1856 27.744 76.1216 27.84 76.0896 27.936C75.6736 29.216 75.1776 30.72 74.9376 31.504C74.8576 31.776 74.6336 31.888 74.4256 31.888C74.1856 31.888 73.9296 31.728 73.9296 31.456C73.9296 31.408 73.9456 31.344 73.9616 31.296C74.8576 28.4 76.7296 23.264 77.4976 21.056C77.7056 20.48 78.1536 20.208 78.5856 20.208C79.0496 20.208 79.5136 20.496 79.7216 21.072C80.7776 24.016 82.8896 29.856 83.4336 31.136C83.4656 31.216 83.4816 31.296 83.4816 31.376ZM80.7456 26.768C80.7456 26.72 80.7296 26.672 80.7136 26.624C80.2176 25.12 79.1936 22.368 78.9376 21.568C78.8576 21.328 78.7456 21.216 78.6176 21.216C78.4896 21.216 78.3616 21.344 78.2656 21.6C77.9296 22.512 76.5056 26.624 76.5056 26.752C76.5056 26.816 76.5536 26.848 76.6816 26.848C77.0016 26.848 77.8656 26.864 78.6976 26.864C79.5456 26.864 80.3616 26.848 80.6016 26.848C80.7136 26.848 80.7456 26.816 80.7456 26.768ZM101.963 31.376C101.963 31.68 101.707 31.888 101.435 31.888C101.243 31.888 101.035 31.776 100.939 31.52C100.747 31.056 100.139 29.408 99.6429 27.936C99.5949 27.808 99.5469 27.744 99.3869 27.744C99.1309 27.728 98.3629 27.728 97.5469 27.728C96.4109 27.728 95.1469 27.728 94.8109 27.744C94.6669 27.744 94.6029 27.84 94.5709 27.936C94.1549 29.216 93.6589 30.72 93.4189 31.504C93.3389 31.776 93.1149 31.888 92.9069 31.888C92.6669 31.888 92.4109 31.728 92.4109 31.456C92.4109 31.408 92.4269 31.344 92.4429 31.296C93.3389 28.4 95.2109 23.264 95.9789 21.056C96.1869 20.48 96.6349 20.208 97.0669 20.208C97.5309 20.208 97.9949 20.496 98.2029 21.072C99.2589 24.016 101.371 29.856 101.915 31.136C101.947 31.216 101.963 31.296 101.963 31.376ZM99.2269 26.768C99.2269 26.72 99.2109 26.672 99.1949 26.624C98.6989 25.12 97.6749 22.368 97.4189 21.568C97.3389 21.328 97.2269 21.216 97.0989 21.216C96.9709 21.216 96.8429 21.344 96.7469 21.6C96.4109 22.512 94.9869 26.624 94.9869 26.752C94.9869 26.816 95.0349 26.848 95.1629 26.848C95.4829 26.848 96.3469 26.864 97.1789 26.864C98.0269 26.864 98.8429 26.848 99.0829 26.848C99.1949 26.848 99.2269 26.816 99.2269 26.768ZM110.223 26.016C110.127 26.016 110.079 26.048 110.079 26.096C110.079 26.16 110.143 26.24 110.255 26.336C111.135 27.152 111.823 28.544 112.447 29.568C112.895 30.288 113.359 30.768 114.079 30.848C114.399 30.88 114.575 31.136 114.575 31.392C114.575 31.664 114.367 31.92 113.919 31.92C113.567 31.92 112.463 31.664 111.599 30.096C110.943 28.928 109.599 26.256 108.479 26.224C108.255 26.224 107.567 26.192 107.151 26.192C106.703 26.192 106.639 26.288 106.639 26.496C106.639 27.728 106.687 30.8 106.687 31.392C106.687 31.712 106.415 31.872 106.159 31.872C105.903 31.872 105.663 31.728 105.663 31.408C105.695 28.352 105.679 23.632 105.727 21.904C105.775 20.16 107.375 20.16 108.607 20.16C108.959 20.16 109.311 20.176 109.551 20.192C111.887 20.352 112.895 21.712 112.895 23.072C112.895 24.448 111.871 25.824 110.223 26.016ZM111.887 23.088C111.887 22.08 111.135 21.104 109.439 21.008C109.215 20.992 108.863 20.976 108.495 20.976C107.311 20.976 106.751 21.2 106.687 22.112C106.655 22.512 106.671 24.144 106.655 25.104C106.655 25.344 106.895 25.376 108.207 25.376C108.719 25.376 109.247 25.36 109.551 25.344C111.039 25.232 111.887 24.144 111.887 23.088ZM121.466 31.392V31.408C121.466 31.744 121.194 31.92 120.906 31.92C120.618 31.92 120.346 31.744 120.346 31.408V31.392C120.378 29.984 120.41 27.104 120.41 24.656C120.41 23.376 120.394 22.208 120.378 21.456C120.378 21.232 120.346 21.184 119.274 21.184C118.586 21.184 117.69 21.216 116.922 21.216C116.57 21.216 116.394 20.976 116.394 20.752C116.394 20.512 116.57 20.288 116.906 20.288H116.922C117.898 20.304 119.594 20.32 121.274 20.32C122.65 20.32 124.01 20.304 124.938 20.288H124.954C125.274 20.288 125.434 20.528 125.434 20.752C125.434 20.992 125.274 21.216 124.97 21.216H124.954C124.362 21.2 123.786 21.184 123.29 21.184C122.522 21.184 121.93 21.2 121.69 21.216C121.546 21.216 121.434 21.248 121.434 21.456C121.418 22.224 121.402 23.264 121.402 24.4C121.402 26.896 121.45 29.856 121.466 31.392Z" fill="#6A6A6A"/>
</svg>
