<svg width="9" height="138" viewBox="0 0 9 138" fill="none" xmlns="http://www.w3.org/2000/svg">
<path d="M0.767578 10V1.16992C0.767578 0.847656 0.943359 0.601562 1.24805 0.507812C1.26562 0.507812 1.27734 0.501953 1.2832 0.496094C1.34766 0.478516 1.41211 0.466797 1.47656 0.466797C1.49414 0.466797 1.51758 0.466797 1.53516 0.472656H3.7207C4.68164 0.472656 5.50195 0.8125 6.18164 1.49219C6.86133 2.17188 7.20117 2.99219 7.20117 3.95312C7.20117 4.48633 7.08398 4.99023 6.85547 5.45898C6.62695 5.92773 6.31641 6.32031 5.91797 6.64258L7.89844 9.61328C7.97461 9.73047 8.01562 9.85938 8.00977 9.99414C8.00977 10.041 8.00391 10.0879 7.99805 10.1406C7.96289 10.3281 7.86328 10.4746 7.70508 10.5742C7.58789 10.6504 7.45898 10.6914 7.32422 10.6914C7.27734 10.6914 7.23047 10.6855 7.18359 10.6797C6.99609 10.6445 6.84961 10.5449 6.74414 10.3867L4.69336 7.28711C4.38281 7.375 4.05469 7.42188 3.7207 7.42188H2.13867V10C2.13867 10.3809 1.83398 10.6855 1.45312 10.6855C1.07227 10.6855 0.767578 10.3809 0.767578 10ZM3.7207 1.84961H2.73633L5.15039 5.48828C5.60156 5.07227 5.82422 4.5625 5.81836 3.95312C5.81836 3.37891 5.61328 2.88672 5.20312 2.4707C4.79883 2.05469 4.30078 1.84961 3.7207 1.84961ZM2.13867 3.44922V6.03906H3.86133L2.13867 3.44922ZM0.503906 35V26.1699C0.503906 25.7715 0.791016 25.4727 1.18945 25.4727H6.58594C6.89062 25.4727 7.10156 25.6133 7.22461 25.9004C7.26562 26 7.28906 26.0996 7.28906 26.1934C7.28906 26.3633 7.21875 26.5156 7.07812 26.6621L2.85352 30.8691H6.58594C6.7793 30.8691 6.9375 30.9395 7.07227 31.0742C7.20703 31.209 7.27148 31.373 7.27148 31.5664C7.27148 31.7598 7.20703 31.9238 7.07227 32.0586C6.94336 32.1934 6.7793 32.2637 6.58594 32.2637H1.86914V34.3027H6.58594C6.7793 34.3027 6.9375 34.373 7.07227 34.5078C7.20703 34.6426 7.27148 34.8066 7.27148 35C7.27148 35.1934 7.20703 35.3574 7.07227 35.4922C6.94336 35.627 6.7793 35.6973 6.58594 35.6973H1.18945C0.791016 35.6973 0.503906 35.3984 0.503906 35ZM1.86914 26.8613V29.9023L4.92188 26.8613H1.86914ZM0.638672 61V52.1699C0.638672 51.8477 0.826172 51.6016 1.13086 51.5078C1.21289 51.4844 1.28906 51.4727 1.35938 51.4727C1.57617 51.4727 1.75195 51.5781 1.89844 51.7832L6.69727 58.7676V52.1699C6.69727 51.7891 6.99609 51.4727 7.37695 51.4727C7.57031 51.4727 7.73438 51.543 7.86328 51.6777C7.99805 51.8125 8.0625 51.9766 8.0625 52.1699V61C8.0625 61.4629 7.80469 61.6973 7.29492 61.6973H1.33008C0.931641 61.6973 0.638672 61.3984 0.638672 61ZM2.01562 54.4023V60.3027H6.07031L2.01562 54.4023ZM0.597656 86V77.1699C0.597656 76.7715 0.896484 76.4727 1.29492 76.4727H3.08203C4.79297 76.4727 6.14648 77.0293 6.94922 77.9609C7.76367 78.8926 8.18555 80.1289 8.18555 81.582C8.18555 83.0352 7.75195 84.2773 6.92578 85.209C6.10547 86.1406 4.76367 86.6973 3.08203 86.6973H1.29492C0.896484 86.6973 0.597656 86.3984 0.597656 86ZM1.99219 77.8496V85.3027H3.08203C4.23047 85.3027 5.14453 84.9746 5.67773 84.5C5.94727 84.2598 6.16992 83.9727 6.33984 83.6387C6.68555 82.9648 6.80273 82.3262 6.80273 81.582C6.80273 80.8027 6.68555 80.1523 6.33984 79.4902C6.16992 79.1562 5.94727 78.875 5.67188 78.6465C5.13281 78.1777 4.23633 77.8496 3.08203 77.8496H1.99219ZM0.503906 112V103.17C0.503906 102.771 0.791016 102.473 1.18945 102.473H6.58594C6.89062 102.473 7.10156 102.613 7.22461 102.9C7.26562 103 7.28906 103.1 7.28906 103.193C7.28906 103.363 7.21875 103.516 7.07812 103.662L2.85352 107.869H6.58594C6.7793 107.869 6.9375 107.939 7.07227 108.074C7.20703 108.209 7.27148 108.373 7.27148 108.566C7.27148 108.76 7.20703 108.924 7.07227 109.059C6.94336 109.193 6.7793 109.264 6.58594 109.264H1.86914V111.303H6.58594C6.7793 111.303 6.9375 111.373 7.07227 111.508C7.20703 111.643 7.27148 111.807 7.27148 112C7.27148 112.193 7.20703 112.357 7.07227 112.492C6.94336 112.627 6.7793 112.697 6.58594 112.697H1.18945C0.791016 112.697 0.503906 112.398 0.503906 112ZM1.86914 103.861V106.902L4.92188 103.861H1.86914ZM0.767578 137V128.17C0.767578 127.848 0.943359 127.602 1.24805 127.508C1.26562 127.508 1.27734 127.502 1.2832 127.496C1.34766 127.479 1.41211 127.467 1.47656 127.467C1.49414 127.467 1.51758 127.467 1.53516 127.473H3.7207C4.68164 127.473 5.50195 127.812 6.18164 128.492C6.86133 129.172 7.20117 129.992 7.20117 130.953C7.20117 131.486 7.08398 131.99 6.85547 132.459C6.62695 132.928 6.31641 133.32 5.91797 133.643L7.89844 136.613C7.97461 136.73 8.01562 136.859 8.00977 136.994C8.00977 137.041 8.00391 137.088 7.99805 137.141C7.96289 137.328 7.86328 137.475 7.70508 137.574C7.58789 137.65 7.45898 137.691 7.32422 137.691C7.27734 137.691 7.23047 137.686 7.18359 137.68C6.99609 137.645 6.84961 137.545 6.74414 137.387L4.69336 134.287C4.38281 134.387 4.05469 134.434 3.7207 134.434H2.13867V137C2.13867 137.193 2.07422 137.357 1.93945 137.492C1.80469 137.627 1.64648 137.697 1.45312 137.697C1.25977 137.697 1.10156 137.627 0.966797 137.492C0.832031 137.357 0.767578 137.193 0.767578 137ZM3.7207 128.861H2.73633L5.15039 132.488C5.60156 132.072 5.82422 131.562 5.81836 130.953C5.81836 130.379 5.61328 129.887 5.20312 129.477C4.79883 129.066 4.30078 128.861 3.7207 128.861ZM2.13867 130.449V133.039H3.86133L2.13867 130.449Z" fill="#6A6A6A"/>
</svg>
