<svg width="40" height="382" viewBox="0 0 40 382" fill="none" xmlns="http://www.w3.org/2000/svg">
<rect x="2.46289" y="345.526" width="35.693" height="35.693" fill="#F0F0F0"/>
<path d="M18.0693 81.522L18.0693 121.523C8.0924 121.523 0.0044866 113.435 0.00448703 103.458L0.0044872 99.5868C0.00448764 89.6099 8.0924 81.522 18.0693 81.522Z" fill="#F0F0F0"/>
<rect x="40" y="81.522" width="40.0007" height="18.71" rx="9.35501" transform="rotate(90 40 81.522)" fill="#F0F0F0"/>
<path d="M20.313 48.2957C20.313 37.7596 28.8542 29.2184 39.3903 29.2184L39.3903 48.2957L20.313 48.2957Z" fill="#F0F0F0"/>
<path d="M0.0107422 49.5259H0.626139C11.1622 49.5259 19.7034 58.0671 19.7034 68.6032H0.0107422V49.5259Z" fill="#F0F0F0"/>
<path d="M20.313 49.5259C30.8491 49.5259 39.3903 58.0671 39.3903 68.6032H20.313V49.5259Z" fill="#F0F0F0"/>
<path d="M0.0107422 48.2957C0.0107436 37.7596 8.55193 29.2184 19.088 29.2184L19.088 48.2957L0.0107422 48.2957Z" fill="#F0F0F0"/>
<path d="M19.0776 -2.78638C19.0776 7.40984 10.812 15.6755 0.615758 15.6755L0.000363497 15.6755C0.000363942 5.47928 8.26603 -2.78638 18.4622 -2.78638L19.0776 -2.78638Z" fill="#F0F0F0"/>
<path d="M40 -3.40234C40 7.47362 31.1833 16.2903 20.3073 16.2903L20.3073 -3.40234L40 -3.40234Z" fill="#F0F0F0"/>
<path d="M20.313 207.066C20.313 196.53 28.8542 187.989 39.3903 187.989L39.3903 207.066L20.313 207.066Z" fill="#F0F0F0"/>
<path d="M0.0107422 208.296H0.626139C11.1622 208.296 19.7034 216.837 19.7034 227.373H0.0107422V208.296Z" fill="#F0F0F0"/>
<path d="M20.313 208.296C30.8491 208.296 39.3903 216.837 39.3903 227.373H20.313V208.296Z" fill="#F0F0F0"/>
<path d="M0.0107422 207.066C0.0107436 196.53 8.55193 187.989 19.088 187.989L19.088 207.066L0.0107422 207.066Z" fill="#F0F0F0"/>
<path d="M19.0776 155.985C19.0776 166.181 10.812 174.447 0.615758 174.447L0.000363497 174.447C0.000363942 164.251 8.26603 155.985 18.4622 155.985L19.0776 155.985Z" fill="#F0F0F0"/>
<path d="M19.0776 135.676C19.0776 145.872 10.812 154.138 0.615758 154.138L0.000363497 154.138L0.000364304 135.676L19.0776 135.676Z" fill="#F0F0F0"/>
<path d="M40 155.369C40 166.245 31.1833 175.062 20.3073 175.062L20.3073 155.369L40 155.369Z" fill="#F0F0F0"/>
<circle cx="30.1537" cy="144.292" r="9.84634" transform="rotate(90 30.1537 144.292)" fill="#F0F0F0"/>
<path d="M18.0693 292.603L18.0693 332.604C8.0924 332.604 0.0044866 324.516 0.00448703 314.539L0.0044872 310.668C0.00448764 300.691 8.0924 292.603 18.0693 292.603Z" fill="#F0F0F0"/>
<rect x="40" y="292.603" width="40.0007" height="18.71" rx="9.35501" transform="rotate(90 40 292.603)" fill="#F0F0F0"/>
<path d="M20.313 259.375C20.313 248.838 28.8542 240.297 39.3903 240.297L39.3903 259.375L20.313 259.375Z" fill="#F0F0F0"/>
<path d="M0.0107422 260.605H0.626139C11.1622 260.605 19.7034 269.146 19.7034 279.682H0.0107422V260.605Z" fill="#F0F0F0"/>
<path d="M20.313 260.605C30.8491 260.605 39.3903 269.146 39.3903 279.682H20.313V260.605Z" fill="#F0F0F0"/>
<path d="M0.0107422 259.375C0.0107436 248.838 8.55193 240.297 19.088 240.297L19.088 259.375L0.0107422 259.375Z" fill="#F0F0F0"/>
</svg>
