<svg width="354" height="52" viewBox="0 0 354 52" fill="none" xmlns="http://www.w3.org/2000/svg">
<rect x="42.688" y="3.87769" width="44.9804" height="42.6881" rx="12" transform="rotate(90 42.688 3.87769)" fill="#F0F0F0"/>
<path d="M358.434 23.5405L310.593 23.5405C310.593 10.9676 320.786 0.775149 333.359 0.77515L335.668 0.77515C348.241 0.775151 358.434 10.9676 358.434 23.5405Z" fill="#F0F0F0"/>
<rect x="358.434" y="51.1846" width="47.8402" height="23.5784" rx="11.7892" transform="rotate(-180 358.434 51.1846)" fill="#F0F0F0"/>
<path d="M208.29 26.3682C220.891 26.3682 231.106 36.5833 231.106 49.1842L231.106 50.4094L208.29 50.4094L208.29 26.3682Z" fill="#F0F0F0"/>
<path d="M206.818 0.775635L206.818 2.77632C206.818 15.3773 196.603 25.5924 184.002 25.5924L184.002 0.775634L206.818 0.775635Z" fill="#F0F0F0"/>
<path d="M206.818 26.3682L206.818 27.5933C206.818 40.1943 196.603 50.4094 184.002 50.4094L184.002 26.3682L206.818 26.3682Z" fill="#F0F0F0"/>
<path d="M208.29 0.775635L231.106 0.775639L231.106 24.8169L208.29 24.8169L208.29 0.775635Z" fill="#F0F0F0"/>
<path d="M269.374 24.8169C257.18 24.8169 247.294 14.9313 247.294 2.73682L247.294 0.775658C259.488 0.775659 269.374 10.6612 269.374 22.8557L269.374 24.8169Z" fill="#F0F0F0"/>
<path d="M293.663 24.8169C281.469 24.8169 271.583 14.9313 271.583 2.73682L271.583 0.775658L293.663 0.77566L293.663 24.8169Z" fill="#F0F0F0"/>
<path d="M270.111 51.1846C257.103 51.1846 246.559 40.64 246.559 27.6325L246.559 26.3678L270.111 26.3678L270.111 51.1846Z" fill="#F0F0F0"/>
<ellipse cx="283.359" cy="38.7762" rx="11.776" ry="12.4084" transform="rotate(-180 283.359 38.7762)" fill="#F0F0F0"/>
<path d="M105.986 23.5405L58.1457 23.5405C58.1457 10.9676 68.3381 0.775149 80.9111 0.77515L83.2205 0.77515C95.7934 0.775151 105.986 10.9676 105.986 23.5405Z" fill="#F0F0F0"/>
<rect x="105.986" y="51.1846" width="47.8402" height="23.5784" rx="11.7892" transform="rotate(-180 105.986 51.1846)" fill="#F0F0F0"/>
<path d="M145.73 26.3682C158.331 26.3682 168.546 36.5833 168.546 49.1842L168.546 50.4094L145.73 50.4094L145.73 26.3682Z" fill="#F0F0F0"/>
<path d="M144.258 0.775635L144.258 2.77632C144.258 15.3773 134.043 25.5924 121.442 25.5924L121.442 0.775634L144.258 0.775635Z" fill="#F0F0F0"/>
<path d="M144.258 26.3682L144.258 27.5933C144.258 40.1943 134.043 50.4094 121.442 50.4094L121.442 26.3682L144.258 26.3682Z" fill="#F0F0F0"/>
<path d="M145.73 0.775635C158.331 0.775637 168.546 10.9907 168.546 23.5917L168.546 24.8169L145.73 24.8169L145.73 0.775635Z" fill="#F0F0F0"/>
</svg>
