<svg width="179" height="60" viewBox="0 0 179 60" fill="none" xmlns="http://www.w3.org/2000/svg">
<path d="M2.22 59V51.5L0.504 52.568L0.12 51.98L2.388 50.576H2.916V59H2.22ZM6.90975 59.132C6.48575 59.132 6.11775 59.04 5.80575 58.856C5.49375 58.664 5.22175 58.416 4.98975 58.112L5.51775 57.692C5.68575 57.924 5.87775 58.112 6.09375 58.256C6.31775 58.4 6.58975 58.472 6.90975 58.472C7.32575 58.472 7.66575 58.36 7.92975 58.136C8.20175 57.904 8.40975 57.596 8.55375 57.212C8.69775 56.82 8.79375 56.376 8.84175 55.88C8.89775 55.384 8.92175 54.868 8.91375 54.332C8.76175 54.676 8.52975 54.944 8.21775 55.136C7.90575 55.32 7.55375 55.412 7.16175 55.412C6.75375 55.412 6.38175 55.316 6.04575 55.124C5.71775 54.932 5.45375 54.656 5.25375 54.296C5.05375 53.936 4.95375 53.5 4.95375 52.988C4.95375 52.492 5.04575 52.056 5.22975 51.68C5.42175 51.296 5.68575 50.996 6.02175 50.78C6.36575 50.564 6.75775 50.456 7.19775 50.456C7.68575 50.456 8.11375 50.588 8.48175 50.852C8.85775 51.116 9.14575 51.56 9.34575 52.184C9.55375 52.808 9.64175 53.66 9.60975 54.74C9.57775 56.26 9.33375 57.372 8.87775 58.076C8.42175 58.78 7.76575 59.132 6.90975 59.132ZM7.16175 54.752C7.48175 54.752 7.77375 54.668 8.03775 54.5C8.30175 54.324 8.50175 54.088 8.63775 53.792C8.78175 53.496 8.82575 53.168 8.76975 52.808C8.63375 51.704 8.11775 51.152 7.22175 51.152C6.88575 51.152 6.60175 51.24 6.36975 51.416C6.13775 51.584 5.96175 51.808 5.84175 52.088C5.72175 52.36 5.66175 52.66 5.66175 52.988C5.66175 53.508 5.79775 53.932 6.06975 54.26C6.34975 54.588 6.71375 54.752 7.16175 54.752ZM14.0331 59V56.888H10.5171V56.336L14.0811 50.552H14.7051V56.228H15.9771V56.888H14.7051V59H14.0331ZM11.3211 56.228H14.0331V51.8L11.3211 56.228ZM17.047 56.312V55.592H20.431V56.312H17.047ZM24.2935 59.132C23.4455 59.132 22.8415 58.784 22.4815 58.088C22.1215 57.392 21.9415 56.292 21.9415 54.788C21.9415 53.292 22.1215 52.196 22.4815 51.5C22.8415 50.804 23.4455 50.456 24.2935 50.456C25.1495 50.456 25.7535 50.804 26.1055 51.5C26.4575 52.196 26.6335 53.292 26.6335 54.788C26.6335 56.292 26.4575 57.392 26.1055 58.088C25.7535 58.784 25.1495 59.132 24.2935 59.132ZM24.2935 58.448C24.6695 58.448 24.9775 58.336 25.2175 58.112C25.4655 57.88 25.6455 57.496 25.7575 56.96C25.8775 56.424 25.9375 55.7 25.9375 54.788C25.9375 53.884 25.8775 53.168 25.7575 52.64C25.6455 52.104 25.4655 51.724 25.2175 51.5C24.9775 51.268 24.6695 51.152 24.2935 51.152C23.9175 51.152 23.6055 51.268 23.3575 51.5C23.1175 51.724 22.9375 52.104 22.8175 52.64C22.7055 53.168 22.6495 53.884 22.6495 54.788C22.6495 55.7 22.7055 56.424 22.8175 56.96C22.9375 57.496 23.1175 57.88 23.3575 58.112C23.6055 58.336 23.9175 58.448 24.2935 58.448ZM30.3404 59.132C29.4924 59.132 28.8884 58.784 28.5284 58.088C28.1684 57.392 27.9884 56.292 27.9884 54.788C27.9884 53.292 28.1684 52.196 28.5284 51.5C28.8884 50.804 29.4924 50.456 30.3404 50.456C31.1964 50.456 31.8004 50.804 32.1524 51.5C32.5044 52.196 32.6804 53.292 32.6804 54.788C32.6804 56.292 32.5044 57.392 32.1524 58.088C31.8004 58.784 31.1964 59.132 30.3404 59.132ZM30.3404 58.448C30.7164 58.448 31.0244 58.336 31.2644 58.112C31.5124 57.88 31.6924 57.496 31.8044 56.96C31.9244 56.424 31.9844 55.7 31.9844 54.788C31.9844 53.884 31.9244 53.168 31.8044 52.64C31.6924 52.104 31.5124 51.724 31.2644 51.5C31.0244 51.268 30.7164 51.152 30.3404 51.152C29.9644 51.152 29.6524 51.268 29.4044 51.5C29.1644 51.724 28.9844 52.104 28.8644 52.64C28.7524 53.168 28.6964 53.884 28.6964 54.788C28.6964 55.7 28.7524 56.424 28.8644 56.96C28.9844 57.496 29.1644 57.88 29.4044 58.112C29.6524 58.336 29.9644 58.448 30.3404 58.448ZM33.8193 59V58.736C33.8193 58.328 33.9073 57.94 34.0833 57.572C34.2673 57.196 34.5113 56.828 34.8153 56.468C35.1193 56.1 35.4633 55.728 35.8473 55.352C36.1353 55.064 36.4033 54.784 36.6513 54.512C36.9073 54.232 37.1193 53.956 37.2873 53.684C37.4553 53.404 37.5433 53.124 37.5513 52.844C37.5673 52.3 37.4353 51.892 37.1553 51.62C36.8833 51.348 36.4993 51.212 36.0033 51.212C35.5873 51.212 35.2433 51.36 34.9713 51.656C34.6993 51.944 34.5633 52.364 34.5633 52.916H33.8673C33.8673 52.436 33.9553 52.016 34.1313 51.656C34.3153 51.296 34.5673 51.02 34.8873 50.828C35.2153 50.628 35.5873 50.528 36.0033 50.528C36.6913 50.528 37.2433 50.732 37.6593 51.14C38.0753 51.548 38.2713 52.12 38.2473 52.856C38.2393 53.224 38.1433 53.576 37.9593 53.912C37.7753 54.24 37.5393 54.56 37.2513 54.872C36.9713 55.184 36.6673 55.504 36.3393 55.832C36.0593 56.112 35.7913 56.392 35.5353 56.672C35.2793 56.944 35.0633 57.22 34.8873 57.5C34.7113 57.78 34.6033 58.06 34.5633 58.34H38.1633V59H33.8193ZM39.163 59V58.736C39.163 58.328 39.251 57.94 39.427 57.572C39.611 57.196 39.855 56.828 40.159 56.468C40.463 56.1 40.807 55.728 41.191 55.352C41.479 55.064 41.747 54.784 41.995 54.512C42.251 54.232 42.463 53.956 42.631 53.684C42.799 53.404 42.887 53.124 42.895 52.844C42.911 52.3 42.779 51.892 42.499 51.62C42.227 51.348 41.843 51.212 41.347 51.212C40.931 51.212 40.587 51.36 40.315 51.656C40.043 51.944 39.907 52.364 39.907 52.916H39.211C39.211 52.436 39.299 52.016 39.475 51.656C39.659 51.296 39.911 51.02 40.231 50.828C40.559 50.628 40.931 50.528 41.347 50.528C42.035 50.528 42.587 50.732 43.003 51.14C43.419 51.548 43.615 52.12 43.591 52.856C43.583 53.224 43.487 53.576 43.303 53.912C43.119 54.24 42.883 54.56 42.595 54.872C42.315 55.184 42.011 55.504 41.683 55.832C41.403 56.112 41.135 56.392 40.879 56.672C40.623 56.944 40.407 57.22 40.231 57.5C40.055 57.78 39.947 58.06 39.907 58.34H43.507V59H39.163ZM53.0421 59.888V56.3C52.4421 56.98 51.7181 57.6 50.8701 58.16C50.0221 58.712 49.1341 59.164 48.2061 59.516C48.1901 59.476 48.1541 59.408 48.0981 59.312C48.0421 59.224 47.9821 59.136 47.9181 59.048C47.8621 58.96 47.8181 58.904 47.7861 58.88C48.3381 58.704 48.8901 58.476 49.4421 58.196C50.0021 57.908 50.5261 57.592 51.0141 57.248C51.5101 56.896 51.9341 56.54 52.2861 56.18H49.5261V51.992H53.0421V50.984H48.2541V50.312H53.0421V49.016H53.7861V50.312H58.5621V50.984H53.7861V51.992H57.3021V56.18H54.5301C54.8821 56.524 55.2981 56.868 55.7781 57.212C56.2661 57.548 56.7861 57.86 57.3381 58.148C57.8981 58.436 58.4581 58.672 59.0181 58.856C58.9701 58.904 58.9141 58.972 58.8501 59.06C58.7941 59.156 58.7381 59.248 58.6821 59.336C58.6341 59.424 58.6021 59.488 58.5861 59.528C57.6421 59.176 56.7581 58.72 55.9341 58.16C55.1181 57.6 54.4021 56.98 53.7861 56.3V59.888H53.0421ZM50.2821 55.544H53.0421V54.392H50.2821V55.544ZM53.7861 55.544H56.5461V54.392H53.7861V55.544ZM50.2821 53.78H53.0421V52.628H50.2821V53.78ZM53.7861 53.78H56.5461V52.628H53.7861V53.78ZM63.8301 59.876C63.8141 59.772 63.7861 59.64 63.7461 59.48C63.7141 59.32 63.6781 59.2 63.6381 59.12H64.5861C64.7541 59.12 64.8741 59.088 64.9461 59.024C65.0181 58.96 65.0541 58.852 65.0541 58.7V55.736H62.0901V52.196H68.8581V55.736H65.8221V58.892C65.8221 59.548 65.4541 59.876 64.7181 59.876H63.8301ZM62.8581 55.064H68.0901V52.868H62.8581V55.064ZM60.2421 51.092V50.384H65.0421V48.968H65.8221V50.384H70.5741V51.092H60.2421ZM70.2021 59.348C69.8661 59.164 69.5101 58.932 69.1341 58.652C68.7581 58.372 68.3941 58.072 68.0421 57.752C67.6901 57.432 67.3821 57.12 67.1181 56.816L67.6941 56.348C67.9101 56.628 68.1941 56.928 68.5461 57.248C68.8981 57.56 69.2661 57.852 69.6501 58.124C70.0341 58.396 70.3821 58.616 70.6941 58.784C70.6621 58.816 70.6101 58.872 70.5381 58.952C70.4661 59.024 70.3981 59.096 70.3341 59.168C70.2701 59.248 70.2261 59.308 70.2021 59.348ZM60.6141 59.348C60.5901 59.308 60.5461 59.252 60.4821 59.18C60.4181 59.108 60.3501 59.036 60.2781 58.964C60.2141 58.884 60.1621 58.832 60.1221 58.808C60.3621 58.688 60.6221 58.532 60.9021 58.34C61.1821 58.14 61.4621 57.924 61.7421 57.692C62.0301 57.46 62.2901 57.228 62.5221 56.996C62.7621 56.764 62.9581 56.548 63.1101 56.348L63.6981 56.816C63.4421 57.12 63.1341 57.432 62.7741 57.752C62.4221 58.072 62.0581 58.372 61.6821 58.652C61.3061 58.932 60.9501 59.164 60.6141 59.348ZM73.5141 59.42V55.64C73.2901 55.792 73.0581 55.94 72.8181 56.084C72.5861 56.22 72.3501 56.356 72.1101 56.492C72.0941 56.452 72.0581 56.392 72.0021 56.312C71.9461 56.224 71.8861 56.136 71.8221 56.048C71.7661 55.96 71.7221 55.904 71.6901 55.88C72.2821 55.6 72.8661 55.256 73.4421 54.848C74.0181 54.44 74.5621 53.984 75.0741 53.48H72.2661V52.796H74.6181V51.296H72.6381V50.612H74.6181V49.016H75.3501V50.612H76.7661V51.296H75.3501V52.796H75.7341C76.1581 52.332 76.5381 51.844 76.8741 51.332C77.2181 50.82 77.5061 50.296 77.7381 49.76L78.4221 50.048C78.1901 50.536 77.9221 51.012 77.6181 51.476C77.3141 51.932 76.9861 52.372 76.6341 52.796H78.4101V53.48H76.0221C75.5901 53.944 75.1301 54.38 74.6421 54.788H77.4861V59.42H73.5141ZM78.8661 59.9V49.628H82.3821L82.7421 49.904C82.7261 49.944 82.6741 50.052 82.5861 50.228C82.5061 50.396 82.4061 50.604 82.2861 50.852C82.1661 51.1 82.0381 51.36 81.9021 51.632C81.7661 51.896 81.6381 52.148 81.5181 52.388C81.3981 52.628 81.2941 52.832 81.2061 53C81.1261 53.16 81.0781 53.256 81.0621 53.288C81.2941 53.52 81.5381 53.796 81.7941 54.116C82.0501 54.428 82.2661 54.776 82.4421 55.16C82.6181 55.544 82.7061 55.956 82.7061 56.396C82.7061 56.996 82.5541 57.46 82.2501 57.788C81.9541 58.116 81.5341 58.28 80.9901 58.28H80.3421C80.3261 58.168 80.2981 58.036 80.2581 57.884C80.2261 57.732 80.1901 57.612 80.1501 57.524H80.8941C81.2221 57.524 81.4781 57.436 81.6621 57.26C81.8541 57.084 81.9501 56.788 81.9501 56.372C81.9501 55.876 81.8061 55.376 81.5181 54.872C81.2381 54.36 80.8381 53.844 80.3181 53.324C80.3341 53.292 80.3901 53.176 80.4861 52.976C80.5821 52.776 80.6981 52.536 80.8341 52.256C80.9701 51.968 81.1061 51.684 81.2421 51.404C81.3781 51.116 81.4941 50.872 81.5901 50.672C81.6861 50.464 81.7381 50.344 81.7461 50.312H79.5981V59.9H78.8661ZM74.2581 58.772H76.7541V57.38H74.2581V58.772ZM74.2581 56.744H76.7541V55.436H74.2581V56.744ZM90.4461 59.756C90.4381 59.644 90.4141 59.508 90.3741 59.348C90.3341 59.188 90.2981 59.068 90.2661 58.988H91.4901C91.6581 58.988 91.7781 58.956 91.8501 58.892C91.9221 58.828 91.9581 58.72 91.9581 58.568V51.332H89.2941V57.272H84.3981V49.772H89.2941V50.588H94.9101V51.332H92.7381V58.76C92.7381 59.424 92.3661 59.756 91.6221 59.756H90.4461ZM87.1701 56.564H88.5861V53.852H87.1701V56.564ZM85.1061 56.564H86.5101V53.852H85.1061V56.564ZM87.1701 53.144H88.5861V50.48H87.1701V53.144ZM85.1061 53.144H86.5101V50.48H85.1061V53.144ZM96.9981 58.976V50.228H105.83V58.976H96.9981ZM97.7901 58.244H101.03V54.956H97.7901V58.244ZM101.798 58.244H105.038V54.956H101.798V58.244ZM97.7901 54.248H101.03V50.96H97.7901V54.248ZM101.798 54.248H105.038V50.96H101.798V54.248ZM113.006 59.876V53.84H110.27V58.712H109.49V53.096H113.006V51.572H107.99V50.84H113.006V49.028H113.786V50.84H118.826V51.572H113.786V53.096H117.422V57.632C117.422 58.296 117.05 58.628 116.306 58.628H115.154C115.146 58.516 115.122 58.38 115.082 58.22C115.042 58.06 115.002 57.94 114.962 57.86H116.174C116.342 57.86 116.462 57.828 116.534 57.764C116.606 57.7 116.642 57.592 116.642 57.44V53.84H113.786V59.876H113.006ZM125.042 53.984V51.38C124.458 51.908 123.782 52.388 123.014 52.82C122.246 53.244 121.418 53.608 120.53 53.912C120.514 53.872 120.474 53.812 120.41 53.732C120.354 53.644 120.298 53.556 120.242 53.468C120.186 53.38 120.142 53.32 120.11 53.288C120.622 53.144 121.154 52.948 121.706 52.7C122.258 52.452 122.79 52.172 123.302 51.86C123.814 51.54 124.266 51.216 124.658 50.888H120.458V50.228H125.042V48.98H125.798V50.228H130.31V50.888H126.266C126.666 51.208 127.118 51.516 127.622 51.812C128.126 52.108 128.65 52.372 129.194 52.604C129.738 52.836 130.27 53.016 130.79 53.144C130.758 53.168 130.71 53.228 130.646 53.324C130.59 53.412 130.534 53.504 130.478 53.6C130.422 53.688 130.386 53.752 130.37 53.792C129.81 53.608 129.254 53.388 128.702 53.132C128.15 52.876 127.626 52.596 127.13 52.292C126.634 51.98 126.19 51.652 125.798 51.308V53.984H125.042ZM127.334 59.876V56.744C126.99 57.224 126.586 57.696 126.122 58.16C125.666 58.624 125.19 59.024 124.694 59.36C124.67 59.32 124.618 59.264 124.538 59.192C124.466 59.12 124.39 59.048 124.31 58.976C124.238 58.904 124.182 58.856 124.142 58.832C124.406 58.68 124.686 58.484 124.982 58.244C125.278 58.004 125.566 57.736 125.846 57.44C126.134 57.144 126.398 56.844 126.638 56.54C126.886 56.236 127.086 55.948 127.238 55.676H125.606V55.016H127.334V53.54H128.054V55.016H130.49V55.676H128.054V55.712C128.286 56.032 128.582 56.372 128.942 56.732C129.302 57.084 129.674 57.416 130.058 57.728C130.45 58.032 130.806 58.272 131.126 58.448C131.102 58.472 131.054 58.524 130.982 58.604C130.91 58.684 130.838 58.768 130.766 58.856C130.702 58.936 130.662 58.988 130.646 59.012C130.398 58.852 130.118 58.648 129.806 58.4C129.502 58.152 129.194 57.88 128.882 57.584C128.578 57.28 128.302 56.98 128.054 56.684V59.876H127.334ZM122.546 59.876V56.768C122.338 57.056 122.098 57.344 121.826 57.632C121.562 57.92 121.29 58.192 121.01 58.448C120.73 58.696 120.462 58.904 120.206 59.072C120.182 59.032 120.134 58.972 120.062 58.892C119.99 58.812 119.918 58.732 119.846 58.652C119.774 58.572 119.722 58.524 119.69 58.508C119.898 58.388 120.13 58.224 120.386 58.016C120.642 57.8 120.902 57.56 121.166 57.296C121.438 57.024 121.69 56.748 121.922 56.468C122.162 56.188 122.358 55.924 122.51 55.676H120.206V55.016H122.546V53.54H123.278V55.016H125.138V55.676H123.278V55.832C123.438 55.992 123.634 56.168 123.866 56.36C124.098 56.552 124.338 56.74 124.586 56.924C124.842 57.1 125.074 57.252 125.282 57.38C125.258 57.396 125.21 57.444 125.138 57.524C125.074 57.604 125.01 57.684 124.946 57.764C124.89 57.844 124.85 57.896 124.826 57.92C124.618 57.784 124.37 57.6 124.082 57.368C123.794 57.128 123.526 56.888 123.278 56.648V59.876H122.546ZM132.122 59.096L132.002 58.376C132.274 58.36 132.634 58.324 133.082 58.268C133.538 58.212 134.018 58.152 134.522 58.088V56.468H132.41V55.796H134.522V54.416H132.446V49.592H137.294V54.416H135.23V55.796H137.354V56.468H135.23V57.98C135.726 57.916 136.182 57.848 136.598 57.776C137.022 57.704 137.342 57.644 137.558 57.596V58.256C137.31 58.32 137.002 58.388 136.634 58.46C136.274 58.532 135.882 58.6 135.458 58.664C135.042 58.728 134.626 58.792 134.21 58.856C133.794 58.912 133.402 58.96 133.034 59C132.674 59.048 132.37 59.08 132.122 59.096ZM138.314 59.876C138.298 59.764 138.27 59.628 138.23 59.468C138.198 59.316 138.162 59.2 138.122 59.12H139.106C139.274 59.12 139.394 59.088 139.466 59.024C139.538 58.96 139.574 58.852 139.574 58.7V54.104H137.654V53.444H142.61L142.97 53.78C142.842 54.028 142.662 54.316 142.43 54.644C142.206 54.964 141.966 55.28 141.71 55.592C141.462 55.904 141.226 56.176 141.002 56.408C140.978 56.376 140.922 56.332 140.834 56.276C140.754 56.212 140.67 56.152 140.582 56.096C140.502 56.032 140.446 55.992 140.414 55.976C140.566 55.848 140.742 55.672 140.942 55.448C141.142 55.216 141.334 54.976 141.518 54.728C141.702 54.48 141.842 54.272 141.938 54.104H140.33V58.892C140.33 59.548 139.962 59.876 139.226 59.876H138.314ZM140.594 53.336C140.322 52.976 139.986 52.624 139.586 52.28C139.186 51.936 138.802 51.644 138.434 51.404L138.89 50.864C139.05 50.968 139.222 51.084 139.406 51.212C139.59 51.34 139.774 51.484 139.958 51.644C140.134 51.452 140.33 51.232 140.546 50.984C140.762 50.728 140.938 50.5 141.074 50.3H137.906V49.652H141.962L142.298 49.964C142.17 50.148 141.998 50.372 141.782 50.636C141.566 50.892 141.338 51.152 141.098 51.416C140.866 51.672 140.65 51.896 140.45 52.088C140.57 52.2 140.686 52.316 140.798 52.436C140.91 52.556 141.018 52.672 141.122 52.784L140.594 53.336ZM133.13 53.756H134.522V52.304H133.13V53.756ZM135.23 53.756H136.622V52.304H135.23V53.756ZM133.13 51.692H134.522V50.24H133.13V51.692ZM135.23 51.692H136.622V50.24H135.23V51.692ZM145.634 59V51.5L143.918 52.568L143.534 51.98L145.802 50.576H146.33V59H145.634ZM148.848 56.312V55.592H152.232V56.312H148.848ZM155.29 59V51.5L153.574 52.568L153.19 51.98L155.458 50.576H155.986V59H155.29ZM160.316 59.084C159.852 59.084 159.408 58.968 158.984 58.736C158.568 58.496 158.244 58.18 158.012 57.788L158.6 57.392C158.808 57.712 159.056 57.96 159.344 58.136C159.64 58.304 159.964 58.388 160.316 58.388C160.892 58.388 161.336 58.22 161.648 57.884C161.968 57.54 162.128 57.06 162.128 56.444C162.128 55.9 161.988 55.452 161.708 55.1C161.428 54.74 161.036 54.56 160.532 54.56C160.252 54.56 159.984 54.636 159.728 54.788C159.472 54.94 159.3 55.132 159.212 55.364H158.552V50.6H162.536V51.272H159.272V54.404C159.432 54.252 159.624 54.132 159.848 54.044C160.08 53.948 160.312 53.9 160.544 53.9C160.984 53.9 161.376 54.004 161.72 54.212C162.064 54.412 162.332 54.704 162.524 55.088C162.724 55.464 162.824 55.916 162.824 56.444C162.824 57.292 162.592 57.944 162.128 58.4C161.664 58.856 161.06 59.084 160.316 59.084ZM164.117 56.312V55.592H167.501V56.312H164.117ZM170.56 59V51.5L168.844 52.568L168.46 51.98L170.728 50.576H171.256V59H170.56ZM175.562 59.132C174.994 59.132 174.51 58.968 174.11 58.64C173.71 58.312 173.434 57.876 173.282 57.332L173.942 57.104C174.038 57.456 174.218 57.772 174.482 58.052C174.754 58.324 175.11 58.46 175.55 58.46C176.118 58.46 176.558 58.312 176.87 58.016C177.182 57.72 177.338 57.284 177.338 56.708C177.338 56.164 177.158 55.728 176.798 55.4C176.446 55.072 175.994 54.908 175.442 54.908H175.082V54.236H175.442C175.97 54.236 176.382 54.088 176.678 53.792C176.974 53.496 177.122 53.108 177.122 52.628C177.122 52.276 177.046 51.992 176.894 51.776C176.75 51.56 176.558 51.404 176.318 51.308C176.078 51.204 175.822 51.152 175.55 51.152C175.286 51.152 175.054 51.216 174.854 51.344C174.654 51.472 174.486 51.636 174.35 51.836C174.214 52.036 174.106 52.248 174.026 52.472L173.378 52.208C173.578 51.64 173.874 51.208 174.266 50.912C174.666 50.608 175.098 50.456 175.562 50.456C176.234 50.456 176.782 50.648 177.206 51.032C177.63 51.416 177.842 51.944 177.842 52.616C177.842 53.064 177.726 53.46 177.494 53.804C177.262 54.148 176.95 54.4 176.558 54.56C176.998 54.712 177.358 54.98 177.638 55.364C177.918 55.748 178.058 56.2 178.058 56.72C178.058 57.176 177.966 57.588 177.782 57.956C177.606 58.316 177.334 58.604 176.966 58.82C176.598 59.028 176.13 59.132 175.562 59.132Z" fill="#6A6A6A"/>
<path d="M4.016 22V5.2H5.48L11.264 13.864L16.976 5.2H18.488V22H16.976V7.768L11.672 15.856H10.856L5.504 7.768V22H4.016ZM20.9716 22L27.7156 5.2H29.0116L35.7316 22H34.0996L32.1076 16.936H24.5956L22.6036 22H20.9716ZM25.0996 15.52H31.5796L28.3636 7.288L25.0996 15.52ZM44.2768 22.312C42.7568 22.312 41.4208 21.952 40.2688 21.232C39.1168 20.512 38.2128 19.496 37.5568 18.184C36.9168 16.872 36.5968 15.336 36.5968 13.576C36.5968 11.816 36.9168 10.288 37.5568 8.992C38.2128 7.68 39.1168 6.664 40.2688 5.944C41.4208 5.208 42.7568 4.84 44.2768 4.84C45.6048 4.84 46.7888 5.128 47.8288 5.704C48.8848 6.264 49.7568 7.064 50.4448 8.104L49.1488 8.872C48.6048 8.056 47.9168 7.424 47.0848 6.976C46.2528 6.528 45.3168 6.304 44.2768 6.304C43.0768 6.304 42.0128 6.6 41.0848 7.192C40.1568 7.768 39.4288 8.6 38.9008 9.688C38.3728 10.776 38.1088 12.072 38.1088 13.576C38.1088 15.08 38.3728 16.384 38.9008 17.488C39.4288 18.576 40.1568 19.416 41.0848 20.008C42.0128 20.584 43.0768 20.872 44.2768 20.872C45.3168 20.872 46.2528 20.648 47.0848 20.2C47.9168 19.752 48.6048 19.12 49.1488 18.304L50.4448 19.096C49.7568 20.104 48.8848 20.896 47.8288 21.472C46.7888 22.032 45.6048 22.312 44.2768 22.312ZM53.5863 22V5.2H55.0503V12.52H64.4583V5.2H65.9463V22H64.4583V13.912H55.0503V22H53.5863ZM69.9691 22V5.2H71.4331V22H69.9691ZM75.5004 22V5.2H80.3724C81.7644 5.2 82.9724 5.424 83.9964 5.872C85.0204 6.304 85.8604 6.912 86.5164 7.696C87.1884 8.464 87.6844 9.36 88.0044 10.384C88.3404 11.392 88.5084 12.464 88.5084 13.6C88.5084 14.736 88.3404 15.816 88.0044 16.84C87.6844 17.848 87.1884 18.744 86.5164 19.528C85.8604 20.296 85.0204 20.904 83.9964 21.352C82.9724 21.784 81.7644 22 80.3724 22H75.5004ZM76.9644 20.584H80.3004C81.8844 20.584 83.1644 20.264 84.1404 19.624C85.1324 18.968 85.8524 18.112 86.3004 17.056C86.7644 15.984 86.9964 14.832 86.9964 13.6C86.9964 12.352 86.7644 11.2 86.3004 10.144C85.8524 9.072 85.1324 8.216 84.1404 7.576C83.1644 6.92 81.8844 6.592 80.3004 6.592H76.9644V20.584ZM89.3623 22L96.1063 5.2H97.4023L104.122 22H102.49L100.498 16.936H92.9863L90.9943 22H89.3623ZM93.4903 15.52H99.9703L96.7543 7.288L93.4903 15.52ZM113.329 22V5.176H120.649C122.233 5.176 123.433 5.544 124.249 6.28C125.081 7.016 125.497 8.112 125.497 9.568C125.497 11.024 125.081 12.12 124.249 12.856C123.433 13.592 122.233 13.96 120.649 13.96H114.793V22H113.329ZM114.793 12.544H120.529C121.681 12.544 122.537 12.304 123.097 11.824C123.673 11.344 123.961 10.592 123.961 9.568C123.961 8.544 123.673 7.792 123.097 7.312C122.537 6.832 121.681 6.592 120.529 6.592H114.793V12.544ZM125.151 22L131.895 5.2H133.191L139.911 22H138.279L136.287 16.936H128.775L126.783 22H125.151ZM129.279 15.52H135.759L132.543 7.288L129.279 15.52ZM142.391 22V5.176H149.711C151.295 5.176 152.495 5.544 153.311 6.28C154.143 7.016 154.559 8.112 154.559 9.568C154.559 12.304 153.119 13.76 150.239 13.936L154.535 22H152.807L148.607 13.96H143.855V22H142.391ZM143.855 12.544H149.591C150.743 12.544 151.599 12.304 152.159 11.824C152.735 11.344 153.023 10.592 153.023 9.568C153.023 8.544 152.735 7.792 152.159 7.312C151.599 6.832 150.743 6.592 149.591 6.592H143.855V12.544ZM157.743 22V5.2H159.207V22H157.743ZM170.066 22.312C168.546 22.312 167.21 21.952 166.058 21.232C164.906 20.512 164.002 19.496 163.346 18.184C162.706 16.872 162.386 15.336 162.386 13.576C162.386 11.816 162.706 10.288 163.346 8.992C164.002 7.68 164.906 6.664 166.058 5.944C167.21 5.208 168.546 4.84 170.066 4.84C171.57 4.84 172.898 5.208 174.05 5.944C175.202 6.664 176.098 7.68 176.738 8.992C177.394 10.288 177.722 11.816 177.722 13.576C177.722 15.336 177.394 16.872 176.738 18.184C176.098 19.496 175.202 20.512 174.05 21.232C172.898 21.952 171.57 22.312 170.066 22.312ZM170.066 20.872C171.266 20.872 172.322 20.584 173.234 20.008C174.162 19.416 174.882 18.576 175.394 17.488C175.922 16.384 176.186 15.08 176.186 13.576C176.186 12.072 175.922 10.776 175.394 9.688C174.882 8.6 174.162 7.768 173.234 7.192C172.322 6.6 171.266 6.304 170.066 6.304C168.866 6.304 167.802 6.6 166.874 7.192C165.946 7.768 165.218 8.6 164.69 9.688C164.162 10.776 163.898 12.072 163.898 13.576C163.898 15.08 164.162 16.384 164.69 17.488C165.218 18.576 165.946 19.416 166.874 20.008C167.802 20.584 168.866 20.872 170.066 20.872Z" fill="#6A6A6A"/>
</svg>
