<svg width="294" height="54" viewBox="0 0 294 54" fill="none" xmlns="http://www.w3.org/2000/svg">
<path d="M71.6152 24.7244L18.9695 24.7244C18.9695 11.5935 29.6142 0.948883 42.745 0.948884L47.8398 0.948885C60.9706 0.948886 71.6152 11.5935 71.6152 24.7244Z" fill="#F0F0F0"/>
<rect x="71.6152" y="53.595" width="52.6457" height="24.6246" rx="12.3123" transform="rotate(-180 71.6152 53.595)" fill="#F0F0F0"/>
<path d="M119.865 27.6775C133.732 27.6775 144.973 38.9187 144.973 52.7854L119.865 52.7854L119.865 27.6775Z" fill="#F0F0F0"/>
<path d="M118.245 0.949707L118.245 1.75964C118.245 15.6264 107.004 26.8676 93.1372 26.8676L93.1372 0.949706L118.245 0.949707Z" fill="#F0F0F0"/>
<path d="M118.245 27.6775C118.245 41.5442 107.004 52.7854 93.1372 52.7854L93.1372 27.6775L118.245 27.6775Z" fill="#F0F0F0"/>
<path d="M119.865 0.949707C133.732 0.949709 144.973 12.1909 144.973 26.0577L119.865 26.0577L119.865 0.949707Z" fill="#F0F0F0"/>
<path d="M191.689 26.0574C178.27 26.0574 167.391 15.1788 167.391 1.75936L167.391 0.949419C180.811 0.94942 191.689 11.828 191.689 25.2474L191.689 26.0574Z" fill="#F0F0F0"/>
<path d="M218.417 26.0574C204.998 26.0574 194.119 15.1788 194.119 1.75936L194.119 0.949419L218.417 0.949421L218.417 26.0574Z" fill="#F0F0F0"/>
<path d="M192.5 53.595C178.186 53.595 166.582 41.9911 166.582 27.6771L192.5 27.6771L192.5 53.595Z" fill="#F0F0F0"/>
<circle cx="207.079" cy="40.636" r="12.9589" transform="rotate(-180 207.079 40.636)" fill="#F0F0F0"/>
<rect x="293.396" y="53.8799" width="52.2036" height="53.739" rx="26.1018" transform="rotate(-180 293.396 53.8799)" fill="#F0F0F0"/>
</svg>
