<svg width="225" height="52" viewBox="0 0 225 52" fill="none" xmlns="http://www.w3.org/2000/svg">
<path d="M8.76 8.94C6.42 11.4 3.94 12.82 3.54 12.82C3.22 12.82 3 12.58 3 12.34C3 12.18 3.08 12 3.3 11.9C5.46 10.78 7.52 9.1 9.22 6.84C9.34 6.68 9.5 6.6 9.66 6.6C9.96 6.6 10.24 6.86 10.24 7.12C10.24 7.26 10.14 7.42 9.5 8.12C10.46 8.1 11.62 8.06 12.42 8.06C13.34 8.06 13.84 8.56 13.84 9.2C13.84 9.5 13.74 9.84 13.52 10.16C9.48 16.16 2.76 17.44 2.68 17.44C2.34 17.44 2.12 17.18 2.12 16.92C2.12 16.7 2.28 16.48 2.62 16.4C4.86 15.92 7.12 14.92 9.04 13.5C8.4 12.92 7.74 12.54 6.84 12.22C6.72 12.18 6.68 12.08 6.68 11.98C6.68 11.74 6.92 11.42 7.26 11.42C7.74 11.42 9.14 12.22 9.82 12.88C11.76 11.2 12.66 9.58 12.66 9.28C12.66 9.04 12.46 8.92 12.06 8.92C11.42 8.92 10 8.92 8.76 8.94ZM12.26 15.74C9.04 18.72 6.02 19.82 5.76 19.82C5.42 19.82 5.22 19.56 5.22 19.3C5.22 19.1 5.36 18.88 5.62 18.78C8.46 17.72 11.02 15.9 13.14 13.32C13.26 13.16 13.42 13.1 13.56 13.1C13.86 13.1 14.16 13.38 14.16 13.66C14.16 13.82 14.04 13.96 13.14 14.92C14.18 14.9 15.42 14.86 16.38 14.86C17.36 14.86 17.84 15.34 17.84 15.96C17.84 16.22 17.76 16.5 17.6 16.78C13.62 23.6 5 24.2 4.48 24.2C4.1 24.2 3.9 23.94 3.9 23.66C3.9 23.4 4.1 23.14 4.48 23.12C7.32 22.92 10.2 22.02 12.52 20.54C11.8 20 10.86 19.44 9.94 19.1C9.8 19.04 9.74 18.94 9.74 18.8C9.74 18.56 10 18.24 10.34 18.24C10.74 18.24 12.64 19.26 13.38 19.94C15.56 18.34 16.56 16.5 16.56 16.14C16.56 15.9 16.38 15.72 15.94 15.72C15.12 15.72 13.58 15.72 12.26 15.74ZM43.14 21.48L37.8 21.46V21.52C37.76 23.14 36.94 24.1 35.28 24.1C33.84 24.1 33.6 23.76 33.6 23.46C33.6 23.22 33.74 23 34 23C34.04 23 34.08 23.02 34.12 23.02C34.58 23.14 34.98 23.2 35.3 23.2C36.48 23.2 36.8 22.48 36.84 21.46L30.5 21.48C30.24 21.48 30.12 21.28 30.12 21.08C30.12 20.88 30.24 20.68 30.5 20.68H36.86C36.86 20.28 36.84 19.88 36.78 19.46L31.66 19.48C31.4 19.48 31.28 19.28 31.28 19.08C31.28 18.88 31.4 18.68 31.66 18.68L36.62 18.7C36.5 18.26 36.32 17.86 36.06 17.52C35.2 17.54 34.38 17.56 33.58 17.56C33.02 17.56 32.48 17.54 31.98 17.54C31.68 17.54 31.54 17.32 31.54 17.12C31.54 16.9 31.68 16.7 31.98 16.7H32C32.92 16.74 33.8 16.76 34.68 16.76C36.66 16.76 38.62 16.66 40.9 16.36H41.02C41.3 16.36 41.44 16.54 41.44 16.74C41.44 16.94 41.3 17.16 41.12 17.18C39.8 17.34 38.38 17.44 37.02 17.5C37.26 17.84 37.44 18.24 37.56 18.7L42 18.68C42.26 18.68 42.38 18.88 42.38 19.08C42.38 19.28 42.26 19.48 42 19.48L37.7 19.46C37.76 19.86 37.78 20.26 37.8 20.68H43.14C43.4 20.68 43.52 20.88 43.52 21.08C43.52 21.28 43.4 21.48 43.14 21.48ZM35.32 8.56V7.28C35.32 6.9 35.6 6.7 35.88 6.7C36.16 6.7 36.44 6.9 36.44 7.28V8.56C38.84 8.56 41.36 8.56 43.08 8.58C43.4 8.58 43.54 8.8 43.54 9.02C43.54 9.26 43.4 9.48 43.08 9.48C41.26 9.46 38.28 9.46 35.66 9.46C33.74 9.46 32.02 9.46 31.08 9.48C30.14 9.5 29.72 9.94 29.72 10.74C29.72 11.58 29.76 12.52 29.76 13.54C29.76 16.82 29.52 20.74 27.94 23.24C27.8 23.48 27.58 23.56 27.4 23.56C27.1 23.56 26.82 23.34 26.82 23.08C26.82 23 26.84 22.92 26.9 22.84C28.44 20.52 28.72 17.16 28.72 14.14C28.72 12.88 28.66 11.66 28.64 10.62V10.54C28.64 9.34 29.48 8.58 30.9 8.58C31.98 8.58 33.58 8.56 35.32 8.56ZM42.52 12.24L40.16 12.22C41.12 13.2 42.14 13.92 43.34 14.5C43.52 14.58 43.58 14.72 43.58 14.86C43.58 15.1 43.38 15.32 43.1 15.32C42.7 15.32 41.18 14.26 40.04 13.06L40.08 15.54C40.08 15.8 39.86 15.94 39.64 15.94C39.4 15.94 39.18 15.8 39.18 15.54L39.22 13.02C38.08 14.26 36.52 15.58 36.1 15.58C35.84 15.58 35.64 15.36 35.64 15.16C35.64 15.04 35.7 14.92 35.84 14.84C36.88 14.26 38.06 13.34 39.08 12.22L37.02 12.24C36.76 12.24 36.64 12.06 36.64 11.88C36.64 11.68 36.78 11.48 37.04 11.48L39.2 11.5L39.18 10.38C39.18 10.28 39.2 9.98 39.66 9.98C39.86 9.98 40.08 10.1 40.08 10.34V10.36L40.06 11.5L42.52 11.48C42.8 11.48 42.94 11.66 42.94 11.86C42.94 12.04 42.8 12.24 42.52 12.24ZM33.1 15.56L33.14 13.04C32.36 13.98 30.94 15.28 30.58 15.28C30.36 15.28 30.14 15.08 30.14 14.88C30.14 14.78 30.2 14.66 30.34 14.58C31.32 13.96 32.18 13.18 32.98 12.22L31.08 12.24C30.82 12.24 30.68 12.06 30.68 11.86C30.68 11.68 30.82 11.48 31.1 11.48L33.12 11.5L33.1 10.38V10.36C33.1 10.12 33.34 9.98 33.56 9.98C33.78 9.98 34 10.1 34 10.36L33.98 11.5L35.86 11.48C36.12 11.48 36.26 11.66 36.26 11.86C36.26 12.04 36.12 12.24 35.86 12.24L33.96 12.22V12.44L33.98 15.56C33.98 15.82 33.76 15.96 33.54 15.96C33.32 15.96 33.1 15.82 33.1 15.56ZM35.88 14.34C35.8 14.34 35.72 14.3 35.64 14.24C35.22 13.88 34.72 13.7 34.22 13.54C34.1 13.5 34.04 13.4 34.04 13.3C34.04 13.12 34.18 12.94 34.44 12.94C34.8 12.94 36.3 13.42 36.3 13.9C36.3 14.12 36.1 14.34 35.88 14.34ZM68.8 15.88L61.24 15.86L53.66 15.88C53.34 15.88 53.18 15.64 53.18 15.42C53.18 15.18 53.34 14.96 53.64 14.96L60.64 14.98V12.96L55.64 12.98C55.34 12.98 55.2 12.76 55.2 12.54C55.2 12.32 55.34 12.1 55.64 12.1L60.64 12.12V10.2L54.48 10.22C54.18 10.22 54.04 10 54.04 9.78C54.04 9.56 54.18 9.34 54.48 9.34H58.82C58.78 9.3 58.74 9.26 58.72 9.2C58.34 8.42 57.84 7.9 57.28 7.36C57.22 7.3 57.18 7.22 57.18 7.14C57.18 6.92 57.44 6.68 57.74 6.68C58.3 6.68 59.66 8.34 59.66 8.88C59.66 9.08 59.56 9.24 59.42 9.34H62.58C63.1 8.6 63.58 7.56 63.84 6.94C63.94 6.68 64.16 6.58 64.36 6.58C64.66 6.58 64.94 6.78 64.94 7.08C64.94 7.5 63.88 9 63.64 9.34H67.92C68.2 9.34 68.34 9.56 68.34 9.78C68.34 10 68.2 10.22 67.92 10.22L61.72 10.2V12.12L66.76 12.1C67.04 12.1 67.18 12.32 67.18 12.54C67.18 12.76 67.04 12.98 66.76 12.98L61.72 12.96V14.98L68.8 14.96C69.1 14.96 69.24 15.18 69.24 15.42C69.24 15.64 69.1 15.88 68.8 15.88ZM68.72 19.08L62.06 19.02C63.24 21.04 65.6 22.68 68.98 22.78C69.38 22.78 69.56 23.04 69.56 23.32C69.56 23.6 69.34 23.9 68.92 23.9C68.4 23.9 63.52 23.54 61.18 19.36C59.36 23.68 53.56 24.06 53.44 24.06C53.08 24.06 52.9 23.8 52.9 23.52C52.9 23.28 53.04 23.06 53.36 23.02C57.14 22.58 59.34 21.18 60.22 19.02L53.74 19.08C53.44 19.08 53.3 18.86 53.3 18.62C53.3 18.38 53.46 18.14 53.76 18.14L60.5 18.16C60.6 17.72 60.66 17.24 60.68 16.74C60.68 16.36 60.96 16.18 61.22 16.18C61.5 16.18 61.76 16.36 61.76 16.66C61.76 16.88 61.6 18 61.56 18.16L68.7 18.14C69 18.14 69.14 18.38 69.14 18.62C69.14 18.86 69 19.08 68.72 19.08ZM85.98 23.4L86 11.74H83.64C83.32 11.74 83.16 11.5 83.16 11.28C83.16 11.04 83.32 10.8 83.64 10.8L86 10.82L85.98 7.76C85.98 7.42 86.24 7.24 86.52 7.24C86.78 7.24 87.04 7.42 87.04 7.76L87.02 10.82L89.6 10.8C89.92 10.8 90.06 11.04 90.06 11.26C90.06 11.5 89.92 11.74 89.6 11.74H87.02L87.04 23.4C87.04 23.72 86.78 23.88 86.5 23.88C86.24 23.88 85.98 23.72 85.98 23.4ZM93.4 19.6L93.42 21.68V21.74C93.42 22.9 92.94 23.96 90.92 23.96C90.48 23.96 89.98 23.9 89.38 23.8C89.1 23.74 88.96 23.52 88.96 23.28C88.96 23.02 89.14 22.74 89.42 22.74H89.5C90.08 22.84 90.56 22.92 90.98 22.92C91.84 22.92 92.32 22.6 92.32 21.58C92.32 20.18 92.34 15.86 92.34 13.92L90.06 13.94C89.76 13.94 89.6 13.7 89.6 13.46C89.6 13.22 89.76 12.98 90.06 12.98H94.96C95.28 12.98 95.44 13.22 95.44 13.46C95.44 13.7 95.28 13.94 94.96 13.94L93.38 13.92C93.38 15.36 93.38 18.66 93.4 19.6ZM80.1 23.74V23.72L80.38 15.12C79.78 15.7 78.42 16.92 78.02 16.92C77.72 16.92 77.52 16.66 77.52 16.42C77.52 16.24 77.6 16.08 77.8 15.96C79.24 15.08 80.92 13.34 81.92 11.7C82.02 11.52 82.18 11.44 82.34 11.44C82.62 11.44 82.9 11.7 82.9 12C82.9 12.26 82.2 13.14 81.4 14.06L81.18 23.72C81.16 24.04 80.9 24.2 80.62 24.2C80.36 24.2 80.1 24.06 80.1 23.74ZM78.3 12.46C78 12.46 77.76 12.2 77.76 11.94C77.76 11.78 77.86 11.62 78.06 11.5C79.42 10.72 81.06 8.92 81.88 7.58C82 7.4 82.14 7.32 82.3 7.32C82.58 7.32 82.86 7.56 82.86 7.86C82.86 8.5 79.22 12.46 78.3 12.46ZM83.56 20.14C83.42 20.42 83.2 20.54 82.98 20.54C82.74 20.54 82.5 20.36 82.5 20.08C82.5 20 82.52 19.88 82.58 19.78C83.28 18.36 83.76 16.18 83.86 14.62C83.88 14.34 84.1 14.22 84.32 14.22C84.56 14.22 84.82 14.38 84.82 14.72C84.8 16.34 84.18 18.88 83.56 20.14ZM89.64 20.02C89.4 20.02 89.18 19.86 89.14 19.52C88.98 17.86 88.52 16.12 87.92 14.72C87.9 14.66 87.88 14.6 87.88 14.54C87.88 14.28 88.12 14.12 88.36 14.12C88.52 14.12 88.68 14.2 88.78 14.38C89.38 15.48 90.18 18.34 90.18 19.4C90.18 19.8 89.9 20.02 89.64 20.02ZM94.44 9.32H90.82C90.5 9.32 90.32 9.08 90.32 8.82C90.32 8.58 90.5 8.34 90.82 8.34H94.44C94.78 8.34 94.94 8.58 94.94 8.82C94.94 9.08 94.78 9.32 94.44 9.32ZM89.32 10.02C89.2 10.02 89.08 9.96 89.02 9.84C88.66 9.14 88.26 8.8 87.68 8.34C87.62 8.28 87.58 8.22 87.58 8.14C87.58 7.94 87.8 7.7 88.06 7.7C88.56 7.7 89.84 9.04 89.84 9.48C89.84 9.78 89.56 10.02 89.32 10.02ZM120.08 13.26L113.12 13.22C114.06 17.68 117.36 21.14 120.74 22.44C121 22.54 121.1 22.74 121.1 22.96C121.1 23.3 120.84 23.66 120.44 23.66C119.42 23.66 114 20.24 112.52 14.58C110.76 21.58 104.78 23.88 104.42 23.88C104.06 23.88 103.82 23.58 103.82 23.26C103.82 23.08 103.92 22.88 104.16 22.78C109 20.72 111.06 17.1 111.7 13.22L104.68 13.26C104.34 13.26 104.16 13 104.16 12.74C104.16 12.5 104.34 12.24 104.68 12.24H111.84C111.88 11.94 111.92 11.3 111.92 9.9C111.92 9.12 111.92 8.26 111.9 7.76V7.74C111.9 7.4 112.2 7.22 112.5 7.22C112.82 7.22 113.12 7.4 113.12 7.78C113.12 9.56 112.98 11.9 112.94 12.24H120.08C120.44 12.24 120.6 12.5 120.6 12.74C120.6 13 120.44 13.26 120.08 13.26ZM146.02 18.74L140.06 18.72C140.16 19.14 140.22 19.6 140.22 20.04C140.22 21.92 139.28 24.2 136.34 24.2C134.4 24.2 134.32 23.68 134.32 23.46C134.32 23.18 134.52 22.92 134.84 22.92C134.88 22.92 134.94 22.92 135 22.94C135.48 23.08 136 23.2 136.52 23.2C139.08 23.2 139.2 20.46 139.2 19.9C139.2 19.5 139.14 19.1 139.02 18.72L130.04 18.74C129.72 18.74 129.56 18.5 129.56 18.26C129.56 18 129.72 17.76 130.02 17.76L138.58 17.8C138.2 17.26 137.64 16.82 136.88 16.54C136.64 16.46 136.54 16.32 136.54 16.18C136.54 15.94 136.82 15.7 137.14 15.7C137.2 15.7 137.28 15.72 137.34 15.74C137.74 15.88 138.1 16.06 138.42 16.28C138.96 15.94 140.86 14.64 140.86 14.2C140.86 13.92 140.48 13.92 139.6 13.92C138.22 13.92 135.56 13.94 133.98 13.98H133.96C133.64 13.98 133.48 13.76 133.48 13.54C133.48 13.3 133.66 13.06 133.98 13.06C134.8 13.04 135.76 13.02 136.74 13.02C138.26 13.02 139.78 13.04 140.76 13.06C141.7 13.08 142.08 13.54 142.08 14.04C142.08 14.46 141.94 15.14 139.12 16.9C139.36 17.16 139.56 17.48 139.72 17.8L146.02 17.76C146.32 17.76 146.48 18 146.48 18.24C146.48 18.5 146.32 18.74 146.02 18.74ZM144.46 14.04V12.42C144.44 11.66 144.1 11.26 143.12 11.26C141.64 11.24 139.76 11.24 137.9 11.24C136.06 11.24 134.24 11.24 132.84 11.26C131.86 11.26 131.5 11.62 131.48 12.4V14.06C131.48 14.38 131.2 14.54 130.92 14.54C130.36 14.54 130.36 14.24 130.36 13.08C130.36 12.72 130.38 12.32 130.38 12.02C130.4 11.22 131 10.4 132.48 10.38C134.42 10.36 136.26 10.36 138.12 10.36H140.44C141.14 9.5 141.9 8.1 142.28 7.26C142.4 7 142.6 6.9 142.8 6.9C143.1 6.9 143.42 7.14 143.42 7.46C143.42 7.74 142.36 9.34 141.54 10.36C142.18 10.36 142.84 10.38 143.5 10.38C144.78 10.4 145.56 11.06 145.58 12.02C145.6 12.26 145.6 12.66 145.6 13.04C145.6 13.4 145.6 13.78 145.58 14C145.56 14.34 145.28 14.52 145 14.52C144.72 14.52 144.46 14.36 144.46 14.04ZM139 9.02C139 9.34 138.64 9.6 138.36 9.6C138.2 9.6 138.06 9.54 138 9.36C137.64 8.46 137.18 7.98 136.54 7.28C136.48 7.22 136.46 7.16 136.46 7.08C136.46 6.86 136.74 6.62 137.04 6.62C137.62 6.62 139 8.62 139 9.02ZM134.62 9.82C134.48 9.82 134.36 9.76 134.26 9.6C133.74 8.74 133.2 8.38 132.52 7.82C132.44 7.74 132.4 7.66 132.4 7.58C132.4 7.34 132.66 7.08 132.96 7.08C133.48 7.08 135.18 8.72 135.18 9.22C135.18 9.54 134.88 9.82 134.62 9.82ZM171.28 13.26L164.32 13.22C165.26 17.68 168.56 21.14 171.94 22.44C172.2 22.54 172.3 22.74 172.3 22.96C172.3 23.3 172.04 23.66 171.64 23.66C170.62 23.66 165.2 20.24 163.72 14.58C161.96 21.58 155.98 23.88 155.62 23.88C155.26 23.88 155.02 23.58 155.02 23.26C155.02 23.08 155.12 22.88 155.36 22.78C160.2 20.72 162.26 17.1 162.9 13.22L155.88 13.26C155.54 13.26 155.36 13 155.36 12.74C155.36 12.5 155.54 12.24 155.88 12.24H163.04C163.08 11.94 163.12 11.3 163.12 9.9C163.12 9.12 163.12 8.26 163.1 7.76V7.74C163.1 7.4 163.4 7.22 163.7 7.22C164.02 7.22 164.32 7.4 164.32 7.78C164.32 9.56 164.18 11.9 164.14 12.24H171.28C171.64 12.24 171.8 12.5 171.8 12.74C171.8 13 171.64 13.26 171.28 13.26ZM197.22 18.74L191.26 18.72C191.36 19.14 191.42 19.6 191.42 20.04C191.42 21.92 190.48 24.2 187.54 24.2C185.6 24.2 185.52 23.68 185.52 23.46C185.52 23.18 185.72 22.92 186.04 22.92C186.08 22.92 186.14 22.92 186.2 22.94C186.68 23.08 187.2 23.2 187.72 23.2C190.28 23.2 190.4 20.46 190.4 19.9C190.4 19.5 190.34 19.1 190.22 18.72L181.24 18.74C180.92 18.74 180.76 18.5 180.76 18.26C180.76 18 180.92 17.76 181.22 17.76L189.78 17.8C189.4 17.26 188.84 16.82 188.08 16.54C187.84 16.46 187.74 16.32 187.74 16.18C187.74 15.94 188.02 15.7 188.34 15.7C188.4 15.7 188.48 15.72 188.54 15.74C188.94 15.88 189.3 16.06 189.62 16.28C190.16 15.94 192.06 14.64 192.06 14.2C192.06 13.92 191.68 13.92 190.8 13.92C189.42 13.92 186.76 13.94 185.18 13.98H185.16C184.84 13.98 184.68 13.76 184.68 13.54C184.68 13.3 184.86 13.06 185.18 13.06C186 13.04 186.96 13.02 187.94 13.02C189.46 13.02 190.98 13.04 191.96 13.06C192.9 13.08 193.28 13.54 193.28 14.04C193.28 14.46 193.14 15.14 190.32 16.9C190.56 17.16 190.76 17.48 190.92 17.8L197.22 17.76C197.52 17.76 197.68 18 197.68 18.24C197.68 18.5 197.52 18.74 197.22 18.74ZM195.66 14.04V12.42C195.64 11.66 195.3 11.26 194.32 11.26C192.84 11.24 190.96 11.24 189.1 11.24C187.26 11.24 185.44 11.24 184.04 11.26C183.06 11.26 182.7 11.62 182.68 12.4V14.06C182.68 14.38 182.4 14.54 182.12 14.54C181.56 14.54 181.56 14.24 181.56 13.08C181.56 12.72 181.58 12.32 181.58 12.02C181.6 11.22 182.2 10.4 183.68 10.38C185.62 10.36 187.46 10.36 189.32 10.36H191.64C192.34 9.5 193.1 8.1 193.48 7.26C193.6 7 193.8 6.9 194 6.9C194.3 6.9 194.62 7.14 194.62 7.46C194.62 7.74 193.56 9.34 192.74 10.36C193.38 10.36 194.04 10.38 194.7 10.38C195.98 10.4 196.76 11.06 196.78 12.02C196.8 12.26 196.8 12.66 196.8 13.04C196.8 13.4 196.8 13.78 196.78 14C196.76 14.34 196.48 14.52 196.2 14.52C195.92 14.52 195.66 14.36 195.66 14.04ZM190.2 9.02C190.2 9.34 189.84 9.6 189.56 9.6C189.4 9.6 189.26 9.54 189.2 9.36C188.84 8.46 188.38 7.98 187.74 7.28C187.68 7.22 187.66 7.16 187.66 7.08C187.66 6.86 187.94 6.62 188.24 6.62C188.82 6.62 190.2 8.62 190.2 9.02ZM185.82 9.82C185.68 9.82 185.56 9.76 185.46 9.6C184.94 8.74 184.4 8.38 183.72 7.82C183.64 7.74 183.6 7.66 183.6 7.58C183.6 7.34 183.86 7.08 184.16 7.08C184.68 7.08 186.38 8.72 186.38 9.22C186.38 9.54 186.08 9.82 185.82 9.82ZM207.12 9.1C207.16 7.5 208.2 7.48 209.64 7.48C210.82 7.48 211.98 7.52 211.98 8.8C211.98 9.1 211.92 9.68 211.04 11.64C210.86 12.02 210.78 12.3 210.78 12.56C210.78 12.92 210.94 13.22 211.24 13.7C211.84 14.7 212.14 15.38 212.14 16.54C212.14 18.5 210.88 19.28 209.76 19.28C208.98 19.28 208.66 19.04 208.66 18.68C208.66 18.42 208.82 18.18 209.06 18.18C209.08 18.18 209.12 18.2 209.16 18.2C209.34 18.26 209.52 18.28 209.68 18.28C209.8 18.28 211.14 18.26 211.14 16.46C211.14 15.4 210.7 14.52 210.26 13.82C209.96 13.36 209.84 13 209.84 12.6C209.84 12.28 209.94 11.94 210.1 11.5C210.86 9.48 210.9 9.1 210.9 8.94C210.9 8.62 210.74 8.36 209.86 8.36C209.56 8.36 209.2 8.38 208.98 8.38C208.38 8.4 208.14 8.72 208.14 9.28C208.1 12.6 208.12 18.92 208.1 23.7C208.1 24.06 207.84 24.24 207.58 24.24C207.3 24.24 207.02 24.06 207.02 23.7C207.02 20 207.06 12.98 207.12 9.1ZM222.44 20.56C222.44 20.26 222.68 20.1 222.94 20.1C223.22 20.1 223.5 20.28 223.5 20.6V20.74C223.5 23.2 222.8 23.76 220.66 23.76C219.5 23.76 218.4 23.46 218.4 21.94C218.4 21.2 218.42 17.5 218.46 16.42L213.14 16.44C212.84 16.44 212.68 16.22 212.68 15.98C212.68 15.76 212.84 15.52 213.14 15.52H222.78C223.06 15.52 223.2 15.76 223.2 15.98C223.2 16.22 223.06 16.44 222.78 16.44L219.52 16.42C219.52 17.5 219.44 20.4 219.44 21.48C219.44 22.44 219.5 22.76 220.76 22.76C222.1 22.76 222.44 22.48 222.44 20.82V20.56ZM222.14 12.6V11.34C222.14 10.56 221.7 10.28 220.9 10.28H215.06C214.1 10.3 213.84 10.62 213.82 11.32V12.64C213.82 12.94 213.56 13.08 213.3 13.08C213.04 13.08 212.78 12.94 212.78 12.64V11.6C212.78 10.5 212.8 9.4 214.72 9.38C215.5 9.36 216.42 9.36 217.34 9.36L217.32 7.3C217.32 6.96 217.6 6.8 217.88 6.8C218.16 6.8 218.44 6.96 218.44 7.3L218.42 9.34C219.42 9.34 220.4 9.36 221.28 9.38C223.16 9.44 223.22 10.58 223.22 11.9C223.22 12.78 223.2 13.04 222.66 13.04C222.4 13.04 222.14 12.88 222.14 12.6ZM211.68 24.02C211.58 24.06 211.48 24.08 211.4 24.08C211.06 24.08 210.86 23.82 210.86 23.56C210.86 23.36 210.98 23.14 211.24 23.06C214.16 22.04 215.34 20.36 215.76 17.56C215.82 17.24 216.04 17.12 216.26 17.12C216.54 17.12 216.82 17.32 216.82 17.6V17.7C216.28 20.64 215.08 22.8 211.68 24.02ZM220.76 13.38H215.18C214.88 13.38 214.72 13.14 214.72 12.92C214.72 12.7 214.86 12.48 215.16 12.48H220.76C221.04 12.48 221.18 12.7 221.18 12.92C221.18 13.16 221.04 13.38 220.76 13.38Z" fill="#6A6A6A"/>
<path d="M78.672 45.216V44.112H73.92C73.92 45.008 73.936 45.904 73.952 46.656V46.672C73.952 46.912 73.76 47.04 73.552 47.04C73.344 47.04 73.12 46.896 73.12 46.64C73.12 45.76 73.104 44.784 73.104 43.808C73.104 42.832 73.12 41.856 73.12 41.008C73.12 40.24 73.52 39.76 74.64 39.728C75.168 39.712 75.712 39.696 76.272 39.696C76.832 39.696 77.392 39.712 77.92 39.728C78.944 39.76 79.44 40.208 79.456 40.928C79.456 41.152 79.472 43.456 79.488 43.968C79.504 44.512 79.504 44.864 79.504 45.312V45.376C79.504 46.064 79.264 46.848 77.808 46.848C77.008 46.848 76.4 46.752 76.4 46.336C76.4 46.144 76.544 45.952 76.768 45.952C76.8 45.952 76.832 45.968 76.864 45.968C77.216 46.032 77.536 46.08 77.792 46.08C78.336 46.08 78.656 45.872 78.672 45.216ZM80.736 38.752H72.08C71.84 38.752 71.712 38.576 71.712 38.416C71.712 38.24 71.84 38.08 72.064 38.08L75.888 38.096V36.864L73.184 36.88C72.944 36.88 72.832 36.72 72.832 36.56C72.832 36.4 72.96 36.224 73.184 36.224L75.888 36.24V35.168H72.608C72.368 35.168 72.256 35.008 72.256 34.848C72.256 34.656 72.384 34.48 72.624 34.48H75.888V33.408C75.888 33.136 76.096 33.008 76.304 33.008C76.512 33.008 76.72 33.136 76.72 33.408V34.48H80.176C80.416 34.48 80.528 34.656 80.528 34.816C80.528 34.992 80.416 35.168 80.176 35.168H76.72V36.24L79.376 36.224C79.6 36.224 79.712 36.384 79.712 36.544C79.712 36.72 79.6 36.88 79.376 36.88L76.704 36.864V38.096L80.736 38.08C80.96 38.08 81.072 38.24 81.072 38.416C81.072 38.576 80.96 38.752 80.736 38.752ZM69.264 46.512V33.616C69.264 33.344 69.488 33.216 69.696 33.216C69.92 33.216 70.128 33.344 70.128 33.616V46.512C70.128 46.768 69.92 46.896 69.696 46.896C69.488 46.896 69.264 46.768 69.264 46.512ZM78.656 42.24H73.92V43.488H78.672C78.672 43.072 78.656 42.656 78.656 42.24ZM73.936 41.616H78.64C78.64 41.424 78.624 41.248 78.624 41.072C78.608 40.688 78.416 40.384 77.76 40.368C77.312 40.352 76.752 40.352 76.224 40.352C75.696 40.352 75.184 40.352 74.8 40.368C74.144 40.384 73.952 40.704 73.952 41.072L73.936 41.616ZM67.184 39.968C66.976 39.968 66.784 39.824 66.784 39.6C66.784 39.52 66.816 39.424 66.88 39.312C67.328 38.576 67.568 37.552 67.568 36.656C67.568 36.4 67.744 36.288 67.92 36.288C68.08 36.288 68.352 36.352 68.352 36.768C68.352 37.456 67.936 39.968 67.184 39.968ZM71.808 37.584C71.68 37.584 71.552 37.52 71.488 37.36C71.216 36.784 70.704 36.192 70.512 35.984C70.448 35.92 70.432 35.856 70.432 35.792C70.432 35.616 70.624 35.456 70.816 35.456C71.2 35.456 72.224 36.768 72.224 37.136C72.224 37.392 72.016 37.584 71.808 37.584ZM91.408 39.472V46.464C91.408 46.752 91.2 46.896 90.976 46.896C90.768 46.896 90.56 46.752 90.56 46.48C90.56 46.48 90.576 36.848 90.608 35.12C90.624 34.432 91.008 33.824 92.08 33.776C92.464 33.76 92.928 33.744 93.408 33.744C93.872 33.744 94.368 33.76 94.816 33.776C95.824 33.808 96.192 34.352 96.192 35.056C96.192 36.688 95.872 37.52 94.384 37.52C94.064 37.52 93.68 37.472 93.216 37.36C93.008 37.312 92.912 37.152 92.912 36.976C92.912 36.784 93.04 36.592 93.264 36.592C93.312 36.592 93.344 36.592 93.392 36.608C93.776 36.704 94.096 36.752 94.352 36.752C95.072 36.752 95.36 36.432 95.36 35.344C95.36 34.48 95.232 34.48 93.504 34.48C93.072 34.48 92.608 34.48 92.304 34.496C91.648 34.512 91.408 34.912 91.408 35.344V38.768C92.08 38.752 94.016 38.736 94.896 38.736C95.808 38.736 96.112 39.072 96.112 39.728C96.112 40.4 95.744 42.256 94.752 43.952C95.344 44.64 96.08 45.2 96.96 45.648C97.104 45.728 97.168 45.856 97.168 45.984C97.168 46.208 96.992 46.432 96.72 46.432C96.352 46.432 95.2 45.648 94.336 44.608C93.52 45.744 92.544 46.496 92.24 46.496C92 46.496 91.808 46.304 91.808 46.096C91.808 45.968 91.872 45.84 92.032 45.744C92.768 45.296 93.36 44.672 93.84 43.984C92.72 42.4 92.208 40.544 92.208 40.336C92.208 40.096 92.416 39.984 92.608 39.984C92.752 39.984 92.896 40.064 92.928 40.192C93.216 41.392 93.648 42.432 94.256 43.312C94.784 42.368 95.28 40.784 95.28 39.888C95.28 39.472 95.2 39.456 93.84 39.456C92.976 39.456 91.872 39.456 91.408 39.472ZM89.504 37.632L86.544 37.616L83.648 37.632C83.392 37.632 83.28 37.456 83.28 37.296C83.28 37.104 83.408 36.928 83.648 36.928L86.16 36.944V35.328L84.208 35.344C83.952 35.344 83.84 35.168 83.84 35.008C83.84 34.816 83.968 34.64 84.208 34.64L86.144 34.656V33.504C86.144 33.248 86.352 33.12 86.56 33.12C86.768 33.12 86.976 33.248 86.976 33.504V34.656L88.928 34.64C89.168 34.64 89.296 34.816 89.296 34.992C89.296 35.168 89.168 35.344 88.928 35.344L86.976 35.328L86.96 36.944L89.504 36.928C89.744 36.928 89.856 37.104 89.856 37.28C89.856 37.456 89.744 37.632 89.504 37.632ZM86.016 39.728C86.016 39.968 85.792 40.144 85.584 40.144C85.456 40.144 85.344 40.08 85.28 39.936C85.024 39.344 84.72 38.992 84.416 38.576C84.384 38.528 84.368 38.496 84.368 38.448C84.368 38.288 84.56 38.128 84.768 38.128C85.168 38.128 86.016 39.392 86.016 39.728ZM89.184 43.792L86.976 43.776V46.512C86.976 46.784 86.768 46.928 86.56 46.928C86.352 46.928 86.144 46.784 86.144 46.512L86.16 43.776L83.968 43.792C83.712 43.792 83.584 43.616 83.584 43.44C83.584 43.248 83.712 43.072 83.968 43.072L86.16 43.088V41.28L83.648 41.296C83.392 41.296 83.28 41.136 83.28 40.96C83.28 40.784 83.408 40.608 83.648 40.608H86.768C86.768 40.592 86.784 40.576 86.8 40.56C87.216 39.952 87.648 39.056 87.936 38.224C87.984 38.08 88.128 38.016 88.256 38.016C88.48 38.016 88.704 38.16 88.704 38.4C88.704 38.704 87.968 39.984 87.536 40.608H89.504C89.744 40.608 89.856 40.784 89.856 40.944C89.856 41.12 89.744 41.296 89.504 41.296L86.96 41.28L86.976 43.088L89.184 43.072C89.424 43.072 89.536 43.248 89.536 43.424C89.536 43.616 89.424 43.792 89.184 43.792ZM111.184 39.408H111.168C110.592 39.392 109.84 39.376 108.992 39.376C108.384 39.376 107.744 39.392 107.072 39.392C107.04 44.752 102.128 46.144 101.744 46.144C101.424 46.144 101.264 45.936 101.264 45.728C101.264 45.536 101.392 45.328 101.664 45.248C104.56 44.464 106.112 42.16 106.112 39.44V39.392C104.16 39.408 102.224 39.456 100.992 39.504H100.976C100.672 39.504 100.512 39.296 100.512 39.088C100.512 38.88 100.672 38.656 101.024 38.656C103.344 38.624 108.56 38.592 111.216 38.576C111.536 38.576 111.68 38.784 111.68 38.976C111.68 39.2 111.52 39.408 111.184 39.408ZM108.944 35.312H108.96C109.264 35.312 109.408 35.504 109.408 35.712C109.408 35.92 109.248 36.144 108.976 36.144C106.72 36.176 104.592 36.24 102.848 36.24C102.512 36.24 102.368 36.048 102.368 35.84C102.368 35.632 102.544 35.408 102.864 35.408H103.52C105.344 35.408 107.008 35.36 108.944 35.312ZM113.168 36.208C113.04 36.208 112.912 36.144 112.832 36.016C112.544 35.584 111.936 34.912 111.488 34.624C111.376 34.544 111.328 34.448 111.328 34.352C111.328 34.192 111.472 34.048 111.68 34.048C112.08 34.048 113.568 35.28 113.568 35.808C113.568 36.048 113.376 36.208 113.168 36.208ZM111.584 37.088C111.456 37.088 111.344 37.024 111.264 36.88C111.024 36.432 110.368 35.792 109.936 35.488C109.824 35.408 109.792 35.328 109.792 35.232C109.792 35.072 109.936 34.912 110.16 34.912C110.576 34.912 111.984 36.176 111.984 36.672C111.984 36.928 111.792 37.088 111.584 37.088ZM128.112 38.672H128.096C126.96 38.64 125.776 38.608 124.576 38.608V39.296C124.576 42.304 123.328 44.768 120.336 46.512C120.192 46.592 120.064 46.624 119.952 46.624C119.696 46.624 119.552 46.448 119.552 46.224C119.552 46.08 119.632 45.904 119.84 45.792C122.496 44.336 123.696 42.112 123.696 39.36V38.624C122.56 38.624 121.44 38.624 120.336 38.656V41.504C120.32 41.84 120.096 41.984 119.856 41.984C119.632 41.984 119.424 41.856 119.424 41.584V41.552C119.472 40.784 119.472 39.744 119.472 38.688C118.272 38.72 117.12 38.768 116.064 38.816H116.032C115.712 38.816 115.568 38.624 115.568 38.432C115.568 38.24 115.728 38.032 116.016 38.016L119.456 37.936C119.44 37.008 119.424 36.128 119.392 35.472V35.44C119.392 35.152 119.6 35.008 119.824 35.008C120.032 35.008 120.256 35.152 120.272 35.456C120.304 36.08 120.32 36.976 120.336 37.92L123.712 37.856C123.712 36.848 123.696 35.84 123.68 35.296C123.664 34.88 123.968 34.768 124.112 34.768C124.336 34.768 124.576 34.944 124.576 35.28V37.856C125.776 37.84 126.944 37.824 128.064 37.824C128.448 37.824 128.624 38.016 128.624 38.224C128.624 38.448 128.432 38.672 128.112 38.672ZM128.816 35.728C128.72 35.728 128.624 35.68 128.544 35.584C128.224 35.2 127.44 34.672 126.96 34.464C126.816 34.4 126.752 34.288 126.752 34.192C126.752 34.016 126.896 33.856 127.136 33.856C127.424 33.856 129.216 34.688 129.216 35.312C129.216 35.552 129.024 35.728 128.816 35.728ZM127.52 36.88C127.424 36.88 127.312 36.832 127.232 36.736C126.912 36.336 126.16 35.824 125.68 35.616C125.536 35.552 125.472 35.456 125.472 35.344C125.472 35.184 125.632 35.008 125.872 35.008C125.952 35.008 127.904 35.76 127.904 36.496C127.904 36.72 127.712 36.88 127.52 36.88ZM137.651 45.952V45.968C137.651 46.304 137.378 46.496 137.139 46.496C136.899 46.496 136.691 46.352 136.691 46V45.984C136.707 44.544 136.786 41.488 136.786 39.552V39.088C135.251 40.672 133.587 41.984 131.571 43.2C131.379 43.312 131.219 43.36 131.091 43.36C130.819 43.36 130.659 43.168 130.659 42.944C130.659 42.784 130.755 42.592 130.963 42.48C134.243 40.688 137.203 37.84 139.091 34.88C139.219 34.672 139.395 34.592 139.571 34.592C139.811 34.592 140.035 34.784 140.035 35.024C140.035 35.136 139.987 35.248 139.907 35.36C139.155 36.368 138.419 37.28 137.683 38.112C137.651 39.2 137.635 41.488 137.635 43.424C137.635 44.448 137.635 45.376 137.651 45.952ZM158.195 37.664C155.283 43.648 149.619 45.632 148.979 45.632C148.627 45.632 148.419 45.376 148.419 45.12C148.419 44.912 148.562 44.672 148.915 44.592C152.387 43.712 155.795 40.576 157.347 37.136C157.427 36.96 157.603 36.864 157.779 36.864C158.019 36.864 158.275 37.04 158.275 37.344C158.275 37.44 158.259 37.552 158.195 37.664ZM151.075 39.072C150.963 39.072 150.835 39.024 150.723 38.912C150.083 38.288 148.851 37.744 148.051 37.52C147.859 37.472 147.779 37.312 147.779 37.136C147.779 36.912 147.955 36.656 148.243 36.656C148.371 36.656 150.275 37.216 151.395 38.08C151.539 38.192 151.603 38.336 151.603 38.496C151.603 38.784 151.363 39.072 151.075 39.072ZM172.499 46.56V39.44H170.227C170.179 42.672 169.155 45.248 167.379 46.768C167.251 46.88 167.123 46.912 166.995 46.912C166.739 46.912 166.531 46.736 166.531 46.512C166.531 46.416 166.595 46.288 166.707 46.192C168.642 44.544 169.378 42.288 169.427 39.456H167.667C167.427 39.456 167.299 39.264 167.299 39.072C167.299 38.896 167.427 38.704 167.667 38.704L169.443 38.72C169.443 35.424 169.427 35.104 169.427 34.88H168.147C167.907 34.88 167.779 34.688 167.779 34.512C167.779 34.32 167.907 34.144 168.147 34.144H174.803C175.059 34.144 175.187 34.32 175.187 34.496C175.187 34.688 175.043 34.88 174.787 34.88H173.331V38.72L175.347 38.704C175.603 38.704 175.731 38.896 175.731 39.072C175.731 39.264 175.603 39.456 175.347 39.456L173.331 39.44L173.347 46.56C173.347 46.8 173.139 46.928 172.915 46.928C172.707 46.928 172.499 46.8 172.499 46.56ZM166.867 34.832H164.803C164.595 35.824 164.275 36.864 163.875 37.888C163.971 37.856 164.083 37.84 164.195 37.84C164.387 37.824 164.643 37.824 164.883 37.824C165.891 37.824 166.707 37.856 166.739 38.944C166.771 39.664 166.771 40.496 166.771 41.312C166.771 42.128 166.771 42.928 166.739 43.632C166.691 44.864 165.747 44.864 164.739 44.864C163.331 44.864 163.027 44.672 163.027 42.928C163.027 41.888 163.043 40.688 163.075 39.696C162.339 41.216 162.083 41.392 161.859 41.392C161.635 41.392 161.443 41.232 161.443 41.008C161.443 40.928 161.475 40.832 161.539 40.736C162.674 39.168 163.571 37.104 164.019 34.832H162.387C162.147 34.832 162.019 34.64 162.019 34.464C162.019 34.272 162.147 34.096 162.387 34.096H166.867C167.107 34.096 167.235 34.272 167.235 34.464C167.235 34.64 167.107 34.832 166.867 34.832ZM172.499 38.72L172.515 34.88H170.259C170.259 35.872 170.243 37.344 170.243 38.72H172.499ZM165.955 43.52C165.971 43.04 165.971 42.384 165.971 41.696C165.971 40.768 165.971 39.792 165.955 39.12C165.955 38.528 165.571 38.528 164.674 38.528C164.355 38.528 163.843 38.528 163.811 39.12C163.795 39.68 163.795 40.496 163.795 41.312C163.795 42.144 163.795 42.96 163.811 43.552C163.827 44.096 164.211 44.144 164.867 44.144C165.459 44.144 165.955 44.08 165.955 43.52ZM184.227 41.872C183.715 44.064 182.339 46.096 178.851 46.832C178.803 46.848 178.771 46.848 178.739 46.848C178.451 46.848 178.291 46.608 178.291 46.384C178.291 46.208 178.387 46.032 178.595 46C181.635 45.44 182.899 43.76 183.379 41.904L179.827 41.984C179.587 41.984 179.459 41.792 179.459 41.616C179.459 41.424 179.587 41.232 179.843 41.216L183.523 41.152C183.603 40.592 183.635 40.032 183.635 39.488C183.635 39.232 183.843 39.104 184.067 39.104C184.275 39.104 184.483 39.232 184.483 39.504C184.483 39.616 184.451 40.624 184.371 41.136C185.043 41.12 185.587 41.12 185.891 41.12C186.899 41.12 187.315 41.6 187.315 42.288V42.448C187.123 44.672 187.107 44.912 187.107 45.008C187.107 45.76 187.811 45.776 188.339 45.776C189.683 45.776 190.355 45.632 190.355 44.016V43.952C190.355 43.68 190.563 43.568 190.787 43.568C191.027 43.568 191.267 43.696 191.267 43.952C191.267 46.416 189.843 46.528 188.419 46.528C187.283 46.528 186.243 46.4 186.243 45.168V45.088C186.259 44.528 186.403 43.264 186.435 42.592V42.496C186.435 42.048 186.211 41.856 185.683 41.856C185.427 41.856 184.883 41.856 184.227 41.872ZM189.779 37.2V36.48C189.779 35.968 189.523 35.728 188.675 35.712C187.507 35.696 185.987 35.68 184.483 35.68C182.995 35.68 181.507 35.696 180.403 35.712C179.555 35.728 179.235 36.08 179.219 36.592C179.219 36.816 179.235 37.296 179.235 37.584C179.235 37.856 179.011 38 178.771 38C178.339 38 178.323 37.68 178.323 36.96C178.323 36.752 178.339 36.576 178.339 36.416C178.355 35.696 178.883 35.024 180.035 35.008C181.427 34.992 182.787 34.992 184.147 34.992L184.131 33.488C184.131 33.2 184.371 33.072 184.595 33.072C184.835 33.072 185.059 33.2 185.059 33.488L185.043 34.992C186.339 34.992 187.619 34.992 188.947 35.008C190.003 35.024 190.675 35.456 190.691 36.304V36.864C190.691 37.232 190.691 37.6 190.227 37.6C190.003 37.6 189.779 37.472 189.779 37.2ZM185.651 38.272V36.704C185.651 36.48 185.859 36.368 186.051 36.368C186.259 36.368 186.451 36.48 186.451 36.672V36.688C186.435 37.088 186.435 37.984 186.435 38.144C186.451 38.832 186.659 38.912 187.779 38.912C189.075 38.912 189.443 38.864 189.491 38.064C189.507 37.824 189.683 37.712 189.875 37.712C190.083 37.712 190.291 37.84 190.291 38.08C190.259 39.584 189.075 39.616 187.795 39.616C186.562 39.616 185.651 39.584 185.651 38.272ZM183.411 37.088C182.147 39.056 179.779 40 179.299 40C179.011 40 178.851 39.792 178.851 39.584C178.851 39.424 178.947 39.264 179.155 39.216C180.339 38.928 181.955 38.032 182.771 36.592C182.835 36.48 182.947 36.432 183.059 36.432C183.267 36.432 183.491 36.592 183.491 36.832C183.491 36.912 183.475 36.992 183.411 37.088ZM207.107 34.688L204.355 34.672C204.227 35.136 203.987 35.792 203.843 36.176C204.355 36.176 204.867 36.176 205.299 36.192C206.243 36.224 206.675 36.752 206.707 37.376C206.739 38.08 206.755 38.96 206.755 39.856C206.755 40.88 206.739 41.904 206.707 42.672C206.675 43.44 206.131 43.888 205.299 43.936C204.883 43.952 204.403 43.968 203.923 43.968C203.443 43.968 202.963 43.952 202.547 43.936C201.683 43.888 201.187 43.408 201.171 42.688C201.155 41.984 201.155 41.056 201.155 40.096C201.155 39.152 201.155 38.176 201.171 37.392C201.187 36.832 201.587 36.24 202.562 36.192C202.723 36.192 202.883 36.176 203.059 36.176C203.187 35.776 203.347 35.264 203.475 34.672L200.771 34.688C200.515 34.688 200.387 34.512 200.387 34.336C200.387 34.144 200.531 33.952 200.771 33.952H207.107C207.363 33.952 207.475 34.128 207.475 34.32C207.475 34.496 207.363 34.688 207.107 34.688ZM196.275 46.4L196.291 39.84C195.635 39.84 194.979 39.856 194.451 39.856C194.211 39.856 194.099 39.68 194.099 39.504C194.099 39.328 194.211 39.152 194.451 39.152C195.555 39.152 196.755 39.12 197.811 39.12H198.323C199.267 39.12 199.651 39.568 199.683 40.352C199.699 40.72 199.715 41.504 199.715 42.16C199.715 43.424 199.667 44.256 198.323 44.256C197.715 44.256 197.507 44.16 197.507 43.84C197.507 43.648 197.619 43.472 197.811 43.472H197.859C198.019 43.504 198.195 43.536 198.355 43.536C198.931 43.536 198.931 43.12 198.931 42.288C198.931 41.68 198.931 40.848 198.915 40.496C198.899 40.064 198.771 39.824 198.179 39.824H197.075L197.091 46.4C197.091 46.672 196.883 46.8 196.691 46.8C196.483 46.8 196.275 46.672 196.275 46.4ZM200.275 37.024C200.275 37.264 200.035 37.488 199.795 37.488C199.523 37.488 199.267 37.248 197.539 34.48C197.427 34.288 197.299 34.208 197.171 34.208C197.011 34.208 196.867 34.336 196.755 34.528C196.227 35.536 195.091 37.008 194.403 37.84C194.291 37.984 194.147 38.032 194.019 38.032C193.779 38.032 193.571 37.856 193.571 37.632C193.571 37.536 193.618 37.424 193.715 37.312C194.499 36.48 195.699 34.832 196.083 34.064C196.323 33.616 196.691 33.376 197.075 33.376C197.443 33.376 197.843 33.6 198.147 34.064C198.515 34.624 199.603 36.144 200.163 36.768C200.243 36.848 200.275 36.944 200.275 37.024ZM205.939 41.408H201.907C201.907 41.84 201.923 42.224 201.939 42.544C201.955 43.2 202.339 43.344 203.795 43.344C205.491 43.344 205.907 43.296 205.923 42.544C205.939 42.224 205.939 41.84 205.939 41.408ZM205.939 40.768V39.12H201.907V40.768H205.939ZM201.907 38.48H205.939C205.939 38.128 205.939 37.824 205.923 37.552C205.891 36.8 205.491 36.768 203.843 36.768C202.467 36.768 201.97 36.8 201.939 37.568C201.939 37.84 201.907 38.144 201.907 38.48ZM203.107 44.832C203.107 45.328 200.562 46.8 199.763 46.8C199.491 46.8 199.331 46.608 199.331 46.416C199.331 46.24 199.459 46.048 199.715 45.984C200.691 45.728 201.747 45.2 202.403 44.528C202.483 44.448 202.579 44.4 202.675 44.4C202.899 44.4 203.107 44.624 203.107 44.832ZM207.523 46.704C206.899 46.704 204.835 45.168 204.835 44.768C204.835 44.576 205.027 44.368 205.235 44.368C205.331 44.368 205.411 44.4 205.491 44.48C206.051 45.04 206.835 45.6 207.699 45.872C207.907 45.936 207.987 46.08 207.987 46.24C207.987 46.464 207.811 46.704 207.523 46.704ZM198.483 37.6H195.683C195.443 37.6 195.331 37.424 195.331 37.248C195.331 37.072 195.459 36.88 195.683 36.88H198.483C198.707 36.88 198.819 37.056 198.819 37.232C198.819 37.424 198.707 37.6 198.483 37.6ZM222.499 35.136C222.419 35.136 222.323 35.104 222.259 35.024C221.891 34.576 221.427 34.272 220.899 34C220.803 33.952 220.755 33.872 220.755 33.792C220.755 33.616 220.931 33.44 221.155 33.44C221.395 33.44 222.883 34.176 222.883 34.736C222.883 34.96 222.691 35.136 222.499 35.136ZM220.499 42.432V42.416C221.219 41.328 221.731 40.096 222.067 38.768C222.115 38.592 222.243 38.512 222.403 38.512C222.627 38.512 222.867 38.672 222.867 38.928C222.867 38.992 222.355 41.2 220.707 43.408C220.755 43.584 221.283 45.728 222.035 45.728C222.499 45.728 222.819 44.848 222.883 44.08C222.899 43.872 223.075 43.76 223.251 43.76C223.475 43.76 223.699 43.904 223.699 44.176C223.699 44.816 223.219 46.592 222.019 46.592C221.043 46.592 220.499 45.456 220.099 44.16C218.227 46.224 216.307 46.832 216.131 46.832C215.875 46.832 215.731 46.64 215.731 46.448C215.731 46.288 215.827 46.112 216.051 46.032C217.587 45.456 218.851 44.496 219.859 43.264C219.395 41.28 219.235 38.848 219.155 36.672L214.435 36.688C214.163 36.688 214.035 36.496 214.035 36.304C214.035 36.112 214.163 35.92 214.435 35.92L219.139 35.936C219.123 35.36 219.075 33.984 219.075 33.6C219.075 33.344 219.283 33.216 219.507 33.216C219.715 33.216 219.923 33.344 219.923 33.632C219.923 34.304 219.923 35.088 219.939 35.936L222.899 35.92C223.171 35.92 223.299 36.112 223.299 36.304C223.299 36.496 223.171 36.688 222.899 36.688L219.955 36.672C220.019 38.576 220.179 40.704 220.499 42.432ZM216.355 41.984C215.555 41.984 214.851 41.936 214.835 41.024C214.835 40.672 214.819 40.32 214.819 39.984C214.819 39.632 214.835 39.264 214.835 38.896C214.867 38 215.491 37.936 216.499 37.936C217.363 37.936 218.067 37.984 218.099 38.88C218.115 39.296 218.131 39.68 218.131 40.064C218.131 41.712 218.115 41.984 216.355 41.984ZM211.635 42.56V37.92H210.195C209.955 37.92 209.827 37.728 209.827 37.536C209.827 37.36 209.955 37.168 210.195 37.168L211.619 37.184V34.176C211.619 33.92 211.827 33.792 212.035 33.792C212.259 33.792 212.467 33.92 212.467 34.176L212.451 37.184L213.683 37.168C213.923 37.168 214.035 37.36 214.035 37.536C214.035 37.728 213.923 37.92 213.683 37.92H212.451V42.224C212.931 42.016 213.363 41.776 213.779 41.552C213.843 41.52 213.907 41.504 213.955 41.504C214.163 41.504 214.307 41.696 214.307 41.888C214.307 42.016 214.243 42.16 214.083 42.24C212.786 42.96 210.355 44 209.971 44C209.715 44 209.571 43.776 209.571 43.568C209.571 43.408 209.651 43.248 209.827 43.2C210.451 43.008 211.059 42.8 211.635 42.56ZM218.787 42.944C217.027 43.984 214.083 44.768 213.987 44.768C213.731 44.768 213.603 44.56 213.603 44.352C213.603 44.192 213.699 44.016 213.891 43.984C215.443 43.648 217.347 42.928 218.531 42.336C218.579 42.32 218.627 42.304 218.675 42.304C218.835 42.304 218.963 42.464 218.963 42.64C218.963 42.752 218.915 42.864 218.787 42.944ZM216.915 38.576H216.019C215.523 38.608 215.507 38.896 215.507 39.952C215.507 41.28 215.507 41.328 216.467 41.328C217.395 41.328 217.427 41.312 217.427 39.92C217.427 38.752 217.395 38.608 216.915 38.576Z" fill="#6A6A6A"/>
</svg>
