<svg width="222" height="19" viewBox="0 0 222 19" fill="none" xmlns="http://www.w3.org/2000/svg">
<path d="M6.76 2.94C4.42 5.4 1.94 6.82 1.54 6.82C1.22 6.82 1 6.58 1 6.34C1 6.18 1.08 6 1.3 5.9C3.46 4.78 5.52 3.1 7.22 0.839999C7.34 0.679999 7.5 0.599999 7.66 0.599999C7.96 0.599999 8.24 0.859999 8.24 1.12C8.24 1.26 8.14 1.42 7.5 2.12C8.46 2.1 9.62 2.06 10.42 2.06C11.34 2.06 11.84 2.56 11.84 3.2C11.84 3.5 11.74 3.84 11.52 4.16C7.48 10.16 0.76 11.44 0.68 11.44C0.34 11.44 0.12 11.18 0.12 10.92C0.12 10.7 0.28 10.48 0.62 10.4C2.86 9.92 5.12 8.92 7.04 7.5C6.4 6.92 5.74 6.54 4.84 6.22C4.72 6.18 4.68 6.08 4.68 5.98C4.68 5.74 4.92 5.42 5.26 5.42C5.74 5.42 7.14 6.22 7.82 6.88C9.76 5.2 10.66 3.58 10.66 3.28C10.66 3.04 10.46 2.92 10.06 2.92C9.42 2.92 8 2.92 6.76 2.94ZM10.26 9.74C7.04 12.72 4.02 13.82 3.76 13.82C3.42 13.82 3.22 13.56 3.22 13.3C3.22 13.1 3.36 12.88 3.62 12.78C6.46 11.72 9.02 9.9 11.14 7.32C11.26 7.16 11.42 7.1 11.56 7.1C11.86 7.1 12.16 7.38 12.16 7.66C12.16 7.82 12.04 7.96 11.14 8.92C12.18 8.9 13.42 8.86 14.38 8.86C15.36 8.86 15.84 9.34 15.84 9.96C15.84 10.22 15.76 10.5 15.6 10.78C11.62 17.6 3 18.2 2.48 18.2C2.1 18.2 1.9 17.94 1.9 17.66C1.9 17.4 2.1 17.14 2.48 17.12C5.32 16.92 8.2 16.02 10.52 14.54C9.8 14 8.86 13.44 7.94 13.1C7.8 13.04 7.74 12.94 7.74 12.8C7.74 12.56 8 12.24 8.34 12.24C8.74 12.24 10.64 13.26 11.38 13.94C13.56 12.34 14.56 10.5 14.56 10.14C14.56 9.9 14.38 9.72 13.94 9.72C13.12 9.72 11.58 9.72 10.26 9.74ZM41.14 15.48L35.8 15.46V15.52C35.76 17.14 34.94 18.1 33.28 18.1C31.84 18.1 31.6 17.76 31.6 17.46C31.6 17.22 31.74 17 32 17C32.04 17 32.08 17.02 32.12 17.02C32.58 17.14 32.98 17.2 33.3 17.2C34.48 17.2 34.8 16.48 34.84 15.46L28.5 15.48C28.24 15.48 28.12 15.28 28.12 15.08C28.12 14.88 28.24 14.68 28.5 14.68H34.86C34.86 14.28 34.84 13.88 34.78 13.46L29.66 13.48C29.4 13.48 29.28 13.28 29.28 13.08C29.28 12.88 29.4 12.68 29.66 12.68L34.62 12.7C34.5 12.26 34.32 11.86 34.06 11.52C33.2 11.54 32.38 11.56 31.58 11.56C31.02 11.56 30.48 11.54 29.98 11.54C29.68 11.54 29.54 11.32 29.54 11.12C29.54 10.9 29.68 10.7 29.98 10.7H30C30.92 10.74 31.8 10.76 32.68 10.76C34.66 10.76 36.62 10.66 38.9 10.36H39.02C39.3 10.36 39.44 10.54 39.44 10.74C39.44 10.94 39.3 11.16 39.12 11.18C37.8 11.34 36.38 11.44 35.02 11.5C35.26 11.84 35.44 12.24 35.56 12.7L40 12.68C40.26 12.68 40.38 12.88 40.38 13.08C40.38 13.28 40.26 13.48 40 13.48L35.7 13.46C35.76 13.86 35.78 14.26 35.8 14.68H41.14C41.4 14.68 41.52 14.88 41.52 15.08C41.52 15.28 41.4 15.48 41.14 15.48ZM33.32 2.56V1.28C33.32 0.899999 33.6 0.699999 33.88 0.699999C34.16 0.699999 34.44 0.899999 34.44 1.28V2.56C36.84 2.56 39.36 2.56 41.08 2.58C41.4 2.58 41.54 2.8 41.54 3.02C41.54 3.26 41.4 3.48 41.08 3.48C39.26 3.46 36.28 3.46 33.66 3.46C31.74 3.46 30.02 3.46 29.08 3.48C28.14 3.5 27.72 3.94 27.72 4.74C27.72 5.58 27.76 6.52 27.76 7.54C27.76 10.82 27.52 14.74 25.94 17.24C25.8 17.48 25.58 17.56 25.4 17.56C25.1 17.56 24.82 17.34 24.82 17.08C24.82 17 24.84 16.92 24.9 16.84C26.44 14.52 26.72 11.16 26.72 8.14C26.72 6.88 26.66 5.66 26.64 4.62V4.54C26.64 3.34 27.48 2.58 28.9 2.58C29.98 2.58 31.58 2.56 33.32 2.56ZM40.52 6.24L38.16 6.22C39.12 7.2 40.14 7.92 41.34 8.5C41.52 8.58 41.58 8.72 41.58 8.86C41.58 9.1 41.38 9.32 41.1 9.32C40.7 9.32 39.18 8.26 38.04 7.06L38.08 9.54C38.08 9.8 37.86 9.94 37.64 9.94C37.4 9.94 37.18 9.8 37.18 9.54L37.22 7.02C36.08 8.26 34.52 9.58 34.1 9.58C33.84 9.58 33.64 9.36 33.64 9.16C33.64 9.04 33.7 8.92 33.84 8.84C34.88 8.26 36.06 7.34 37.08 6.22L35.02 6.24C34.76 6.24 34.64 6.06 34.64 5.88C34.64 5.68 34.78 5.48 35.04 5.48L37.2 5.5L37.18 4.38C37.18 4.28 37.2 3.98 37.66 3.98C37.86 3.98 38.08 4.1 38.08 4.34V4.36L38.06 5.5L40.52 5.48C40.8 5.48 40.94 5.66 40.94 5.86C40.94 6.04 40.8 6.24 40.52 6.24ZM31.1 9.56L31.14 7.04C30.36 7.98 28.94 9.28 28.58 9.28C28.36 9.28 28.14 9.08 28.14 8.88C28.14 8.78 28.2 8.66 28.34 8.58C29.32 7.96 30.18 7.18 30.98 6.22L29.08 6.24C28.82 6.24 28.68 6.06 28.68 5.86C28.68 5.68 28.82 5.48 29.1 5.48L31.12 5.5L31.1 4.38V4.36C31.1 4.12 31.34 3.98 31.56 3.98C31.78 3.98 32 4.1 32 4.36L31.98 5.5L33.86 5.48C34.12 5.48 34.26 5.66 34.26 5.86C34.26 6.04 34.12 6.24 33.86 6.24L31.96 6.22V6.44L31.98 9.56C31.98 9.82 31.76 9.96 31.54 9.96C31.32 9.96 31.1 9.82 31.1 9.56ZM33.88 8.34C33.8 8.34 33.72 8.3 33.64 8.24C33.22 7.88 32.72 7.7 32.22 7.54C32.1 7.5 32.04 7.4 32.04 7.3C32.04 7.12 32.18 6.94 32.44 6.94C32.8 6.94 34.3 7.42 34.3 7.9C34.3 8.12 34.1 8.34 33.88 8.34ZM66.8 9.88L59.24 9.86L51.66 9.88C51.34 9.88 51.18 9.64 51.18 9.42C51.18 9.18 51.34 8.96 51.64 8.96L58.64 8.98V6.96L53.64 6.98C53.34 6.98 53.2 6.76 53.2 6.54C53.2 6.32 53.34 6.1 53.64 6.1L58.64 6.12V4.2L52.48 4.22C52.18 4.22 52.04 4 52.04 3.78C52.04 3.56 52.18 3.34 52.48 3.34H56.82C56.78 3.3 56.74 3.26 56.72 3.2C56.34 2.42 55.84 1.9 55.28 1.36C55.22 1.3 55.18 1.22 55.18 1.14C55.18 0.92 55.44 0.679999 55.74 0.679999C56.3 0.679999 57.66 2.34 57.66 2.88C57.66 3.08 57.56 3.24 57.42 3.34H60.58C61.1 2.6 61.58 1.56 61.84 0.939999C61.94 0.679999 62.16 0.579999 62.36 0.579999C62.66 0.579999 62.94 0.779999 62.94 1.08C62.94 1.5 61.88 3 61.64 3.34H65.92C66.2 3.34 66.34 3.56 66.34 3.78C66.34 4 66.2 4.22 65.92 4.22L59.72 4.2V6.12L64.76 6.1C65.04 6.1 65.18 6.32 65.18 6.54C65.18 6.76 65.04 6.98 64.76 6.98L59.72 6.96V8.98L66.8 8.96C67.1 8.96 67.24 9.18 67.24 9.42C67.24 9.64 67.1 9.88 66.8 9.88ZM66.72 13.08L60.06 13.02C61.24 15.04 63.6 16.68 66.98 16.78C67.38 16.78 67.56 17.04 67.56 17.32C67.56 17.6 67.34 17.9 66.92 17.9C66.4 17.9 61.52 17.54 59.18 13.36C57.36 17.68 51.56 18.06 51.44 18.06C51.08 18.06 50.9 17.8 50.9 17.52C50.9 17.28 51.04 17.06 51.36 17.02C55.14 16.58 57.34 15.18 58.22 13.02L51.74 13.08C51.44 13.08 51.3 12.86 51.3 12.62C51.3 12.38 51.46 12.14 51.76 12.14L58.5 12.16C58.6 11.72 58.66 11.24 58.68 10.74C58.68 10.36 58.96 10.18 59.22 10.18C59.5 10.18 59.76 10.36 59.76 10.66C59.76 10.88 59.6 12 59.56 12.16L66.7 12.14C67 12.14 67.14 12.38 67.14 12.62C67.14 12.86 67 13.08 66.72 13.08ZM83.98 17.4L84 5.74H81.64C81.32 5.74 81.16 5.5 81.16 5.28C81.16 5.04 81.32 4.8 81.64 4.8L84 4.82L83.98 1.76C83.98 1.42 84.24 1.24 84.52 1.24C84.78 1.24 85.04 1.42 85.04 1.76L85.02 4.82L87.6 4.8C87.92 4.8 88.06 5.04 88.06 5.26C88.06 5.5 87.92 5.74 87.6 5.74H85.02L85.04 17.4C85.04 17.72 84.78 17.88 84.5 17.88C84.24 17.88 83.98 17.72 83.98 17.4ZM91.4 13.6L91.42 15.68V15.74C91.42 16.9 90.94 17.96 88.92 17.96C88.48 17.96 87.98 17.9 87.38 17.8C87.1 17.74 86.96 17.52 86.96 17.28C86.96 17.02 87.14 16.74 87.42 16.74H87.5C88.08 16.84 88.56 16.92 88.98 16.92C89.84 16.92 90.32 16.6 90.32 15.58C90.32 14.18 90.34 9.86 90.34 7.92L88.06 7.94C87.76 7.94 87.6 7.7 87.6 7.46C87.6 7.22 87.76 6.98 88.06 6.98H92.96C93.28 6.98 93.44 7.22 93.44 7.46C93.44 7.7 93.28 7.94 92.96 7.94L91.38 7.92C91.38 9.36 91.38 12.66 91.4 13.6ZM78.1 17.74V17.72L78.38 9.12C77.78 9.7 76.42 10.92 76.02 10.92C75.72 10.92 75.52 10.66 75.52 10.42C75.52 10.24 75.6 10.08 75.8 9.96C77.24 9.08 78.92 7.34 79.92 5.7C80.02 5.52 80.18 5.44 80.34 5.44C80.62 5.44 80.9 5.7 80.9 6C80.9 6.26 80.2 7.14 79.4 8.06L79.18 17.72C79.16 18.04 78.9 18.2 78.62 18.2C78.36 18.2 78.1 18.06 78.1 17.74ZM76.3 6.46C76 6.46 75.76 6.2 75.76 5.94C75.76 5.78 75.86 5.62 76.06 5.5C77.42 4.72 79.06 2.92 79.88 1.58C80 1.4 80.14 1.32 80.3 1.32C80.58 1.32 80.86 1.56 80.86 1.86C80.86 2.5 77.22 6.46 76.3 6.46ZM81.56 14.14C81.42 14.42 81.2 14.54 80.98 14.54C80.74 14.54 80.5 14.36 80.5 14.08C80.5 14 80.52 13.88 80.58 13.78C81.28 12.36 81.76 10.18 81.86 8.62C81.88 8.34 82.1 8.22 82.32 8.22C82.56 8.22 82.82 8.38 82.82 8.72C82.8 10.34 82.18 12.88 81.56 14.14ZM87.64 14.02C87.4 14.02 87.18 13.86 87.14 13.52C86.98 11.86 86.52 10.12 85.92 8.72C85.9 8.66 85.88 8.6 85.88 8.54C85.88 8.28 86.12 8.12 86.36 8.12C86.52 8.12 86.68 8.2 86.78 8.38C87.38 9.48 88.18 12.34 88.18 13.4C88.18 13.8 87.9 14.02 87.64 14.02ZM92.44 3.32H88.82C88.5 3.32 88.32 3.08 88.32 2.82C88.32 2.58 88.5 2.34 88.82 2.34H92.44C92.78 2.34 92.94 2.58 92.94 2.82C92.94 3.08 92.78 3.32 92.44 3.32ZM87.32 4.02C87.2 4.02 87.08 3.96 87.02 3.84C86.66 3.14 86.26 2.8 85.68 2.34C85.62 2.28 85.58 2.22 85.58 2.14C85.58 1.94 85.8 1.7 86.06 1.7C86.56 1.7 87.84 3.04 87.84 3.48C87.84 3.78 87.56 4.02 87.32 4.02ZM118.08 7.26L111.12 7.22C112.06 11.68 115.36 15.14 118.74 16.44C119 16.54 119.1 16.74 119.1 16.96C119.1 17.3 118.84 17.66 118.44 17.66C117.42 17.66 112 14.24 110.52 8.58C108.76 15.58 102.78 17.88 102.42 17.88C102.06 17.88 101.82 17.58 101.82 17.26C101.82 17.08 101.92 16.88 102.16 16.78C107 14.72 109.06 11.1 109.7 7.22L102.68 7.26C102.34 7.26 102.16 7 102.16 6.74C102.16 6.5 102.34 6.24 102.68 6.24H109.84C109.88 5.94 109.92 5.3 109.92 3.9C109.92 3.12 109.92 2.26 109.9 1.76V1.74C109.9 1.4 110.2 1.22 110.5 1.22C110.82 1.22 111.12 1.4 111.12 1.78C111.12 3.56 110.98 5.9 110.94 6.24H118.08C118.44 6.24 118.6 6.5 118.6 6.74C118.6 7 118.44 7.26 118.08 7.26ZM144.02 12.74L138.06 12.72C138.16 13.14 138.22 13.6 138.22 14.04C138.22 15.92 137.28 18.2 134.34 18.2C132.4 18.2 132.32 17.68 132.32 17.46C132.32 17.18 132.52 16.92 132.84 16.92C132.88 16.92 132.94 16.92 133 16.94C133.48 17.08 134 17.2 134.52 17.2C137.08 17.2 137.2 14.46 137.2 13.9C137.2 13.5 137.14 13.1 137.02 12.72L128.04 12.74C127.72 12.74 127.56 12.5 127.56 12.26C127.56 12 127.72 11.76 128.02 11.76L136.58 11.8C136.2 11.26 135.64 10.82 134.88 10.54C134.64 10.46 134.54 10.32 134.54 10.18C134.54 9.94 134.82 9.7 135.14 9.7C135.2 9.7 135.28 9.72 135.34 9.74C135.74 9.88 136.1 10.06 136.42 10.28C136.96 9.94 138.86 8.64 138.86 8.2C138.86 7.92 138.48 7.92 137.6 7.92C136.22 7.92 133.56 7.94 131.98 7.98H131.96C131.64 7.98 131.48 7.76 131.48 7.54C131.48 7.3 131.66 7.06 131.98 7.06C132.8 7.04 133.76 7.02 134.74 7.02C136.26 7.02 137.78 7.04 138.76 7.06C139.7 7.08 140.08 7.54 140.08 8.04C140.08 8.46 139.94 9.14 137.12 10.9C137.36 11.16 137.56 11.48 137.72 11.8L144.02 11.76C144.32 11.76 144.48 12 144.48 12.24C144.48 12.5 144.32 12.74 144.02 12.74ZM142.46 8.04V6.42C142.44 5.66 142.1 5.26 141.12 5.26C139.64 5.24 137.76 5.24 135.9 5.24C134.06 5.24 132.24 5.24 130.84 5.26C129.86 5.26 129.5 5.62 129.48 6.4V8.06C129.48 8.38 129.2 8.54 128.92 8.54C128.36 8.54 128.36 8.24 128.36 7.08C128.36 6.72 128.38 6.32 128.38 6.02C128.4 5.22 129 4.4 130.48 4.38C132.42 4.36 134.26 4.36 136.12 4.36H138.44C139.14 3.5 139.9 2.1 140.28 1.26C140.4 1 140.6 0.899999 140.8 0.899999C141.1 0.899999 141.42 1.14 141.42 1.46C141.42 1.74 140.36 3.34 139.54 4.36C140.18 4.36 140.84 4.38 141.5 4.38C142.78 4.4 143.56 5.06 143.58 6.02C143.6 6.26 143.6 6.66 143.6 7.04C143.6 7.4 143.6 7.78 143.58 8C143.56 8.34 143.28 8.52 143 8.52C142.72 8.52 142.46 8.36 142.46 8.04ZM137 3.02C137 3.34 136.64 3.6 136.36 3.6C136.2 3.6 136.06 3.54 136 3.36C135.64 2.46 135.18 1.98 134.54 1.28C134.48 1.22 134.46 1.16 134.46 1.08C134.46 0.859999 134.74 0.619999 135.04 0.619999C135.62 0.619999 137 2.62 137 3.02ZM132.62 3.82C132.48 3.82 132.36 3.76 132.26 3.6C131.74 2.74 131.2 2.38 130.52 1.82C130.44 1.74 130.4 1.66 130.4 1.58C130.4 1.34 130.66 1.08 130.96 1.08C131.48 1.08 133.18 2.72 133.18 3.22C133.18 3.54 132.88 3.82 132.62 3.82ZM169.28 7.26L162.32 7.22C163.26 11.68 166.56 15.14 169.94 16.44C170.2 16.54 170.3 16.74 170.3 16.96C170.3 17.3 170.04 17.66 169.64 17.66C168.62 17.66 163.2 14.24 161.72 8.58C159.96 15.58 153.98 17.88 153.62 17.88C153.26 17.88 153.02 17.58 153.02 17.26C153.02 17.08 153.12 16.88 153.36 16.78C158.2 14.72 160.26 11.1 160.9 7.22L153.88 7.26C153.54 7.26 153.36 7 153.36 6.74C153.36 6.5 153.54 6.24 153.88 6.24H161.04C161.08 5.94 161.12 5.3 161.12 3.9C161.12 3.12 161.12 2.26 161.1 1.76V1.74C161.1 1.4 161.4 1.22 161.7 1.22C162.02 1.22 162.32 1.4 162.32 1.78C162.32 3.56 162.18 5.9 162.14 6.24H169.28C169.64 6.24 169.8 6.5 169.8 6.74C169.8 7 169.64 7.26 169.28 7.26ZM195.22 12.74L189.26 12.72C189.36 13.14 189.42 13.6 189.42 14.04C189.42 15.92 188.48 18.2 185.54 18.2C183.6 18.2 183.52 17.68 183.52 17.46C183.52 17.18 183.72 16.92 184.04 16.92C184.08 16.92 184.14 16.92 184.2 16.94C184.68 17.08 185.2 17.2 185.72 17.2C188.28 17.2 188.4 14.46 188.4 13.9C188.4 13.5 188.34 13.1 188.22 12.72L179.24 12.74C178.92 12.74 178.76 12.5 178.76 12.26C178.76 12 178.92 11.76 179.22 11.76L187.78 11.8C187.4 11.26 186.84 10.82 186.08 10.54C185.84 10.46 185.74 10.32 185.74 10.18C185.74 9.94 186.02 9.7 186.34 9.7C186.4 9.7 186.48 9.72 186.54 9.74C186.94 9.88 187.3 10.06 187.62 10.28C188.16 9.94 190.06 8.64 190.06 8.2C190.06 7.92 189.68 7.92 188.8 7.92C187.42 7.92 184.76 7.94 183.18 7.98H183.16C182.84 7.98 182.68 7.76 182.68 7.54C182.68 7.3 182.86 7.06 183.18 7.06C184 7.04 184.96 7.02 185.94 7.02C187.46 7.02 188.98 7.04 189.96 7.06C190.9 7.08 191.28 7.54 191.28 8.04C191.28 8.46 191.14 9.14 188.32 10.9C188.56 11.16 188.76 11.48 188.92 11.8L195.22 11.76C195.52 11.76 195.68 12 195.68 12.24C195.68 12.5 195.52 12.74 195.22 12.74ZM193.66 8.04V6.42C193.64 5.66 193.3 5.26 192.32 5.26C190.84 5.24 188.96 5.24 187.1 5.24C185.26 5.24 183.44 5.24 182.04 5.26C181.06 5.26 180.7 5.62 180.68 6.4V8.06C180.68 8.38 180.4 8.54 180.12 8.54C179.56 8.54 179.56 8.24 179.56 7.08C179.56 6.72 179.58 6.32 179.58 6.02C179.6 5.22 180.2 4.4 181.68 4.38C183.62 4.36 185.46 4.36 187.32 4.36H189.64C190.34 3.5 191.1 2.1 191.48 1.26C191.6 1 191.8 0.899999 192 0.899999C192.3 0.899999 192.62 1.14 192.62 1.46C192.62 1.74 191.56 3.34 190.74 4.36C191.38 4.36 192.04 4.38 192.7 4.38C193.98 4.4 194.76 5.06 194.78 6.02C194.8 6.26 194.8 6.66 194.8 7.04C194.8 7.4 194.8 7.78 194.78 8C194.76 8.34 194.48 8.52 194.2 8.52C193.92 8.52 193.66 8.36 193.66 8.04ZM188.2 3.02C188.2 3.34 187.84 3.6 187.56 3.6C187.4 3.6 187.26 3.54 187.2 3.36C186.84 2.46 186.38 1.98 185.74 1.28C185.68 1.22 185.66 1.16 185.66 1.08C185.66 0.859999 185.94 0.619999 186.24 0.619999C186.82 0.619999 188.2 2.62 188.2 3.02ZM183.82 3.82C183.68 3.82 183.56 3.76 183.46 3.6C182.94 2.74 182.4 2.38 181.72 1.82C181.64 1.74 181.6 1.66 181.6 1.58C181.6 1.34 181.86 1.08 182.16 1.08C182.68 1.08 184.38 2.72 184.38 3.22C184.38 3.54 184.08 3.82 183.82 3.82ZM205.12 3.1C205.16 1.5 206.2 1.48 207.64 1.48C208.82 1.48 209.98 1.52 209.98 2.8C209.98 3.1 209.92 3.68 209.04 5.64C208.86 6.02 208.78 6.3 208.78 6.56C208.78 6.92 208.94 7.22 209.24 7.7C209.84 8.7 210.14 9.38 210.14 10.54C210.14 12.5 208.88 13.28 207.76 13.28C206.98 13.28 206.66 13.04 206.66 12.68C206.66 12.42 206.82 12.18 207.06 12.18C207.08 12.18 207.12 12.2 207.16 12.2C207.34 12.26 207.52 12.28 207.68 12.28C207.8 12.28 209.14 12.26 209.14 10.46C209.14 9.4 208.7 8.52 208.26 7.82C207.96 7.36 207.84 7 207.84 6.6C207.84 6.28 207.94 5.94 208.1 5.5C208.86 3.48 208.9 3.1 208.9 2.94C208.9 2.62 208.74 2.36 207.86 2.36C207.56 2.36 207.2 2.38 206.98 2.38C206.38 2.4 206.14 2.72 206.14 3.28C206.1 6.6 206.12 12.92 206.1 17.7C206.1 18.06 205.84 18.24 205.58 18.24C205.3 18.24 205.02 18.06 205.02 17.7C205.02 14 205.06 6.98 205.12 3.1ZM220.44 14.56C220.44 14.26 220.68 14.1 220.94 14.1C221.22 14.1 221.5 14.28 221.5 14.6V14.74C221.5 17.2 220.8 17.76 218.66 17.76C217.5 17.76 216.4 17.46 216.4 15.94C216.4 15.2 216.42 11.5 216.46 10.42L211.14 10.44C210.84 10.44 210.68 10.22 210.68 9.98C210.68 9.76 210.84 9.52 211.14 9.52H220.78C221.06 9.52 221.2 9.76 221.2 9.98C221.2 10.22 221.06 10.44 220.78 10.44L217.52 10.42C217.52 11.5 217.44 14.4 217.44 15.48C217.44 16.44 217.5 16.76 218.76 16.76C220.1 16.76 220.44 16.48 220.44 14.82V14.56ZM220.14 6.6V5.34C220.14 4.56 219.7 4.28 218.9 4.28H213.06C212.1 4.3 211.84 4.62 211.82 5.32V6.64C211.82 6.94 211.56 7.08 211.3 7.08C211.04 7.08 210.78 6.94 210.78 6.64V5.6C210.78 4.5 210.8 3.4 212.72 3.38C213.5 3.36 214.42 3.36 215.34 3.36L215.32 1.3C215.32 0.959999 215.6 0.799999 215.88 0.799999C216.16 0.799999 216.44 0.959999 216.44 1.3L216.42 3.34C217.42 3.34 218.4 3.36 219.28 3.38C221.16 3.44 221.22 4.58 221.22 5.9C221.22 6.78 221.2 7.04 220.66 7.04C220.4 7.04 220.14 6.88 220.14 6.6ZM209.68 18.02C209.58 18.06 209.48 18.08 209.4 18.08C209.06 18.08 208.86 17.82 208.86 17.56C208.86 17.36 208.98 17.14 209.24 17.06C212.16 16.04 213.34 14.36 213.76 11.56C213.82 11.24 214.04 11.12 214.26 11.12C214.54 11.12 214.82 11.32 214.82 11.6V11.7C214.28 14.64 213.08 16.8 209.68 18.02ZM218.76 7.38H213.18C212.88 7.38 212.72 7.14 212.72 6.92C212.72 6.7 212.86 6.48 213.16 6.48H218.76C219.04 6.48 219.18 6.7 219.18 6.92C219.18 7.16 219.04 7.38 218.76 7.38Z" fill="#6A6A6A"/>
</svg>
