<svg width="15" height="119" viewBox="0 0 15 119" fill="none" xmlns="http://www.w3.org/2000/svg">
<path d="M14.416 10.592L9.648 10.576C9.728 10.912 9.776 11.28 9.776 11.632C9.776 13.136 9.024 14.96 6.672 14.96C5.12 14.96 5.056 14.544 5.056 14.368C5.056 14.144 5.216 13.936 5.472 13.936C5.504 13.936 5.552 13.936 5.6 13.952C5.984 14.064 6.4 14.16 6.816 14.16C8.864 14.16 8.96 11.968 8.96 11.52C8.96 11.2 8.912 10.88 8.816 10.576L1.632 10.592C1.376 10.592 1.248 10.4 1.248 10.208C1.248 10 1.376 9.808 1.616 9.808L8.464 9.84C8.16 9.408 7.712 9.056 7.104 8.832C6.912 8.768 6.832 8.656 6.832 8.544C6.832 8.352 7.056 8.16 7.312 8.16C7.36 8.16 7.424 8.176 7.472 8.192C7.792 8.304 8.08 8.448 8.336 8.624C8.768 8.352 10.288 7.312 10.288 6.96C10.288 6.736 9.984 6.736 9.28 6.736C8.176 6.736 6.048 6.752 4.784 6.784H4.768C4.512 6.784 4.384 6.608 4.384 6.432C4.384 6.24 4.528 6.048 4.784 6.048C5.44 6.032 6.208 6.016 6.992 6.016C8.208 6.016 9.424 6.032 10.208 6.048C10.96 6.064 11.264 6.432 11.264 6.832C11.264 7.168 11.152 7.712 8.896 9.12C9.088 9.328 9.248 9.584 9.376 9.84L14.416 9.808C14.656 9.808 14.784 10 14.784 10.192C14.784 10.4 14.656 10.592 14.416 10.592ZM13.168 6.832V5.536C13.152 4.928 12.88 4.608 12.096 4.608C10.912 4.592 9.408 4.592 7.92 4.592C6.448 4.592 4.992 4.592 3.872 4.608C3.088 4.608 2.8 4.896 2.784 5.52V6.848C2.784 7.104 2.56 7.232 2.336 7.232C1.888 7.232 1.888 6.992 1.888 6.064C1.888 5.776 1.904 5.456 1.904 5.216C1.92 4.576 2.4 3.92 3.584 3.904C5.136 3.888 6.608 3.888 8.096 3.888H9.952C10.512 3.2 11.12 2.08 11.424 1.408C11.52 1.2 11.68 1.12 11.84 1.12C12.08 1.12 12.336 1.312 12.336 1.568C12.336 1.792 11.488 3.072 10.832 3.888C11.344 3.888 11.872 3.904 12.4 3.904C13.424 3.92 14.048 4.448 14.064 5.216C14.08 5.408 14.08 5.728 14.08 6.032C14.08 6.32 14.08 6.624 14.064 6.8C14.048 7.072 13.824 7.216 13.6 7.216C13.376 7.216 13.168 7.088 13.168 6.832ZM8.8 2.816C8.8 3.072 8.512 3.28 8.288 3.28C8.16 3.28 8.048 3.232 8 3.088C7.712 2.368 7.344 1.984 6.832 1.424C6.784 1.376 6.768 1.328 6.768 1.264C6.768 1.088 6.992 0.895999 7.232 0.895999C7.696 0.895999 8.8 2.496 8.8 2.816ZM5.296 3.456C5.184 3.456 5.088 3.408 5.008 3.28C4.592 2.592 4.16 2.304 3.616 1.856C3.552 1.792 3.52 1.728 3.52 1.664C3.52 1.472 3.728 1.264 3.968 1.264C4.384 1.264 5.744 2.576 5.744 2.976C5.744 3.232 5.504 3.456 5.296 3.456ZM5.952 60.736C5.328 60.32 4.608 60.016 3.808 59.776C3.664 59.728 3.6 59.6 3.6 59.472C3.6 59.248 3.76 59.008 4.048 59.008C4.256 59.008 5.376 59.392 6.256 59.952C6.752 58.576 7.008 57.104 7.008 56.592C7.008 56.176 6.848 56 6.368 56H6.32L4.496 56.048C3.872 57.808 3.04 59.488 1.92 60.88C1.792 61.04 1.648 61.088 1.504 61.088C1.28 61.088 1.072 60.912 1.072 60.688C1.072 60.592 1.104 60.496 1.184 60.4C2.768 58.608 3.728 56.256 4.32 53.664C4.384 53.408 4.56 53.296 4.736 53.296C4.96 53.296 5.2 53.472 5.2 53.712C5.2 53.808 5.008 54.512 4.752 55.312C5.36 55.296 6.048 55.264 6.512 55.264C7.392 55.264 7.872 55.616 7.872 56.432C7.872 56.528 7.872 56.624 7.856 56.736C7.04 63.296 2.688 66.688 2 66.688C1.728 66.688 1.52 66.48 1.52 66.256C1.52 66.112 1.6 65.968 1.792 65.856C3.76 64.688 5.12 62.704 5.952 60.736ZM9.984 66.448L10.016 59.984C9.712 59.76 7.904 58.32 7.904 57.952C7.904 57.744 8.112 57.536 8.304 57.536C8.384 57.536 8.464 57.568 8.528 57.632C9.04 58.16 9.536 58.624 10.016 59.024L9.984 53.904C9.984 53.632 10.192 53.504 10.416 53.504C10.624 53.504 10.848 53.632 10.848 53.904L10.832 59.616C12.032 60.464 13.248 61.024 14.672 61.632C14.88 61.712 14.96 61.888 14.96 62.048C14.96 62.288 14.8 62.512 14.512 62.512C14.256 62.512 12.496 61.712 10.816 60.56L10.848 66.448C10.848 66.688 10.64 66.816 10.416 66.816C10.208 66.816 9.984 66.688 9.984 66.448ZM3.712 108.816V109.824C3.712 112.272 3.584 116.224 1.616 118.464C1.504 118.592 1.36 118.656 1.216 118.656C1.008 118.656 0.816 118.496 0.816 118.304C0.816 118.224 0.848 118.128 0.912 118.048C2.528 116.032 2.896 113.44 2.896 110.176C2.896 109.152 2.864 108.144 2.832 107.12V107.088C2.832 106.336 3.28 105.696 4.416 105.68C5.456 105.664 6.72 105.648 7.984 105.648C9.248 105.648 10.496 105.664 11.488 105.68C12.912 105.696 13.136 106.256 13.136 107.344C13.136 108.112 13.024 108.752 11.456 108.784C9.984 108.8 7.824 108.816 5.808 108.816H3.712ZM13.504 114.144L9.04 114.112C9.28 114.848 9.616 115.472 10.032 116C10.048 115.984 10.048 115.984 10.064 115.984H10.096C10.768 115.712 11.536 115.312 12.32 114.88C12.368 114.848 12.432 114.832 12.48 114.832C12.688 114.832 12.88 115.04 12.88 115.232C12.88 115.552 12.352 115.76 10.48 116.496C11.328 117.296 12.48 117.808 14.064 118.048C14.256 118.08 14.368 118.24 14.368 118.416C14.368 118.624 14.224 118.832 13.904 118.832C13.856 118.832 9.488 118.464 8.352 114.112L6.784 114.128V117.504C7.616 117.28 8.432 117.04 8.944 116.816C8.992 116.8 9.04 116.784 9.088 116.784C9.264 116.784 9.408 116.96 9.408 117.136C9.408 117.264 9.344 117.392 9.168 117.472C7.568 118.144 4.128 118.912 3.984 118.912C3.728 118.912 3.584 118.72 3.584 118.528C3.584 118.368 3.696 118.192 3.936 118.144C4.432 118.048 5.2 117.888 6 117.696V114.128L4.176 114.144C3.936 114.144 3.808 113.968 3.808 113.792C3.808 113.616 3.936 113.44 4.176 113.44L6.576 113.456V111.584L4.864 111.6C4.608 111.6 4.496 111.424 4.496 111.264C4.496 111.072 4.624 110.896 4.864 110.896L6.576 110.912V109.584C6.576 109.376 6.768 109.28 6.976 109.28C7.168 109.28 7.36 109.376 7.36 109.584V110.912H9.872V109.584C9.872 109.376 10.064 109.28 10.272 109.28C10.464 109.28 10.656 109.376 10.656 109.584V110.912L12.848 110.896C13.088 110.896 13.216 111.072 13.216 111.248C13.216 111.424 13.088 111.6 12.848 111.6L10.656 111.584V113.456L13.504 113.44C13.744 113.44 13.872 113.616 13.872 113.792C13.872 113.968 13.744 114.144 13.504 114.144ZM3.68 107.296L3.696 108.112C4.928 108.128 6.4 108.144 7.792 108.144C9.2 108.144 10.512 108.128 11.424 108.096C12.032 108.08 12.24 107.904 12.256 107.536C12.256 106.656 12.256 106.368 11.376 106.368C10.224 106.352 8.752 106.352 7.376 106.352C6.352 106.352 5.392 106.352 4.624 106.368C4.016 106.384 3.68 106.704 3.68 107.264V107.296ZM9.872 113.456V111.584H7.36V113.456H9.872Z" fill="#6A6A6A"/>
</svg>
