<svg width="158" height="15" viewBox="0 0 158 15" fill="none" xmlns="http://www.w3.org/2000/svg">
<path d="M12.672 12.216V11.112H7.92C7.92 12.008 7.936 12.904 7.952 13.656V13.672C7.952 13.912 7.76 14.04 7.552 14.04C7.344 14.04 7.12 13.896 7.12 13.64C7.12 12.76 7.104 11.784 7.104 10.808C7.104 9.832 7.12 8.856 7.12 8.008C7.12 7.24 7.52 6.76 8.64 6.728C9.168 6.712 9.712 6.696 10.272 6.696C10.832 6.696 11.392 6.712 11.92 6.728C12.944 6.76 13.44 7.208 13.456 7.928C13.456 8.152 13.472 10.456 13.488 10.968C13.504 11.512 13.504 11.864 13.504 12.312V12.376C13.504 13.064 13.264 13.848 11.808 13.848C11.008 13.848 10.4 13.752 10.4 13.336C10.4 13.144 10.544 12.952 10.768 12.952C10.8 12.952 10.832 12.968 10.864 12.968C11.216 13.032 11.536 13.08 11.792 13.08C12.336 13.08 12.656 12.872 12.672 12.216ZM14.736 5.752H6.08C5.84 5.752 5.712 5.576 5.712 5.416C5.712 5.24 5.84 5.08 6.064 5.08L9.888 5.096V3.864L7.184 3.88C6.944 3.88 6.832 3.72 6.832 3.56C6.832 3.4 6.96 3.224 7.184 3.224L9.888 3.24V2.168H6.608C6.368 2.168 6.256 2.008 6.256 1.848C6.256 1.656 6.384 1.48 6.624 1.48H9.888V0.407999C9.888 0.136 10.096 0.00799942 10.304 0.00799942C10.512 0.00799942 10.72 0.136 10.72 0.407999V1.48H14.176C14.416 1.48 14.528 1.656 14.528 1.816C14.528 1.992 14.416 2.168 14.176 2.168H10.72V3.24L13.376 3.224C13.6 3.224 13.712 3.384 13.712 3.544C13.712 3.72 13.6 3.88 13.376 3.88L10.704 3.864V5.096L14.736 5.08C14.96 5.08 15.072 5.24 15.072 5.416C15.072 5.576 14.96 5.752 14.736 5.752ZM3.264 13.512V0.615999C3.264 0.344 3.488 0.216 3.696 0.216C3.92 0.216 4.128 0.344 4.128 0.615999V13.512C4.128 13.768 3.92 13.896 3.696 13.896C3.488 13.896 3.264 13.768 3.264 13.512ZM12.656 9.24H7.92V10.488H12.672C12.672 10.072 12.656 9.656 12.656 9.24ZM7.936 8.616H12.64C12.64 8.424 12.624 8.248 12.624 8.072C12.608 7.688 12.416 7.384 11.76 7.368C11.312 7.352 10.752 7.352 10.224 7.352C9.696 7.352 9.184 7.352 8.8 7.368C8.144 7.384 7.952 7.704 7.952 8.072L7.936 8.616ZM1.184 6.968C0.976 6.968 0.784 6.824 0.784 6.6C0.784 6.52 0.816 6.424 0.88 6.312C1.328 5.576 1.568 4.552 1.568 3.656C1.568 3.4 1.744 3.288 1.92 3.288C2.08 3.288 2.352 3.352 2.352 3.768C2.352 4.456 1.936 6.968 1.184 6.968ZM5.808 4.584C5.68 4.584 5.552 4.52 5.488 4.36C5.216 3.784 4.704 3.192 4.512 2.984C4.448 2.92 4.432 2.856 4.432 2.792C4.432 2.616 4.624 2.456 4.816 2.456C5.2 2.456 6.224 3.768 6.224 4.136C6.224 4.392 6.016 4.584 5.808 4.584ZM25.408 6.472V13.464C25.408 13.752 25.2 13.896 24.976 13.896C24.768 13.896 24.56 13.752 24.56 13.48C24.56 13.48 24.576 3.848 24.608 2.12C24.624 1.432 25.008 0.823999 26.08 0.775999C26.464 0.759999 26.928 0.743999 27.408 0.743999C27.872 0.743999 28.368 0.759999 28.816 0.775999C29.824 0.808 30.192 1.352 30.192 2.056C30.192 3.688 29.872 4.52 28.384 4.52C28.064 4.52 27.68 4.472 27.216 4.36C27.008 4.312 26.912 4.152 26.912 3.976C26.912 3.784 27.04 3.592 27.264 3.592C27.312 3.592 27.344 3.592 27.392 3.608C27.776 3.704 28.096 3.752 28.352 3.752C29.072 3.752 29.36 3.432 29.36 2.344C29.36 1.48 29.232 1.48 27.504 1.48C27.072 1.48 26.608 1.48 26.304 1.496C25.648 1.512 25.408 1.912 25.408 2.344V5.768C26.08 5.752 28.016 5.736 28.896 5.736C29.808 5.736 30.112 6.072 30.112 6.728C30.112 7.4 29.744 9.256 28.752 10.952C29.344 11.64 30.08 12.2 30.96 12.648C31.104 12.728 31.168 12.856 31.168 12.984C31.168 13.208 30.992 13.432 30.72 13.432C30.352 13.432 29.2 12.648 28.336 11.608C27.52 12.744 26.544 13.496 26.24 13.496C26 13.496 25.808 13.304 25.808 13.096C25.808 12.968 25.872 12.84 26.032 12.744C26.768 12.296 27.36 11.672 27.84 10.984C26.72 9.4 26.208 7.544 26.208 7.336C26.208 7.096 26.416 6.984 26.608 6.984C26.752 6.984 26.896 7.064 26.928 7.192C27.216 8.392 27.648 9.432 28.256 10.312C28.784 9.368 29.28 7.784 29.28 6.888C29.28 6.472 29.2 6.456 27.84 6.456C26.976 6.456 25.872 6.456 25.408 6.472ZM23.504 4.632L20.544 4.616L17.648 4.632C17.392 4.632 17.28 4.456 17.28 4.296C17.28 4.104 17.408 3.928 17.648 3.928L20.16 3.944V2.328L18.208 2.344C17.952 2.344 17.84 2.168 17.84 2.008C17.84 1.816 17.968 1.64 18.208 1.64L20.144 1.656V0.504C20.144 0.247999 20.352 0.119999 20.56 0.119999C20.768 0.119999 20.976 0.247999 20.976 0.504V1.656L22.928 1.64C23.168 1.64 23.296 1.816 23.296 1.992C23.296 2.168 23.168 2.344 22.928 2.344L20.976 2.328L20.96 3.944L23.504 3.928C23.744 3.928 23.856 4.104 23.856 4.28C23.856 4.456 23.744 4.632 23.504 4.632ZM20.016 6.728C20.016 6.968 19.792 7.144 19.584 7.144C19.456 7.144 19.344 7.08 19.28 6.936C19.024 6.344 18.72 5.992 18.416 5.576C18.384 5.528 18.368 5.496 18.368 5.448C18.368 5.288 18.56 5.128 18.768 5.128C19.168 5.128 20.016 6.392 20.016 6.728ZM23.184 10.792L20.976 10.776V13.512C20.976 13.784 20.768 13.928 20.56 13.928C20.352 13.928 20.144 13.784 20.144 13.512L20.16 10.776L17.968 10.792C17.712 10.792 17.584 10.616 17.584 10.44C17.584 10.248 17.712 10.072 17.968 10.072L20.16 10.088V8.28L17.648 8.296C17.392 8.296 17.28 8.136 17.28 7.96C17.28 7.784 17.408 7.608 17.648 7.608H20.768C20.768 7.592 20.784 7.576 20.8 7.56C21.216 6.952 21.648 6.056 21.936 5.224C21.984 5.08 22.128 5.016 22.256 5.016C22.48 5.016 22.704 5.16 22.704 5.4C22.704 5.704 21.968 6.984 21.536 7.608H23.504C23.744 7.608 23.856 7.784 23.856 7.944C23.856 8.12 23.744 8.296 23.504 8.296L20.96 8.28L20.976 10.088L23.184 10.072C23.424 10.072 23.536 10.248 23.536 10.424C23.536 10.616 23.424 10.792 23.184 10.792ZM45.184 6.408H45.168C44.592 6.392 43.84 6.376 42.992 6.376C42.384 6.376 41.744 6.392 41.072 6.392C41.04 11.752 36.128 13.144 35.744 13.144C35.424 13.144 35.264 12.936 35.264 12.728C35.264 12.536 35.392 12.328 35.664 12.248C38.56 11.464 40.112 9.16 40.112 6.44V6.392C38.16 6.408 36.224 6.456 34.992 6.504H34.976C34.672 6.504 34.512 6.296 34.512 6.088C34.512 5.88 34.672 5.656 35.024 5.656C37.344 5.624 42.56 5.592 45.216 5.576C45.536 5.576 45.68 5.784 45.68 5.976C45.68 6.2 45.52 6.408 45.184 6.408ZM42.944 2.312H42.96C43.264 2.312 43.408 2.504 43.408 2.712C43.408 2.92 43.248 3.144 42.976 3.144C40.72 3.176 38.592 3.24 36.848 3.24C36.512 3.24 36.368 3.048 36.368 2.84C36.368 2.632 36.544 2.408 36.864 2.408H37.52C39.344 2.408 41.008 2.36 42.944 2.312ZM47.168 3.208C47.04 3.208 46.912 3.144 46.832 3.016C46.544 2.584 45.936 1.912 45.488 1.624C45.376 1.544 45.328 1.448 45.328 1.352C45.328 1.192 45.472 1.048 45.68 1.048C46.08 1.048 47.568 2.28 47.568 2.808C47.568 3.048 47.376 3.208 47.168 3.208ZM45.584 4.088C45.456 4.088 45.344 4.024 45.264 3.88C45.024 3.432 44.368 2.792 43.936 2.488C43.824 2.408 43.792 2.328 43.792 2.232C43.792 2.072 43.936 1.912 44.16 1.912C44.576 1.912 45.984 3.176 45.984 3.672C45.984 3.928 45.792 4.088 45.584 4.088ZM62.112 5.672H62.096C60.96 5.64 59.776 5.608 58.576 5.608V6.296C58.576 9.304 57.328 11.768 54.336 13.512C54.192 13.592 54.064 13.624 53.952 13.624C53.696 13.624 53.552 13.448 53.552 13.224C53.552 13.08 53.632 12.904 53.84 12.792C56.496 11.336 57.696 9.112 57.696 6.36V5.624C56.56 5.624 55.44 5.624 54.336 5.656V8.504C54.32 8.84 54.096 8.984 53.856 8.984C53.632 8.984 53.424 8.856 53.424 8.584V8.552C53.472 7.784 53.472 6.744 53.472 5.688C52.272 5.72 51.12 5.768 50.064 5.816H50.032C49.712 5.816 49.568 5.624 49.568 5.432C49.568 5.24 49.728 5.032 50.016 5.016L53.456 4.936C53.44 4.008 53.424 3.128 53.392 2.472V2.44C53.392 2.152 53.6 2.008 53.824 2.008C54.032 2.008 54.256 2.152 54.272 2.456C54.304 3.08 54.32 3.976 54.336 4.92L57.712 4.856C57.712 3.848 57.696 2.84 57.68 2.296C57.664 1.88 57.968 1.768 58.112 1.768C58.336 1.768 58.576 1.944 58.576 2.28V4.856C59.776 4.84 60.944 4.824 62.064 4.824C62.448 4.824 62.624 5.016 62.624 5.224C62.624 5.448 62.432 5.672 62.112 5.672ZM62.816 2.728C62.72 2.728 62.624 2.68 62.544 2.584C62.224 2.2 61.44 1.672 60.96 1.464C60.816 1.4 60.752 1.288 60.752 1.192C60.752 1.016 60.896 0.855999 61.136 0.855999C61.424 0.855999 63.216 1.688 63.216 2.312C63.216 2.552 63.024 2.728 62.816 2.728ZM61.52 3.88C61.424 3.88 61.312 3.832 61.232 3.736C60.912 3.336 60.16 2.824 59.68 2.616C59.536 2.552 59.472 2.456 59.472 2.344C59.472 2.184 59.632 2.008 59.872 2.008C59.952 2.008 61.904 2.76 61.904 3.496C61.904 3.72 61.712 3.88 61.52 3.88ZM71.6505 12.952V12.968C71.6505 13.304 71.3785 13.496 71.1385 13.496C70.8985 13.496 70.6905 13.352 70.6905 13V12.984C70.7065 11.544 70.7865 8.488 70.7865 6.552V6.088C69.2505 7.672 67.5865 8.984 65.5705 10.2C65.3785 10.312 65.2185 10.36 65.0905 10.36C64.8185 10.36 64.6585 10.168 64.6585 9.944C64.6585 9.784 64.7545 9.592 64.9625 9.48C68.2425 7.688 71.2025 4.84 73.0905 1.88C73.2185 1.672 73.3945 1.592 73.5705 1.592C73.8105 1.592 74.0345 1.784 74.0345 2.024C74.0345 2.136 73.9865 2.248 73.9065 2.36C73.1545 3.368 72.4185 4.28 71.6825 5.112C71.6505 6.2 71.6345 8.488 71.6345 10.424C71.6345 11.448 71.6345 12.376 71.6505 12.952ZM92.1945 4.664C89.2825 10.648 83.6185 12.632 82.9785 12.632C82.6265 12.632 82.4185 12.376 82.4185 12.12C82.4185 11.912 82.5625 11.672 82.9145 11.592C86.3865 10.712 89.7945 7.576 91.3465 4.136C91.4265 3.96 91.6025 3.864 91.7785 3.864C92.0185 3.864 92.2745 4.04 92.2745 4.344C92.2745 4.44 92.2585 4.552 92.1945 4.664ZM85.0745 6.072C84.9625 6.072 84.8345 6.024 84.7225 5.912C84.0825 5.288 82.8505 4.744 82.0505 4.52C81.8585 4.472 81.7785 4.312 81.7785 4.136C81.7785 3.912 81.9545 3.656 82.2425 3.656C82.3705 3.656 84.2745 4.216 85.3945 5.08C85.5385 5.192 85.6025 5.336 85.6025 5.496C85.6025 5.784 85.3625 6.072 85.0745 6.072ZM106.499 13.56V6.44H104.227C104.179 9.672 103.155 12.248 101.379 13.768C101.251 13.88 101.123 13.912 100.995 13.912C100.739 13.912 100.531 13.736 100.531 13.512C100.531 13.416 100.595 13.288 100.707 13.192C102.642 11.544 103.378 9.288 103.427 6.456H101.667C101.427 6.456 101.299 6.264 101.299 6.072C101.299 5.896 101.427 5.704 101.667 5.704L103.443 5.72C103.443 2.424 103.427 2.104 103.427 1.88H102.147C101.907 1.88 101.779 1.688 101.779 1.512C101.779 1.32 101.907 1.144 102.147 1.144H108.803C109.059 1.144 109.187 1.32 109.187 1.496C109.187 1.688 109.043 1.88 108.787 1.88H107.331V5.72L109.347 5.704C109.603 5.704 109.731 5.896 109.731 6.072C109.731 6.264 109.603 6.456 109.347 6.456L107.331 6.44L107.347 13.56C107.347 13.8 107.139 13.928 106.915 13.928C106.707 13.928 106.499 13.8 106.499 13.56ZM100.867 1.832H98.8025C98.5945 2.824 98.2745 3.864 97.8745 4.888C97.9705 4.856 98.0825 4.84 98.1945 4.84C98.3865 4.824 98.6425 4.824 98.8825 4.824C99.8905 4.824 100.707 4.856 100.739 5.944C100.771 6.664 100.771 7.496 100.771 8.312C100.771 9.128 100.771 9.928 100.739 10.632C100.691 11.864 99.7465 11.864 98.7385 11.864C97.3305 11.864 97.0265 11.672 97.0265 9.928C97.0265 8.888 97.0425 7.688 97.0745 6.696C96.3385 8.216 96.0825 8.392 95.8585 8.392C95.6345 8.392 95.4425 8.232 95.4425 8.008C95.4425 7.928 95.4745 7.832 95.5385 7.736C96.6745 6.168 97.5705 4.104 98.0185 1.832H96.3865C96.1465 1.832 96.0185 1.64 96.0185 1.464C96.0185 1.272 96.1465 1.096 96.3865 1.096H100.867C101.107 1.096 101.235 1.272 101.235 1.464C101.235 1.64 101.107 1.832 100.867 1.832ZM106.499 5.72L106.515 1.88H104.259C104.259 2.872 104.243 4.344 104.243 5.72H106.499ZM99.9545 10.52C99.9705 10.04 99.9705 9.384 99.9705 8.696C99.9705 7.768 99.9705 6.792 99.9545 6.12C99.9545 5.528 99.5705 5.528 98.6745 5.528C98.3545 5.528 97.8425 5.528 97.8105 6.12C97.7945 6.68 97.7945 7.496 97.7945 8.312C97.7945 9.144 97.7945 9.96 97.8105 10.552C97.8265 11.096 98.2105 11.144 98.8665 11.144C99.4585 11.144 99.9545 11.08 99.9545 10.52ZM118.227 8.872C117.715 11.064 116.339 13.096 112.851 13.832C112.803 13.848 112.771 13.848 112.739 13.848C112.451 13.848 112.291 13.608 112.291 13.384C112.291 13.208 112.387 13.032 112.595 13C115.635 12.44 116.899 10.76 117.379 8.904L113.827 8.984C113.587 8.984 113.459 8.792 113.459 8.616C113.459 8.424 113.587 8.232 113.843 8.216L117.523 8.152C117.603 7.592 117.635 7.032 117.635 6.488C117.635 6.232 117.843 6.104 118.067 6.104C118.275 6.104 118.483 6.232 118.483 6.504C118.483 6.616 118.451 7.624 118.371 8.136C119.043 8.12 119.587 8.12 119.891 8.12C120.899 8.12 121.315 8.6 121.315 9.288V9.448C121.123 11.672 121.107 11.912 121.107 12.008C121.107 12.76 121.811 12.776 122.339 12.776C123.683 12.776 124.355 12.632 124.355 11.016V10.952C124.355 10.68 124.563 10.568 124.787 10.568C125.027 10.568 125.267 10.696 125.267 10.952C125.267 13.416 123.843 13.528 122.419 13.528C121.283 13.528 120.243 13.4 120.243 12.168V12.088C120.259 11.528 120.403 10.264 120.435 9.592V9.496C120.435 9.048 120.211 8.856 119.683 8.856C119.427 8.856 118.883 8.856 118.227 8.872ZM123.779 4.2V3.48C123.779 2.968 123.523 2.728 122.675 2.712C121.507 2.696 119.987 2.68 118.483 2.68C116.995 2.68 115.507 2.696 114.403 2.712C113.555 2.728 113.235 3.08 113.219 3.592C113.219 3.816 113.235 4.296 113.235 4.584C113.235 4.856 113.011 5 112.771 5C112.339 5 112.323 4.68 112.323 3.96C112.323 3.752 112.339 3.576 112.339 3.416C112.355 2.696 112.883 2.024 114.035 2.008C115.427 1.992 116.787 1.992 118.147 1.992L118.131 0.487999C118.131 0.2 118.371 0.0719995 118.595 0.0719995C118.835 0.0719995 119.059 0.2 119.059 0.487999L119.043 1.992C120.339 1.992 121.619 1.992 122.947 2.008C124.003 2.024 124.675 2.456 124.691 3.304V3.864C124.691 4.232 124.691 4.6 124.227 4.6C124.003 4.6 123.779 4.472 123.779 4.2ZM119.651 5.272V3.704C119.651 3.48 119.859 3.368 120.051 3.368C120.259 3.368 120.451 3.48 120.451 3.672V3.688C120.435 4.088 120.435 4.984 120.435 5.144C120.451 5.832 120.659 5.912 121.779 5.912C123.075 5.912 123.443 5.864 123.491 5.064C123.507 4.824 123.683 4.712 123.875 4.712C124.083 4.712 124.291 4.84 124.291 5.08C124.259 6.584 123.075 6.616 121.795 6.616C120.562 6.616 119.651 6.584 119.651 5.272ZM117.411 4.088C116.147 6.056 113.779 7 113.299 7C113.011 7 112.851 6.792 112.851 6.584C112.851 6.424 112.947 6.264 113.155 6.216C114.339 5.928 115.955 5.032 116.771 3.592C116.835 3.48 116.947 3.432 117.059 3.432C117.267 3.432 117.491 3.592 117.491 3.832C117.491 3.912 117.475 3.992 117.411 4.088ZM141.107 1.688L138.355 1.672C138.227 2.136 137.987 2.792 137.843 3.176C138.355 3.176 138.867 3.176 139.299 3.192C140.243 3.224 140.675 3.752 140.707 4.376C140.739 5.08 140.755 5.96 140.755 6.856C140.755 7.88 140.739 8.904 140.707 9.672C140.675 10.44 140.131 10.888 139.299 10.936C138.883 10.952 138.403 10.968 137.923 10.968C137.443 10.968 136.963 10.952 136.547 10.936C135.683 10.888 135.187 10.408 135.171 9.688C135.155 8.984 135.155 8.056 135.155 7.096C135.155 6.152 135.155 5.176 135.171 4.392C135.187 3.832 135.587 3.24 136.562 3.192C136.723 3.192 136.883 3.176 137.059 3.176C137.187 2.776 137.347 2.264 137.475 1.672L134.771 1.688C134.515 1.688 134.387 1.512 134.387 1.336C134.387 1.144 134.531 0.952 134.771 0.952H141.107C141.363 0.952 141.475 1.128 141.475 1.32C141.475 1.496 141.363 1.688 141.107 1.688ZM130.275 13.4L130.291 6.84C129.635 6.84 128.979 6.856 128.451 6.856C128.211 6.856 128.099 6.68 128.099 6.504C128.099 6.328 128.211 6.152 128.451 6.152C129.555 6.152 130.755 6.12 131.811 6.12H132.323C133.267 6.12 133.651 6.568 133.683 7.352C133.699 7.72 133.715 8.504 133.715 9.16C133.715 10.424 133.667 11.256 132.323 11.256C131.715 11.256 131.507 11.16 131.507 10.84C131.507 10.648 131.619 10.472 131.811 10.472H131.859C132.019 10.504 132.195 10.536 132.355 10.536C132.931 10.536 132.931 10.12 132.931 9.288C132.931 8.68 132.931 7.848 132.915 7.496C132.899 7.064 132.771 6.824 132.179 6.824H131.075L131.091 13.4C131.091 13.672 130.883 13.8 130.691 13.8C130.483 13.8 130.275 13.672 130.275 13.4ZM134.275 4.024C134.275 4.264 134.035 4.488 133.795 4.488C133.523 4.488 133.267 4.248 131.539 1.48C131.427 1.288 131.299 1.208 131.171 1.208C131.011 1.208 130.867 1.336 130.755 1.528C130.227 2.536 129.091 4.008 128.403 4.84C128.291 4.984 128.147 5.032 128.019 5.032C127.779 5.032 127.571 4.856 127.571 4.632C127.571 4.536 127.618 4.424 127.715 4.312C128.499 3.48 129.699 1.832 130.083 1.064C130.323 0.615999 130.691 0.375999 131.075 0.375999C131.443 0.375999 131.843 0.599999 132.147 1.064C132.515 1.624 133.603 3.144 134.163 3.768C134.243 3.848 134.275 3.944 134.275 4.024ZM139.939 8.408H135.907C135.907 8.84 135.923 9.224 135.939 9.544C135.955 10.2 136.339 10.344 137.795 10.344C139.491 10.344 139.907 10.296 139.923 9.544C139.939 9.224 139.939 8.84 139.939 8.408ZM139.939 7.768V6.12H135.907V7.768H139.939ZM135.907 5.48H139.939C139.939 5.128 139.939 4.824 139.923 4.552C139.891 3.8 139.491 3.768 137.843 3.768C136.467 3.768 135.97 3.8 135.939 4.568C135.939 4.84 135.907 5.144 135.907 5.48ZM137.107 11.832C137.107 12.328 134.562 13.8 133.763 13.8C133.491 13.8 133.331 13.608 133.331 13.416C133.331 13.24 133.459 13.048 133.715 12.984C134.691 12.728 135.747 12.2 136.403 11.528C136.483 11.448 136.579 11.4 136.675 11.4C136.899 11.4 137.107 11.624 137.107 11.832ZM141.523 13.704C140.899 13.704 138.835 12.168 138.835 11.768C138.835 11.576 139.027 11.368 139.235 11.368C139.331 11.368 139.411 11.4 139.491 11.48C140.051 12.04 140.835 12.6 141.699 12.872C141.907 12.936 141.987 13.08 141.987 13.24C141.987 13.464 141.811 13.704 141.523 13.704ZM132.483 4.6H129.683C129.443 4.6 129.331 4.424 129.331 4.248C129.331 4.072 129.459 3.88 129.683 3.88H132.483C132.707 3.88 132.819 4.056 132.819 4.232C132.819 4.424 132.707 4.6 132.483 4.6ZM156.499 2.136C156.419 2.136 156.323 2.104 156.259 2.024C155.891 1.576 155.427 1.272 154.899 0.999999C154.803 0.952 154.755 0.872 154.755 0.792C154.755 0.615999 154.931 0.44 155.155 0.44C155.395 0.44 156.883 1.176 156.883 1.736C156.883 1.96 156.691 2.136 156.499 2.136ZM154.499 9.432V9.416C155.219 8.328 155.731 7.096 156.067 5.768C156.115 5.592 156.243 5.512 156.403 5.512C156.627 5.512 156.867 5.672 156.867 5.928C156.867 5.992 156.355 8.2 154.707 10.408C154.755 10.584 155.283 12.728 156.035 12.728C156.499 12.728 156.819 11.848 156.883 11.08C156.899 10.872 157.075 10.76 157.251 10.76C157.475 10.76 157.699 10.904 157.699 11.176C157.699 11.816 157.219 13.592 156.019 13.592C155.043 13.592 154.499 12.456 154.099 11.16C152.227 13.224 150.307 13.832 150.131 13.832C149.875 13.832 149.731 13.64 149.731 13.448C149.731 13.288 149.827 13.112 150.051 13.032C151.587 12.456 152.851 11.496 153.859 10.264C153.395 8.28 153.235 5.848 153.155 3.672L148.435 3.688C148.163 3.688 148.035 3.496 148.035 3.304C148.035 3.112 148.163 2.92 148.435 2.92L153.139 2.936C153.123 2.36 153.075 0.983999 153.075 0.599999C153.075 0.344 153.283 0.216 153.507 0.216C153.715 0.216 153.923 0.344 153.923 0.631999C153.923 1.304 153.923 2.088 153.939 2.936L156.899 2.92C157.171 2.92 157.299 3.112 157.299 3.304C157.299 3.496 157.171 3.688 156.899 3.688L153.955 3.672C154.019 5.576 154.179 7.704 154.499 9.432ZM150.355 8.984C149.555 8.984 148.851 8.936 148.835 8.024C148.835 7.672 148.819 7.32 148.819 6.984C148.819 6.632 148.835 6.264 148.835 5.896C148.867 5 149.491 4.936 150.499 4.936C151.363 4.936 152.067 4.984 152.099 5.88C152.115 6.296 152.131 6.68 152.131 7.064C152.131 8.712 152.115 8.984 150.355 8.984ZM145.635 9.56V4.92H144.195C143.955 4.92 143.827 4.728 143.827 4.536C143.827 4.36 143.955 4.168 144.195 4.168L145.619 4.184V1.176C145.619 0.919999 145.827 0.792 146.035 0.792C146.259 0.792 146.467 0.919999 146.467 1.176L146.451 4.184L147.683 4.168C147.923 4.168 148.035 4.36 148.035 4.536C148.035 4.728 147.923 4.92 147.683 4.92H146.451V9.224C146.931 9.016 147.363 8.776 147.779 8.552C147.843 8.52 147.907 8.504 147.955 8.504C148.163 8.504 148.307 8.696 148.307 8.888C148.307 9.016 148.243 9.16 148.083 9.24C146.786 9.96 144.355 11 143.971 11C143.715 11 143.571 10.776 143.571 10.568C143.571 10.408 143.651 10.248 143.827 10.2C144.451 10.008 145.059 9.8 145.635 9.56ZM152.787 9.944C151.027 10.984 148.083 11.768 147.987 11.768C147.731 11.768 147.603 11.56 147.603 11.352C147.603 11.192 147.699 11.016 147.891 10.984C149.443 10.648 151.347 9.928 152.531 9.336C152.579 9.32 152.627 9.304 152.675 9.304C152.835 9.304 152.963 9.464 152.963 9.64C152.963 9.752 152.915 9.864 152.787 9.944ZM150.915 5.576H150.019C149.523 5.608 149.507 5.896 149.507 6.952C149.507 8.28 149.507 8.328 150.467 8.328C151.395 8.328 151.427 8.312 151.427 6.92C151.427 5.752 151.395 5.608 150.915 5.576Z" fill="#6A6A6A"/>
</svg>
