<svg width="195" height="261" viewBox="0 0 195 261" fill="none" xmlns="http://www.w3.org/2000/svg">
<path d="M0.808594 242.736V17.9033C0.808594 7.75823 8.41741 0.149414 18.5625 0.149414H64.0662C107.63 0.149414 142.094 14.3227 162.533 38.0443C183.271 61.7659 194.013 93.2455 194.013 130.245C194.013 167.245 182.973 198.874 161.936 222.595C141.049 246.317 106.884 260.49 64.0662 260.49H18.5625C8.41741 260.49 0.808594 252.881 0.808594 242.736ZM36.3164 35.2096V224.982H64.0662C93.3079 224.982 116.582 216.628 130.158 204.543C137.021 198.426 142.691 191.116 147.017 182.612C155.82 165.455 158.803 149.193 158.803 130.245C158.803 110.403 155.82 93.8423 147.017 76.9835C142.691 68.4795 137.021 61.3183 130.009 55.4998C116.284 43.5644 93.4571 35.2096 64.0662 35.2096H36.3164Z" fill="#272727"/>
</svg>
