<svg width="190" height="261" viewBox="0 0 190 261" fill="none" xmlns="http://www.w3.org/2000/svg">
<path d="M0.724121 242.736V17.9033C0.724121 9.69773 5.49828 3.43165 13.2563 1.04457C15.345 0.447799 17.2845 0.149414 19.0748 0.149414C24.5949 0.149414 29.0707 2.83488 32.8005 8.05661L154.989 185.894V17.9033C154.989 8.2058 162.598 0.149414 172.295 0.149414C177.219 0.149414 181.396 1.93972 184.678 5.37115C188.11 8.80257 189.751 12.98 189.751 17.9033V242.736C189.751 254.522 183.186 260.49 170.207 260.49H18.3288C8.18374 260.49 0.724121 252.881 0.724121 242.736ZM35.7843 74.7456V224.982H139.026L35.7843 74.7456Z" fill="#272727"/>
</svg>
